<svg width="70" height="70" viewBox="0 0 70 70" fill="none" xmlns="http://www.w3.org/2000/svg">
<rect width="70" height="70" rx="35" fill="white" fill-opacity="0.5"/>
<mask id="path-2-outside-1_96_813" maskUnits="userSpaceOnUse" x="6.03027" y="13" width="58" height="44" fill="black">
<rect fill="white" x="6.03027" y="13" width="58" height="44"/>
<path fill-rule="evenodd" clip-rule="evenodd" d="M12.6938 42.391C12.3988 42.391 12.1366 42.1943 12.0055 41.9321L8.95707 34.5241L8.4654 35.7369C8.3015 36.1303 7.87538 36.2942 7.48204 36.163C7.12148 35.9991 6.92481 35.573 7.0887 35.1797L8.23595 32.2952C8.36706 32.0002 8.62929 31.8363 8.9243 31.8363C9.25208 31.8363 9.51431 32.0002 9.61264 32.2952L12.7266 39.7359L16.2667 31.5741C16.365 31.279 16.66 31.1152 16.955 31.1152C17.2828 31.1479 17.545 31.3118 17.6434 31.6068L19.4462 36.5564L20.7245 34.3274C20.8557 34.098 21.0851 33.9669 21.3473 33.9669H23.9696C24.3957 33.9669 24.7235 34.2947 24.7235 34.7208C24.7235 35.1141 24.3957 35.4747 23.9696 35.4747H21.8062L19.9051 38.687C19.774 38.9164 19.5117 39.0803 19.2167 39.0475C18.9217 39.0148 18.6595 38.8181 18.5612 38.5559L16.8895 33.9013L13.3822 41.9321C13.2838 42.1943 13.0216 42.391 12.6938 42.391ZM47.0129 39.7359H44.4234C43.9973 39.7359 43.6695 39.4081 43.6695 38.982V36.2286H40.9161C40.49 36.2286 40.1622 35.9008 40.1622 35.4747V32.8852C40.1622 32.4919 40.49 32.1641 40.9161 32.1641H43.6695V29.3779C43.6695 28.9846 43.9973 28.6568 44.4234 28.6568H47.0129C47.4062 28.6568 47.7668 28.9846 47.7668 29.3779V32.1641H50.5202C50.9135 32.1641 51.2741 32.4919 51.2741 32.8852V35.4747C51.2741 35.9008 50.9135 36.2286 50.5202 36.2286H47.7668V38.982C47.7668 39.4081 47.4062 39.7359 47.0129 39.7359ZM45.1773 38.2609H46.259V35.4747C46.259 35.0814 46.5868 34.7536 47.0129 34.7536H49.7663V33.6391H47.0129C46.5868 33.6391 46.259 33.3113 46.259 32.8852V30.1318H45.1773V32.8852C45.1773 33.3113 44.8495 33.6391 44.4234 33.6391H41.67V34.7536H44.4234C44.8495 34.7536 45.1773 35.0814 45.1773 35.4747V38.2609ZM45.7017 43.866C44.5545 43.866 43.44 43.6693 42.3911 43.276C42.0961 43.7349 41.8339 44.1282 41.5389 44.5216C39.9327 46.5538 39.7361 46.9472 39.2444 47.9961C38.9822 48.4878 38.6872 49.1433 38.0971 50.1595C35.9338 54.1256 32.3609 55.994 29.2797 55.994C28.3619 55.994 27.4769 55.8301 26.6902 55.5023C25.248 54.8796 20.6918 52.1589 23.4779 42.8171C23.5435 42.5221 23.8057 42.3254 24.1007 42.2926C24.3957 42.2598 24.6907 42.391 24.8219 42.6532C24.8219 42.6532 25.7397 44.1938 27.1491 44.2593C27.7064 44.2921 28.2964 44.0954 28.9519 43.6365C27.7719 43.3088 26.9852 42.7187 26.5591 41.8993C25.838 40.5554 26.4608 39.1131 26.5919 38.8837C27.5425 36.5564 26.1002 34.4258 26.1002 34.393C25.838 34.0652 25.9363 33.6063 26.2641 33.3441C26.6247 33.1146 27.0836 33.213 27.313 33.5408C27.3786 33.6719 29.247 36.3925 27.9686 39.4737C27.9358 39.4737 27.9358 39.5064 27.9358 39.5392C27.9358 39.5392 27.4769 40.457 27.8703 41.2109C28.198 41.8009 29.0175 42.2271 30.2631 42.4237C30.3614 42.2598 30.4925 42.1287 30.5909 41.9648C30.7548 41.6043 31.4103 40.4242 32.787 39.867C34.0654 39.3753 35.606 39.572 37.3105 40.457C37.7038 40.6537 37.8349 41.1126 37.6382 41.4732C37.4743 41.8337 37.0155 41.9648 36.6549 41.8009C35.311 41.1126 34.2293 40.9487 33.3443 41.2765C32.3281 41.637 31.9348 42.6204 31.9348 42.6204L31.8365 42.8171C30.2631 44.8821 28.6569 45.8655 27.0508 45.7671C25.9691 45.7016 25.1169 45.1443 24.5269 44.6199C23.4124 49.4055 24.3957 52.9456 27.2802 54.1256C30.0664 55.3057 34.3932 53.8634 36.786 49.4383C37.3432 48.455 37.6382 47.8322 37.9005 47.3405C38.4249 46.226 38.6544 45.7671 40.3589 43.6038C40.5883 43.3088 40.8178 42.981 41.0144 42.6532C40.2277 42.2271 39.5066 41.6698 38.8838 41.0143C35.1143 37.2447 35.1143 31.1152 38.8838 27.3456C40.3589 25.8706 42.2272 24.92 44.2595 24.625C43.5384 20.8883 41.6044 18.2004 38.4905 16.6926C34.5898 14.7915 29.5092 15.152 25.838 17.6432C22.8879 19.6427 21.3801 22.6255 21.6096 26.1C21.6423 26.5262 21.3473 26.8867 20.9212 26.8867C20.9212 26.9195 20.8884 26.9195 20.8557 26.9195C20.4951 26.9195 20.1673 26.5917 20.1345 26.1984C19.8395 22.1994 21.5768 18.6921 25.0185 16.3976C29.1158 13.6442 34.7865 13.2181 39.1461 15.3487C41.6372 16.5615 44.784 19.151 45.7673 24.5267C48.324 24.5267 50.7496 25.5428 52.5525 27.3456C56.1581 30.9513 56.322 36.6875 53.0441 40.4898L55.6336 43.0465C55.9614 42.8826 56.3548 42.7843 56.7481 42.7843C57.4037 42.7843 58.0265 43.0137 58.4854 43.5054L62.2549 47.2422C63.2055 48.2255 63.2055 49.7661 62.2549 50.7167C61.796 51.1756 61.1732 51.4378 60.5176 51.4378C59.8621 51.4378 59.2393 51.1756 58.7804 50.7167L55.0108 46.9472C54.5519 46.4883 54.2897 45.8655 54.2897 45.2099C54.2897 44.8166 54.388 44.456 54.5519 44.0954L51.9952 41.5387C50.258 43.0465 48.0618 43.866 45.7017 43.866ZM45.7017 26.0017C45.5379 26.0017 45.374 26.0345 45.2101 26.0345H45.1445C43.1778 26.1656 41.3422 26.9851 39.9327 28.3945C36.7532 31.6068 36.7532 36.7858 39.9327 39.9653C40.6211 40.6865 41.4405 41.2437 42.3256 41.637C42.3583 41.637 42.3911 41.6698 42.4239 41.6698C43.44 42.1287 44.5545 42.3582 45.7017 42.3582C47.8979 42.3582 49.963 41.5059 51.5035 39.9653C54.6831 36.7858 54.6831 31.6068 51.5035 28.3945C49.963 26.854 47.8979 26.0017 45.7017 26.0017ZM56.7481 44.2593C56.4859 44.2593 56.2564 44.3577 56.0597 44.5543C55.8959 44.7182 55.7975 44.9805 55.7975 45.2099C55.7975 45.4721 55.8959 45.7344 56.0597 45.8983L59.8293 49.6678C60.1898 50.0283 60.8454 50.0283 61.206 49.6678C61.5665 49.3072 61.5665 48.6844 61.206 48.3239L57.4364 44.5543C57.2398 44.3577 57.0103 44.2593 56.7481 44.2593ZM31.017 34.4586C30.8531 34.4586 30.6892 34.393 30.5253 34.2619C22.9207 27.6079 26.5919 22.1666 27.903 20.6588C28.6897 19.7082 29.4436 19.3149 30.5581 18.856C35.8026 16.7582 39.5066 21.2816 40.7194 23.9367C40.8833 24.33 40.7194 24.7561 40.3261 24.9528C39.9655 25.1167 39.5066 24.9528 39.3427 24.5595C39.2444 24.2972 36.3599 18.1677 31.0825 20.2655C30.1975 20.626 29.6403 20.921 29.0175 21.6422C27.313 23.6089 25.3463 27.739 31.5087 33.1474C31.8365 33.4096 31.8692 33.9013 31.5742 34.1963C31.4431 34.3602 31.2464 34.4586 31.017 34.4586Z"/>
</mask>
<path fill-rule="evenodd" clip-rule="evenodd" d="M12.6938 42.391C12.3988 42.391 12.1366 42.1943 12.0055 41.9321L8.95707 34.5241L8.4654 35.7369C8.3015 36.1303 7.87538 36.2942 7.48204 36.163C7.12148 35.9991 6.92481 35.573 7.0887 35.1797L8.23595 32.2952C8.36706 32.0002 8.62929 31.8363 8.9243 31.8363C9.25208 31.8363 9.51431 32.0002 9.61264 32.2952L12.7266 39.7359L16.2667 31.5741C16.365 31.279 16.66 31.1152 16.955 31.1152C17.2828 31.1479 17.545 31.3118 17.6434 31.6068L19.4462 36.5564L20.7245 34.3274C20.8557 34.098 21.0851 33.9669 21.3473 33.9669H23.9696C24.3957 33.9669 24.7235 34.2947 24.7235 34.7208C24.7235 35.1141 24.3957 35.4747 23.9696 35.4747H21.8062L19.9051 38.687C19.774 38.9164 19.5117 39.0803 19.2167 39.0475C18.9217 39.0148 18.6595 38.8181 18.5612 38.5559L16.8895 33.9013L13.3822 41.9321C13.2838 42.1943 13.0216 42.391 12.6938 42.391ZM47.0129 39.7359H44.4234C43.9973 39.7359 43.6695 39.4081 43.6695 38.982V36.2286H40.9161C40.49 36.2286 40.1622 35.9008 40.1622 35.4747V32.8852C40.1622 32.4919 40.49 32.1641 40.9161 32.1641H43.6695V29.3779C43.6695 28.9846 43.9973 28.6568 44.4234 28.6568H47.0129C47.4062 28.6568 47.7668 28.9846 47.7668 29.3779V32.1641H50.5202C50.9135 32.1641 51.2741 32.4919 51.2741 32.8852V35.4747C51.2741 35.9008 50.9135 36.2286 50.5202 36.2286H47.7668V38.982C47.7668 39.4081 47.4062 39.7359 47.0129 39.7359ZM45.1773 38.2609H46.259V35.4747C46.259 35.0814 46.5868 34.7536 47.0129 34.7536H49.7663V33.6391H47.0129C46.5868 33.6391 46.259 33.3113 46.259 32.8852V30.1318H45.1773V32.8852C45.1773 33.3113 44.8495 33.6391 44.4234 33.6391H41.67V34.7536H44.4234C44.8495 34.7536 45.1773 35.0814 45.1773 35.4747V38.2609ZM45.7017 43.866C44.5545 43.866 43.44 43.6693 42.3911 43.276C42.0961 43.7349 41.8339 44.1282 41.5389 44.5216C39.9327 46.5538 39.7361 46.9472 39.2444 47.9961C38.9822 48.4878 38.6872 49.1433 38.0971 50.1595C35.9338 54.1256 32.3609 55.994 29.2797 55.994C28.3619 55.994 27.4769 55.8301 26.6902 55.5023C25.248 54.8796 20.6918 52.1589 23.4779 42.8171C23.5435 42.5221 23.8057 42.3254 24.1007 42.2926C24.3957 42.2598 24.6907 42.391 24.8219 42.6532C24.8219 42.6532 25.7397 44.1938 27.1491 44.2593C27.7064 44.2921 28.2964 44.0954 28.9519 43.6365C27.7719 43.3088 26.9852 42.7187 26.5591 41.8993C25.838 40.5554 26.4608 39.1131 26.5919 38.8837C27.5425 36.5564 26.1002 34.4258 26.1002 34.393C25.838 34.0652 25.9363 33.6063 26.2641 33.3441C26.6247 33.1146 27.0836 33.213 27.313 33.5408C27.3786 33.6719 29.247 36.3925 27.9686 39.4737C27.9358 39.4737 27.9358 39.5064 27.9358 39.5392C27.9358 39.5392 27.4769 40.457 27.8703 41.2109C28.198 41.8009 29.0175 42.2271 30.2631 42.4237C30.3614 42.2598 30.4925 42.1287 30.5909 41.9648C30.7548 41.6043 31.4103 40.4242 32.787 39.867C34.0654 39.3753 35.606 39.572 37.3105 40.457C37.7038 40.6537 37.8349 41.1126 37.6382 41.4732C37.4743 41.8337 37.0155 41.9648 36.6549 41.8009C35.311 41.1126 34.2293 40.9487 33.3443 41.2765C32.3281 41.637 31.9348 42.6204 31.9348 42.6204L31.8365 42.8171C30.2631 44.8821 28.6569 45.8655 27.0508 45.7671C25.9691 45.7016 25.1169 45.1443 24.5269 44.6199C23.4124 49.4055 24.3957 52.9456 27.2802 54.1256C30.0664 55.3057 34.3932 53.8634 36.786 49.4383C37.3432 48.455 37.6382 47.8322 37.9005 47.3405C38.4249 46.226 38.6544 45.7671 40.3589 43.6038C40.5883 43.3088 40.8178 42.981 41.0144 42.6532C40.2277 42.2271 39.5066 41.6698 38.8838 41.0143C35.1143 37.2447 35.1143 31.1152 38.8838 27.3456C40.3589 25.8706 42.2272 24.92 44.2595 24.625C43.5384 20.8883 41.6044 18.2004 38.4905 16.6926C34.5898 14.7915 29.5092 15.152 25.838 17.6432C22.8879 19.6427 21.3801 22.6255 21.6096 26.1C21.6423 26.5262 21.3473 26.8867 20.9212 26.8867C20.9212 26.9195 20.8884 26.9195 20.8557 26.9195C20.4951 26.9195 20.1673 26.5917 20.1345 26.1984C19.8395 22.1994 21.5768 18.6921 25.0185 16.3976C29.1158 13.6442 34.7865 13.2181 39.1461 15.3487C41.6372 16.5615 44.784 19.151 45.7673 24.5267C48.324 24.5267 50.7496 25.5428 52.5525 27.3456C56.1581 30.9513 56.322 36.6875 53.0441 40.4898L55.6336 43.0465C55.9614 42.8826 56.3548 42.7843 56.7481 42.7843C57.4037 42.7843 58.0265 43.0137 58.4854 43.5054L62.2549 47.2422C63.2055 48.2255 63.2055 49.7661 62.2549 50.7167C61.796 51.1756 61.1732 51.4378 60.5176 51.4378C59.8621 51.4378 59.2393 51.1756 58.7804 50.7167L55.0108 46.9472C54.5519 46.4883 54.2897 45.8655 54.2897 45.2099C54.2897 44.8166 54.388 44.456 54.5519 44.0954L51.9952 41.5387C50.258 43.0465 48.0618 43.866 45.7017 43.866ZM45.7017 26.0017C45.5379 26.0017 45.374 26.0345 45.2101 26.0345H45.1445C43.1778 26.1656 41.3422 26.9851 39.9327 28.3945C36.7532 31.6068 36.7532 36.7858 39.9327 39.9653C40.6211 40.6865 41.4405 41.2437 42.3256 41.637C42.3583 41.637 42.3911 41.6698 42.4239 41.6698C43.44 42.1287 44.5545 42.3582 45.7017 42.3582C47.8979 42.3582 49.963 41.5059 51.5035 39.9653C54.6831 36.7858 54.6831 31.6068 51.5035 28.3945C49.963 26.854 47.8979 26.0017 45.7017 26.0017ZM56.7481 44.2593C56.4859 44.2593 56.2564 44.3577 56.0597 44.5543C55.8959 44.7182 55.7975 44.9805 55.7975 45.2099C55.7975 45.4721 55.8959 45.7344 56.0597 45.8983L59.8293 49.6678C60.1898 50.0283 60.8454 50.0283 61.206 49.6678C61.5665 49.3072 61.5665 48.6844 61.206 48.3239L57.4364 44.5543C57.2398 44.3577 57.0103 44.2593 56.7481 44.2593ZM31.017 34.4586C30.8531 34.4586 30.6892 34.393 30.5253 34.2619C22.9207 27.6079 26.5919 22.1666 27.903 20.6588C28.6897 19.7082 29.4436 19.3149 30.5581 18.856C35.8026 16.7582 39.5066 21.2816 40.7194 23.9367C40.8833 24.33 40.7194 24.7561 40.3261 24.9528C39.9655 25.1167 39.5066 24.9528 39.3427 24.5595C39.2444 24.2972 36.3599 18.1677 31.0825 20.2655C30.1975 20.626 29.6403 20.921 29.0175 21.6422C27.313 23.6089 25.3463 27.739 31.5087 33.1474C31.8365 33.4096 31.8692 33.9013 31.5742 34.1963C31.4431 34.3602 31.2464 34.4586 31.017 34.4586Z" fill="url(#paint0_linear_96_813)"/>
<path fill-rule="evenodd" clip-rule="evenodd" d="M12.6938 42.391C12.3988 42.391 12.1366 42.1943 12.0055 41.9321L8.95707 34.5241L8.4654 35.7369C8.3015 36.1303 7.87538 36.2942 7.48204 36.163C7.12148 35.9991 6.92481 35.573 7.0887 35.1797L8.23595 32.2952C8.36706 32.0002 8.62929 31.8363 8.9243 31.8363C9.25208 31.8363 9.51431 32.0002 9.61264 32.2952L12.7266 39.7359L16.2667 31.5741C16.365 31.279 16.66 31.1152 16.955 31.1152C17.2828 31.1479 17.545 31.3118 17.6434 31.6068L19.4462 36.5564L20.7245 34.3274C20.8557 34.098 21.0851 33.9669 21.3473 33.9669H23.9696C24.3957 33.9669 24.7235 34.2947 24.7235 34.7208C24.7235 35.1141 24.3957 35.4747 23.9696 35.4747H21.8062L19.9051 38.687C19.774 38.9164 19.5117 39.0803 19.2167 39.0475C18.9217 39.0148 18.6595 38.8181 18.5612 38.5559L16.8895 33.9013L13.3822 41.9321C13.2838 42.1943 13.0216 42.391 12.6938 42.391ZM47.0129 39.7359H44.4234C43.9973 39.7359 43.6695 39.4081 43.6695 38.982V36.2286H40.9161C40.49 36.2286 40.1622 35.9008 40.1622 35.4747V32.8852C40.1622 32.4919 40.49 32.1641 40.9161 32.1641H43.6695V29.3779C43.6695 28.9846 43.9973 28.6568 44.4234 28.6568H47.0129C47.4062 28.6568 47.7668 28.9846 47.7668 29.3779V32.1641H50.5202C50.9135 32.1641 51.2741 32.4919 51.2741 32.8852V35.4747C51.2741 35.9008 50.9135 36.2286 50.5202 36.2286H47.7668V38.982C47.7668 39.4081 47.4062 39.7359 47.0129 39.7359ZM45.1773 38.2609H46.259V35.4747C46.259 35.0814 46.5868 34.7536 47.0129 34.7536H49.7663V33.6391H47.0129C46.5868 33.6391 46.259 33.3113 46.259 32.8852V30.1318H45.1773V32.8852C45.1773 33.3113 44.8495 33.6391 44.4234 33.6391H41.67V34.7536H44.4234C44.8495 34.7536 45.1773 35.0814 45.1773 35.4747V38.2609ZM45.7017 43.866C44.5545 43.866 43.44 43.6693 42.3911 43.276C42.0961 43.7349 41.8339 44.1282 41.5389 44.5216C39.9327 46.5538 39.7361 46.9472 39.2444 47.9961C38.9822 48.4878 38.6872 49.1433 38.0971 50.1595C35.9338 54.1256 32.3609 55.994 29.2797 55.994C28.3619 55.994 27.4769 55.8301 26.6902 55.5023C25.248 54.8796 20.6918 52.1589 23.4779 42.8171C23.5435 42.5221 23.8057 42.3254 24.1007 42.2926C24.3957 42.2598 24.6907 42.391 24.8219 42.6532C24.8219 42.6532 25.7397 44.1938 27.1491 44.2593C27.7064 44.2921 28.2964 44.0954 28.9519 43.6365C27.7719 43.3088 26.9852 42.7187 26.5591 41.8993C25.838 40.5554 26.4608 39.1131 26.5919 38.8837C27.5425 36.5564 26.1002 34.4258 26.1002 34.393C25.838 34.0652 25.9363 33.6063 26.2641 33.3441C26.6247 33.1146 27.0836 33.213 27.313 33.5408C27.3786 33.6719 29.247 36.3925 27.9686 39.4737C27.9358 39.4737 27.9358 39.5064 27.9358 39.5392C27.9358 39.5392 27.4769 40.457 27.8703 41.2109C28.198 41.8009 29.0175 42.2271 30.2631 42.4237C30.3614 42.2598 30.4925 42.1287 30.5909 41.9648C30.7548 41.6043 31.4103 40.4242 32.787 39.867C34.0654 39.3753 35.606 39.572 37.3105 40.457C37.7038 40.6537 37.8349 41.1126 37.6382 41.4732C37.4743 41.8337 37.0155 41.9648 36.6549 41.8009C35.311 41.1126 34.2293 40.9487 33.3443 41.2765C32.3281 41.637 31.9348 42.6204 31.9348 42.6204L31.8365 42.8171C30.2631 44.8821 28.6569 45.8655 27.0508 45.7671C25.9691 45.7016 25.1169 45.1443 24.5269 44.6199C23.4124 49.4055 24.3957 52.9456 27.2802 54.1256C30.0664 55.3057 34.3932 53.8634 36.786 49.4383C37.3432 48.455 37.6382 47.8322 37.9005 47.3405C38.4249 46.226 38.6544 45.7671 40.3589 43.6038C40.5883 43.3088 40.8178 42.981 41.0144 42.6532C40.2277 42.2271 39.5066 41.6698 38.8838 41.0143C35.1143 37.2447 35.1143 31.1152 38.8838 27.3456C40.3589 25.8706 42.2272 24.92 44.2595 24.625C43.5384 20.8883 41.6044 18.2004 38.4905 16.6926C34.5898 14.7915 29.5092 15.152 25.838 17.6432C22.8879 19.6427 21.3801 22.6255 21.6096 26.1C21.6423 26.5262 21.3473 26.8867 20.9212 26.8867C20.9212 26.9195 20.8884 26.9195 20.8557 26.9195C20.4951 26.9195 20.1673 26.5917 20.1345 26.1984C19.8395 22.1994 21.5768 18.6921 25.0185 16.3976C29.1158 13.6442 34.7865 13.2181 39.1461 15.3487C41.6372 16.5615 44.784 19.151 45.7673 24.5267C48.324 24.5267 50.7496 25.5428 52.5525 27.3456C56.1581 30.9513 56.322 36.6875 53.0441 40.4898L55.6336 43.0465C55.9614 42.8826 56.3548 42.7843 56.7481 42.7843C57.4037 42.7843 58.0265 43.0137 58.4854 43.5054L62.2549 47.2422C63.2055 48.2255 63.2055 49.7661 62.2549 50.7167C61.796 51.1756 61.1732 51.4378 60.5176 51.4378C59.8621 51.4378 59.2393 51.1756 58.7804 50.7167L55.0108 46.9472C54.5519 46.4883 54.2897 45.8655 54.2897 45.2099C54.2897 44.8166 54.388 44.456 54.5519 44.0954L51.9952 41.5387C50.258 43.0465 48.0618 43.866 45.7017 43.866ZM45.7017 26.0017C45.5379 26.0017 45.374 26.0345 45.2101 26.0345H45.1445C43.1778 26.1656 41.3422 26.9851 39.9327 28.3945C36.7532 31.6068 36.7532 36.7858 39.9327 39.9653C40.6211 40.6865 41.4405 41.2437 42.3256 41.637C42.3583 41.637 42.3911 41.6698 42.4239 41.6698C43.44 42.1287 44.5545 42.3582 45.7017 42.3582C47.8979 42.3582 49.963 41.5059 51.5035 39.9653C54.6831 36.7858 54.6831 31.6068 51.5035 28.3945C49.963 26.854 47.8979 26.0017 45.7017 26.0017ZM56.7481 44.2593C56.4859 44.2593 56.2564 44.3577 56.0597 44.5543C55.8959 44.7182 55.7975 44.9805 55.7975 45.2099C55.7975 45.4721 55.8959 45.7344 56.0597 45.8983L59.8293 49.6678C60.1898 50.0283 60.8454 50.0283 61.206 49.6678C61.5665 49.3072 61.5665 48.6844 61.206 48.3239L57.4364 44.5543C57.2398 44.3577 57.0103 44.2593 56.7481 44.2593ZM31.017 34.4586C30.8531 34.4586 30.6892 34.393 30.5253 34.2619C22.9207 27.6079 26.5919 22.1666 27.903 20.6588C28.6897 19.7082 29.4436 19.3149 30.5581 18.856C35.8026 16.7582 39.5066 21.2816 40.7194 23.9367C40.8833 24.33 40.7194 24.7561 40.3261 24.9528C39.9655 25.1167 39.5066 24.9528 39.3427 24.5595C39.2444 24.2972 36.3599 18.1677 31.0825 20.2655C30.1975 20.626 29.6403 20.921 29.0175 21.6422C27.313 23.6089 25.3463 27.739 31.5087 33.1474C31.8365 33.4096 31.8692 33.9013 31.5742 34.1963C31.4431 34.3602 31.2464 34.4586 31.017 34.4586Z" stroke="url(#paint1_linear_96_813)" stroke-width="0.4" mask="url(#path-2-outside-1_96_813)"/>
<defs>
<linearGradient id="paint0_linear_96_813" x1="34.999" y1="14" x2="34.999" y2="55.994" gradientUnits="userSpaceOnUse">
<stop stop-color="#EE5E0D"/>
<stop offset="1" stop-color="#DC1616"/>
</linearGradient>
<linearGradient id="paint1_linear_96_813" x1="34.999" y1="14" x2="34.999" y2="55.994" gradientUnits="userSpaceOnUse">
<stop stop-color="#EE5E0D"/>
<stop offset="1" stop-color="#DC1616"/>
</linearGradient>
</defs>
</svg>
