<svg width="360" height="1102" viewBox="0 0 360 1102" fill="none" xmlns="http://www.w3.org/2000/svg">
<path d="M-58.9978 1044.17L-58.9978 1043.79C-39.6044 1028.45 -19.7534 1013.4 0.0315115 998.41C65.3303 948.93 129.914 899.995 174.871 842.682C278.53 710.537 277.802 533.781 -58.9978 202.992L-58.9978 202.574C278.165 533.656 278.873 710.581 175.098 842.874C130.116 900.215 65.5195 949.164 0.203142 998.655C-19.6412 1013.69 -39.5516 1028.78 -58.9978 1044.17M-58.9978 1057.2L-58.9978 1056.8C-36.3201 1037.23 -12.7735 1018.05 10.7445 998.891C76.0235 945.715 141.091 892.709 186.776 831.953C293.915 689.467 294.39 504.257 -58.9977 174.019L-58.9977 173.609C294.751 504.124 294.258 689.505 187.005 832.141C141.298 892.929 76.217 945.944 10.9249 999.131C-12.6568 1018.34 -36.2673 1037.57 -59 1057.2L-58.9978 1057.2ZM-58.9978 1072.55L-58.9978 1072.14C-33.324 1048.03 -6.18071 1024.37 21.0242 1000.66C86.633 943.478 152.596 885.984 199.135 821.213C309.268 667.934 310.557 473.808 -58.9977 146.376L-58.9977 145.973C310.918 473.665 309.613 667.961 199.37 821.394C152.812 886.194 86.8354 943.698 21.2133 1000.9C-6.05754 1024.67 -33.269 1048.38 -58.9978 1072.55ZM-58.9978 1090.23L-58.9978 1089.8C-30.6776 1060.96 -0.0521081 1032.52 30.7934 1003.88C97.159 942.263 164.537 879.703 212.096 810.189C324.605 645.742 326.118 442.298 -58.9977 120.111L-58.9977 119.721C326.477 442.146 324.948 645.762 212.334 810.365C164.759 879.903 97.3681 942.475 30.9892 1004.11C0.0733191 1032.81 -30.6226 1061.32 -58.9978 1090.23L-58.9978 1090.23ZM-51.448 1102L-51.855 1102C-23.2005 1070.96 8.17958 1040.05 39.96 1008.74C107.593 942.12 177.031 873.721 225.807 798.547C339.926 622.664 340.861 409.61 -58.9977 95.2831L-58.9977 94.9018C341.218 409.45 340.272 622.677 226.049 798.717C177.254 873.92 107.804 942.332 40.1602 1008.96C8.45454 1040.19 -22.853 1071.03 -51.4502 1102L-51.448 1102ZM-32.4507 1102L-32.851 1102C-7.32457 1073.46 20.307 1044.7 48.4006 1015.46C117.886 943.145 190.188 867.892 240.412 785.894C355.23 598.433 354.561 375.662 -58.9977 71.9516L-58.9977 71.5791C354.918 375.493 355.576 598.44 240.66 786.059C190.422 868.083 118.105 943.348 48.6096 1015.68C20.5864 1044.85 -6.97704 1073.54 -32.4507 1102ZM-13.4004 1102L-13.7964 1102C8.28514 1076.56 31.8912 1050.7 55.9657 1024.34C127.965 945.475 204.126 862.051 256.035 771.789C370.495 572.763 366.993 340.42 -58.9977 50.1872L-58.9977 49.8235C367.342 340.237 370.84 572.759 256.288 771.947C204.362 862.238 128.189 945.675 56.1791 1024.55C32.1727 1050.85 8.62831 1076.63 -13.3982 1102L-13.4004 1102ZM5.696 1102L5.30665 1102C23.5451 1080.37 42.789 1058.28 62.4419 1035.72C137.682 949.349 218.933 856.072 272.764 755.752C385.664 545.344 377.921 303.907 -58.9977 30.0559L-58.9977 29.701C378.266 303.715 386.008 545.328 273.017 755.9C219.171 856.248 137.908 949.539 62.6575 1035.92C43.0661 1058.42 23.8817 1080.44 5.696 1102ZM24.8342 1102L24.4493 1102C38.341 1085.06 52.7914 1067.75 67.5432 1050.08C146.786 955.154 234.681 849.865 290.627 737.285C400.645 515.885 387.041 266.251 -58.9977 11.6922L-58.9977 11.3439C387.385 266.047 400.988 515.858 290.886 737.424C234.928 850.035 147.02 955.34 67.7632 1050.28C53.0686 1067.88 38.6731 1085.13 24.832 1102L24.8342 1102ZM44.012 1102L43.6315 1102C52.5142 1090.88 61.6148 1079.55 70.8693 1068.04C154.879 963.545 251.431 843.449 309.604 715.886C414.572 485.71 394.527 231.184 -49.6002 -2.48543e-05L-48.9403 -2.48255e-05C394.884 231.217 414.862 485.785 309.868 716.016C251.677 843.615 155.113 963.728 71.0915 1068.24C61.8919 1079.68 52.8442 1090.94 44.0098 1102L44.012 1102ZM63.225 1102L62.8466 1102C65.8098 1098.19 68.7971 1094.35 71.8042 1090.49C161.252 975.634 269.181 837.042 329.592 691.085C426.38 457.241 401.116 204.465 -17.536 -2.34527e-05L-16.8474 -2.34226e-05C401.468 204.513 426.669 457.318 329.862 691.206C269.436 837.201 161.494 975.81 72.033 1090.68C69.0765 1094.48 66.1398 1098.25 63.225 1102ZM82.471 1102L82.0971 1102C175.362 979.121 290.653 823.792 350.419 662.442C437.591 427.117 406.587 178.973 16.8666 -2.19489e-05L17.5837 -2.19176e-05C406.936 179.042 437.874 427.198 350.694 662.552C290.939 823.865 175.723 979.136 82.471 1102ZM101.75 1102L101.378 1102C197.399 972.396 315.484 802.667 371.83 629.602C448.042 395.509 411.217 155.307 54.0255 -2.03247e-05L54.7823 -2.02916e-05C411.571 155.397 448.323 395.6 372.107 629.697C315.775 802.728 197.756 972.403 101.748 1102L101.75 1102ZM121.053 1102L120.686 1102C229.263 951.976 364.353 743.145 406.085 540.521C449.674 328.86 391.331 123.986 94.4577 -1.85573e-05L95.2387 -1.85232e-05C391.703 124.083 449.958 328.94 406.371 540.583C364.645 743.183 229.626 951.965 121.053 1102ZM140.385 1102L140.02 1102C248.195 949.104 380.924 730.217 421.09 521.668C461.676 310.94 407.715 110.786 138.352 -1.66386e-05L139.138 -1.66043e-05C408.085 110.905 461.958 311.032 421.378 521.73C381.216 730.248 248.553 949.089 140.385 1102ZM159.741 1102L159.378 1102C266.902 946.645 396.879 718.384 435.818 504.354C450.998 420.908 452.34 339.629 433.114 265.685C413.89 191.748 374.098 125.143 307.013 71.0348C273.532 44.0292 233.249 20.1379 185.333 -1.4585e-05L186.112 -1.4551e-05C233.76 20.0894 273.849 43.897 307.193 70.7923C374.331 124.945 414.156 191.607 433.398 265.604C452.635 339.594 451.295 420.919 436.106 504.409C397.174 718.41 267.256 946.621 159.741 1102ZM179.123 1102L178.765 1102C291.007 936.321 425.683 682.611 455.55 454.237C465.794 375.905 463.707 300.554 444.15 232.766C424.596 164.987 387.576 104.765 327.957 56.6757C301.377 35.2375 270.301 16.2104 234.281 -1.24455e-05L235.022 -1.24131e-05C270.802 16.1597 301.692 35.1052 328.138 56.4355C387.809 104.564 424.86 164.839 444.432 232.68C463.999 300.51 466.089 375.902 455.84 454.277C425.976 682.626 291.361 936.288 179.123 1102ZM198.53 1102L198.174 1102C278.064 981.6 368.251 812.168 423.578 639.842C464.919 511.078 486.796 380.705 470.365 267.979C453.939 155.276 399.217 60.211 287.364 2.03648C286.047 1.35104 284.72 0.674412 283.389 -1.02989e-05L284.058 -1.02696e-05C285.209 0.584049 286.357 1.17252 287.496 1.76539C399.446 59.9906 454.217 155.135 470.656 267.933C487.093 380.709 465.209 511.131 423.855 639.937C368.546 812.21 278.405 981.591 198.53 1102ZM217.952 1102L217.6 1102C301.287 973.304 395.066 785.837 447.916 598.837C483.898 471.518 500.905 344.423 482.832 236.262C466.161 136.513 419.651 52.8672 330.663 -8.23248e-06L331.252 -8.2067e-06C420.036 52.9312 466.465 136.54 483.12 236.211C501.202 344.423 484.191 471.562 448.198 598.923C395.363 785.87 301.626 973.287 217.954 1102L217.952 1102ZM237.396 1102L237.044 1102C324.552 964.757 421.734 757.718 471.333 555.881C502.104 430.656 514.559 307.442 495.016 204.161C478.969 119.357 441.341 48.0008 374.571 -6.3132e-06L375.088 -6.2906e-06C441.706 48.0449 479.27 119.368 495.304 204.103C514.856 307.431 502.399 430.692 471.617 555.958C422.031 757.745 324.891 964.731 237.396 1102ZM256.855 1102L256.506 1102C347.757 956.118 448.015 728.2 493.624 511.737C519.456 389.149 527.758 270.241 506.97 172.009C492.196 102.193 462.717 42.8258 414.396 -4.57239e-06L414.849 -4.55258e-06C463.069 42.8523 492.495 102.188 507.258 171.945C528.057 270.221 519.753 389.173 493.914 511.801C448.315 728.216 348.101 956.08 256.858 1102L256.855 1102ZM-58.9978 232.819C261.321 562.407 263.45 731.352 163.514 853.808C119.164 908.15 54.7294 953.332 -10.8927 999.345C-26.949 1010.6 -43.0757 1021.91 -58.9978 1033.42L-58.9978 1033.04C-43.1285 1021.58 -27.0567 1010.31 -11.0555 999.091C54.5512 953.089 118.97 907.921 163.291 853.612C263.109 731.301 260.96 562.526 -58.9978 233.247L-58.9978 232.819Z" fill="white" fill-opacity="0.1"/>
</svg>
