<svg width="1920" height="879" viewBox="0 0 1920 879" fill="none" xmlns="http://www.w3.org/2000/svg">
<g clip-path="url(#clip0_101_926)">
<path d="M85.4856 -11.0002L86.1653 -11.0002C113.351 23.3915 140.013 58.5946 166.582 93.6806C254.272 209.479 340.997 324.01 442.568 403.736C676.76 587.561 990.014 586.27 1576.25 -11L1576.99 -11C990.236 586.913 676.682 588.169 442.228 404.138C340.606 324.369 253.858 209.815 166.148 93.9849C139.502 58.7935 112.761 23.4851 85.4896 -11.0002M62.3894 -11.0002L63.0924 -11.0002C97.7816 29.2158 131.775 70.9726 165.73 112.679C259.97 228.442 353.91 343.831 461.583 424.848C714.102 614.845 1042.34 615.687 1627.6 -11L1628.32 -11C1042.57 616.327 714.035 615.453 461.251 425.254C353.519 344.198 259.564 228.786 165.305 112.999C131.26 71.1793 97.1762 29.3093 62.3894 -11.0041L62.3894 -11.0002ZM35.1958 -11.0002L35.9225 -11.0002C78.6385 34.529 120.569 82.664 162.59 130.908C263.935 247.257 365.827 364.234 480.617 446.764C752.263 642.07 1096.3 644.356 1676.59 -11L1677.3 -11C1096.55 644.996 752.216 642.683 480.296 447.182C365.456 364.616 263.545 247.616 162.176 131.244C120.05 82.8824 78.0212 34.6265 35.1958 -11.0002ZM3.858 -11.0002L4.61191 -11.0002C55.7219 39.2219 106.125 93.5323 156.879 148.233C266.087 265.923 376.959 385.409 500.154 469.749C791.593 669.268 1152.14 671.952 1723.13 -11L1723.83 -11C1152.41 672.588 791.558 669.877 499.842 470.171C376.604 385.803 265.712 266.294 156.481 148.58C105.609 93.7547 55.0931 39.3195 3.86203 -11.0002L3.858 -11.0002ZM-17 2.38826L-17 1.66652C38.0081 52.4816 92.7938 108.13 148.271 164.488C266.341 284.426 387.56 407.567 520.786 494.064C832.492 696.439 1210.07 698.097 1767.14 -11L1767.81 -11C1210.36 698.729 832.469 697.052 520.485 494.494C387.208 407.961 265.966 284.801 147.88 164.843C92.5321 108.618 37.8753 53.098 -17 2.38435L-17 2.38826ZM-17 36.0776L-17 35.3677C33.567 80.6355 84.5365 129.636 136.357 179.457C264.525 302.679 397.891 430.899 543.21 519.964C875.435 723.579 1270.24 722.393 1808.48 -11L1809.14 -11C1270.54 723.025 875.423 724.191 542.917 520.404C397.552 431.312 264.166 303.069 135.975 179.827C84.2865 130.132 33.4421 81.2518 -17 36.0776ZM-17 69.8608L-17 69.1586C28.0752 108.317 73.9043 150.179 120.632 192.873C260.396 320.554 408.242 455.616 568.209 547.669C920.928 750.648 1332.69 744.438 1847.06 -11L1847.7 -11C1333.02 745.058 920.936 751.261 567.927 548.117C407.91 456.033 260.041 320.952 120.257 193.251C73.6543 150.679 27.9542 108.926 -17.0038 69.8646L-17 69.8608ZM-17 103.726L-17 103.035C21.3217 135.379 60.4715 169.505 100.457 204.357C253.529 337.785 418.839 481.874 596.629 577.336C969.523 777.55 1397.41 763.818 1882.73 -11L1883.36 -11C1397.75 764.431 969.55 778.158 596.367 577.785C418.527 482.295 253.194 338.186 100.098 204.739C60.2373 169.997 21.2085 135.976 -17 103.726ZM-17 137.665L-17 136.982C13.0097 161.617 43.6914 187.243 75.0097 213.404C243.241 353.931 429.839 509.801 629.357 609.013C1021.73 804.116 1464.14 779.992 1915.28 -11L1915.9 -11C1464.5 780.6 1021.78 804.724 629.111 609.473C429.538 510.238 242.913 354.345 74.6542 213.794C43.4609 187.735 12.8966 162.206 -17.0038 137.661L-17 137.665ZM-17 171.674L-17 170.999C2.70967 186.752 22.7747 202.89 43.1759 219.302C228.371 368.283 441.209 539.504 667.28 642.667C1075.21 828.813 1526.29 793.267 1936 5.66528L1936 6.83557C1526.23 793.899 1075.07 829.328 667.05 643.135C440.916 539.941 228.047 368.697 42.8281 219.696C22.5482 203.382 2.60029 187.337 -17 171.67L-17 171.674ZM-17.0001 205.746L-17.0001 205.075C-10.2544 210.33 -3.45403 215.627 3.38935 220.96C206.947 379.584 452.564 570.981 711.235 678.112C1125.66 849.754 1573.64 804.951 1936 62.5269L1936 63.748C1573.55 805.575 1125.52 850.265 711.02 678.592C452.283 571.434 206.634 380.013 3.04951 221.366C-3.68059 216.123 -10.3638 210.915 -17.0001 205.746ZM-17.0001 239.876L-17.0001 239.213C200.767 404.606 476.047 609.06 761.997 715.047C1179.05 869.634 1618.82 814.653 1936 123.535L1936 124.807C1618.7 815.273 1178.9 870.137 761.802 715.535C475.918 609.567 200.74 405.245 -17.0001 239.876ZM-17.0001 274.065L-17.0001 273.406C212.684 443.686 513.486 653.095 820.196 753.016C1235.06 888.168 1660.76 822.864 1936 189.432L1936 190.774C1660.6 823.492 1234.9 888.667 820.028 753.508C513.376 653.61 212.673 444.318 -17.0001 274.061L-17.0001 274.065ZM-17.0001 308.297L-17.0001 307.645C248.874 500.193 618.971 739.756 978.069 813.763C1353.18 891.062 1716.27 787.599 1936 261.133L1936 262.518C1716.1 788.258 1353.04 891.566 977.96 814.27C618.905 740.275 248.893 500.837 -17.0001 308.297ZM-17.0001 342.579L-17.0001 341.931C253.963 533.765 641.884 769.143 1011.48 840.372C1384.94 912.347 1739.66 816.654 1936 338.975L1936 340.367C1739.45 817.309 1384.78 912.846 1011.37 840.883C641.829 769.662 253.99 534.401 -17.0001 342.579ZM-17.0001 376.904L-17.0001 376.261C258.322 566.94 662.855 797.437 1042.17 866.49C1190.05 893.411 1334.1 895.79 1465.14 861.695C1596.18 827.604 1714.22 757.038 1810.11 638.072C1857.97 578.698 1900.31 507.262 1936 422.289L1936 423.67C1900.4 508.167 1858.2 579.26 1810.54 638.392C1714.57 757.452 1596.43 828.076 1465.29 862.199C1334.16 896.313 1190.03 893.937 1042.07 867.001C662.808 797.96 258.365 567.568 -17.0001 376.904ZM-17.0001 411.276L-17.0001 410.641C276.618 609.688 726.253 848.518 1130.99 901.482C1269.81 919.649 1403.35 915.947 1523.48 881.267C1643.6 846.591 1750.33 780.94 1835.56 675.214C1873.55 628.077 1907.27 572.967 1936 509.091L1936 510.406C1907.36 573.857 1873.79 628.635 1835.98 675.533C1750.69 781.353 1643.87 847.059 1523.64 881.766C1403.42 916.466 1269.81 920.172 1130.91 901.997C726.226 849.036 276.676 610.316 -17.0001 411.276ZM-17.0001 445.691L-17.0001 445.059C196.373 586.734 496.647 746.669 802.049 844.784C1030.25 918.097 1261.3 956.893 1461.08 927.756C1660.81 898.627 1829.29 801.584 1932.39 603.228C1933.61 600.891 1934.8 598.539 1936 596.178L1936 597.364C1934.96 599.405 1933.92 601.441 1932.87 603.462C1829.68 801.99 1661.06 899.118 1461.16 928.271C1261.29 957.419 1030.16 918.612 801.881 845.276C496.573 747.192 196.389 587.338 -17.0001 445.691ZM-17.0001 480.134L-17.0001 479.51C211.075 627.917 543.312 794.223 874.72 887.945C1100.36 951.755 1325.6 981.914 1517.29 949.863C1694.07 920.301 1842.31 837.821 1936 680.012L1936 681.057C1842.19 838.504 1694.02 920.839 1517.38 950.374C1325.6 982.441 1100.28 952.274 874.568 888.445C543.253 794.749 211.106 628.518 -17.0001 480.138L-17.0001 480.134ZM-17.0001 514.615L-17.0001 513.991C226.223 669.175 593.145 841.515 950.848 929.472C1172.78 984.04 1391.14 1006.13 1574.18 971.471C1724.47 943.013 1850.93 876.285 1936 757.877L1936 758.794C1850.85 876.933 1724.45 943.547 1574.28 971.982C1391.16 1006.65 1172.71 984.563 950.711 929.975C593.098 842.042 226.27 669.775 -17.0001 514.615ZM-17.0001 549.124L-17.0001 548.504C241.534 710.327 645.458 888.121 1029.08 969.001C1246.34 1014.81 1457.07 1029.53 1631.16 992.669C1754.89 966.47 1860.1 914.192 1936 828.501L1936 829.305C1860.06 914.816 1754.9 967 1631.27 993.18C1457.1 1030.06 1246.29 1015.34 1028.97 969.516C645.43 888.652 241.6 710.935 -17.0001 549.128L-17.0001 549.124ZM1523.39 -11C939.283 557.043 639.872 560.819 422.851 383.595C326.544 304.946 246.471 190.68 164.926 74.308C144.974 45.8342 124.932 17.2356 104.543 -11.0002L105.203 -11.0002C125.522 17.142 145.493 45.643 165.375 74.0193C246.901 190.364 326.951 304.602 423.198 383.201C639.962 560.215 939.072 556.403 1522.63 -11L1523.39 -11Z" fill="white" fill-opacity="0.1"/>
</g>
<defs>
<clipPath id="clip0_101_926">
<rect width="1953" height="1025" fill="white" transform="translate(1936 1014) rotate(-180)"/>
</clipPath>
</defs>
</svg>
