<svg width="73" height="73" viewBox="0 0 73 73" fill="none" xmlns="http://www.w3.org/2000/svg">
<mask id="mask0_99_885" style="mask-type:luminance" maskUnits="userSpaceOnUse" x="6" y="7" width="60" height="60">
<path d="M6.99902 6.99997H65.9993V66.0002H6.99902V6.99997Z" fill="white"/>
</mask>
<g mask="url(#mask0_99_885)">
<path d="M20.239 20.74C21.8763 13.5324 28.3229 8.15244 36.0262 8.15244C44.9671 8.15244 52.2153 15.4005 52.2153 24.3416C52.2153 28.9832 50.2612 33.1682 47.1316 36.1201C44.8448 38.6162 39.2239 45.712 39.2239 55.1545C39.2239 60.508 34.8839 64.8479 29.5304 64.8479C24.1768 64.8479 19.8369 60.508 19.8369 55.1545V52.3524" stroke="white" stroke-width="2" stroke-miterlimit="10" stroke-linecap="round" stroke-linejoin="round"/>
<path d="M26.7305 24.672C26.7305 20.4485 29.8986 16.3475 34.1499 15.6983C39.4481 14.8892 43.6755 19.1526 43.9408 24.2409C44.0556 26.4438 43.2845 28.4661 41.9506 29.9819C41.9506 29.9819 33.6499 39.7954 32.3804 50.6549C32.2178 52.0466 30.9771 53.0627 29.576 53.0627H29.5677C28.0007 53.0627 26.7305 51.7925 26.7305 50.2255V40.1907" stroke="white" stroke-width="2" stroke-miterlimit="10" stroke-linecap="round" stroke-linejoin="round"/>
<path d="M26.7305 24.6522C26.7305 21.7336 29.0965 19.3677 32.0149 19.3677C32.088 19.3677 32.1606 19.3692 32.2328 19.3722C35.8101 19.5172 37.9191 23.4722 36.1601 26.5904C35.2747 28.1604 34.9822 28.22 34.141 30.395" stroke="white" stroke-width="2" stroke-miterlimit="10" stroke-linecap="round" stroke-linejoin="round"/>
<path d="M30.8194 36.1023C30.8194 38.3602 28.989 40.1907 26.731 40.1907C24.4731 40.1907 22.6426 38.3602 22.6426 36.1023C22.6426 33.8442 24.4731 32.0138 26.731 32.0138C28.989 32.0138 30.8194 33.8442 30.8194 36.1023Z" stroke="white" stroke-width="2" stroke-miterlimit="10" stroke-linecap="round" stroke-linejoin="round"/>
<path d="M23.0887 28.3149L28.9034 32.6386C28.2742 32.2421 27.5298 32.0141 26.7312 32.0141C24.4726 32.0141 22.6427 33.8439 22.6427 36.1025C22.6427 37.3183 23.1739 38.4106 24.0163 39.1597L19.3677 35.6728C17.4127 34.206 15.826 32.3044 14.7331 30.1182C13.6403 27.9321 13.0713 25.5216 13.0713 23.0776V22.7699C13.0713 14.6976 19.6166 8.15225 27.69 8.15225H36.0261C29.1512 8.15225 24.1811 12.4045 21.8453 16.5242C21.0709 17.892 20.595 19.239 20.3023 20.5112C19.6305 23.4313 20.7263 26.4736 23.0887 28.3149Z" stroke="white" stroke-width="2" stroke-miterlimit="10" stroke-linecap="round" stroke-linejoin="round"/>
<path d="M59.1348 17.9958C58.7207 16.6589 58.1898 15.5228 57.655 14.5923C56.5494 12.6683 54.497 11.4855 52.2777 11.4855H45.8636C49.7255 14.4432 52.2154 19.1014 52.2154 24.3421C52.2154 28.9838 50.2611 33.1686 47.1307 36.1195C46.6145 36.6826 45.9285 37.4804 45.1763 38.4865C43.331 40.9531 41.084 44.6713 39.9521 49.2605H46.536C50.4517 49.2605 53.8594 46.5788 54.7731 42.7721C55.1191 41.3333 55.5044 39.9043 55.9283 38.4865C56.5837 36.299 57.3292 34.1394 58.1628 32.0134C58.7101 30.6187 59.1114 29.292 59.3922 28.0338" stroke="white" stroke-width="2" stroke-miterlimit="10" stroke-linecap="round" stroke-linejoin="round"/>
<path d="M55.9283 38.4866C55.5044 39.9043 55.1192 41.3334 54.7731 42.7721C53.8594 46.5789 50.4517 49.2605 46.536 49.2605H39.9521C41.084 44.6714 43.331 40.953 45.1763 38.4866H55.9283Z" stroke="white" stroke-width="2" stroke-miterlimit="10" stroke-linecap="round" stroke-linejoin="round"/>
<circle cx="59.5" cy="23.5" r="1.5" fill="white"/>
<circle cx="47.5" cy="44.5" r="1.5" fill="white"/>
</g>
</svg>
