<svg width="73" height="73" viewBox="0 0 73 73" fill="none" xmlns="http://www.w3.org/2000/svg">
<path d="M45.1287 28.8565C40.6049 28.321 36.5104 26.3856 33.2898 23.4956C31.6851 23.8915 30.1682 24.583 28.8168 25.5346M27.0088 41.7253C28.9868 44.8843 32.4983 46.985 36.5004 46.985C40.4986 46.985 44.007 44.8883 45.9862 41.7344" stroke="white" stroke-width="2" stroke-miterlimit="10" stroke-linecap="round" stroke-linejoin="round"/>
<path d="M49.5068 23.9476C48.292 17.8748 42.9305 13.2993 36.5004 13.2993C30.091 13.2993 24.7433 17.8452 23.5059 23.8887M31.2048 46.4625C31.2048 48.5244 29.7028 50.2788 27.6656 50.5968L23.5121 51.2449M41.796 46.4625C41.796 48.5244 43.298 50.2788 45.3351 50.5968L49.4811 51.2437" stroke="white" stroke-width="2" stroke-miterlimit="10" stroke-linecap="round" stroke-linejoin="round"/>
<path d="M43.7487 50.0024C41.9661 51.9885 39.3791 53.2379 36.5003 53.2379C33.6216 53.2379 31.0345 51.9886 29.252 50.0025M41.0305 34.7589L39.8941 34.25M31.9702 34.7589L33.1065 34.25M63.1858 52.8532L65.1364 56.2548C67.0315 59.5596 65.6945 63.7781 62.2419 65.3881C58.7894 66.998 54.6985 65.3106 53.385 61.7346L45.1423 39.2939L53.2441 35.516L57.8169 43.4907" stroke="white" stroke-width="2" stroke-miterlimit="10" stroke-linecap="round" stroke-linejoin="round"/>
<path d="M51.7006 36.2357L52.2779 29.6374C52.3536 28.7726 52.2345 27.9018 51.9294 27.0891C51.6243 26.2763 51.141 25.5423 50.5149 24.9409L49.0984 23.5802C47.6759 22.2137 45.3342 22.6329 44.474 24.408C44.3022 24.7625 44.2043 25.1483 44.1864 25.5419C44.1684 25.9355 44.2307 26.3286 44.3695 26.6973L45.8906 30.7372L45.6473 33.5183C45.4934 35.2773 45.7848 37.0466 46.4947 38.6633L51.7006 36.2357ZM10.7584 65.3883C14.2109 66.9982 18.3018 65.3108 19.6153 61.7348L27.858 39.2941L19.7562 35.5162L7.86388 56.2551C5.96881 59.5597 7.30578 63.7784 10.7584 65.3883Z" stroke="white" stroke-width="2" stroke-miterlimit="10" stroke-linecap="round" stroke-linejoin="round"/>
<path d="M38.4087 40.2448C37.3543 39.1904 35.6446 39.1904 34.5902 40.2448M66 18.5128L60.0495 21.3472L63.8027 23.5141L57.633 27.027M57.633 7L53.1647 11.8452L57.4548 12.4597L53.0356 18.0165M7 18.5128L12.9505 21.3472L9.19727 23.5141L15.367 27.027M15.367 7L19.8353 11.8452L15.5452 12.4597L19.9644 18.0165M13.3891 65.9989H59.6109M21.2993 36.2356L20.7221 29.6373C20.6464 28.7725 20.7655 27.9017 21.0706 27.089C21.3757 26.2762 21.859 25.5422 22.4851 24.9408L23.9016 23.5801C25.3241 22.2136 27.6658 22.6328 28.526 24.4079C28.6978 24.7624 28.7956 25.1482 28.8136 25.5418C28.8316 25.9354 28.7692 26.3285 28.6305 26.6972L27.1094 30.7371L27.3527 33.5182C27.5066 35.2772 27.2151 37.0465 26.5053 38.6632L21.2993 36.2356Z" stroke="white" stroke-width="2" stroke-miterlimit="10" stroke-linecap="round" stroke-linejoin="round"/>
</svg>
