<svg width="1920" height="1120" viewBox="0 0 1920 1120" fill="none" xmlns="http://www.w3.org/2000/svg">
<path fill-rule="evenodd" clip-rule="evenodd" d="M1920 644.757V645.271C1845.76 643.155 1719.1 593.204 1507.87 466.686C1427.39 420.949 1272.01 356.115 1144.41 344.277C1092.35 339.445 1044.92 343.44 1009.11 361.158C973.329 378.86 949.145 410.275 943.519 460.298C937.433 514.466 953.092 590.439 999.337 694.423C1024.87 754.537 1036.43 837.5 1022.29 912.462C1013.2 960.65 993.485 1005.53 960.023 1038.93C926.562 1072.32 879.36 1094.22 815.298 1096.42C730.914 1099.31 617.269 1068.03 467.228 983.829C376.624 933.379 290.719 1018.84 207.426 1120H206.704C290.235 1018.5 376.412 932.623 467.501 983.341C617.442 1067.49 730.99 1098.75 815.278 1095.86C879.18 1093.66 926.262 1071.83 959.632 1038.53C993.005 1005.22 1012.67 960.442 1021.74 912.358C1035.86 837.507 1024.31 754.667 998.823 694.646C952.535 590.566 936.864 514.497 942.962 460.241C948.611 409.998 972.907 378.446 1008.85 360.662C1044.76 342.894 1092.3 338.884 1144.45 343.724C1272.15 355.569 1427.62 420.442 1508.14 466.206H1508.15C1719.39 592.74 1845.93 642.66 1919.99 644.757M1920 619.004V619.534C1849.72 626.486 1722.67 581.417 1498.91 448.526C1408.32 399.49 1253.29 337.102 1126.81 326.29C1073.84 321.762 1025.88 326.279 989.791 344.619C953.733 362.94 929.507 395.073 923.943 445.784C918.102 499.038 932.828 572.775 976.025 672.503V672.511C1000.15 733.685 1011.3 817.035 997.294 891.982C988.232 940.493 968.636 985.485 935.209 1018.69C901.774 1051.89 854.512 1073.29 790.13 1074.6C708.691 1076.26 599.847 1045.78 456.922 966.369C360.891 913.829 270.567 1011.96 183.03 1120H182.316C270.083 1011.64 360.668 913.069 457.187 965.877C600.019 1045.24 708.772 1075.71 790.115 1074.05C854.343 1072.74 901.479 1051.4 934.818 1018.29C968.156 985.177 987.706 940.285 996.753 891.879C1010.73 817.035 999.602 733.804 975.514 672.714C932.279 572.894 917.541 499.064 923.394 445.718C928.981 394.796 953.319 362.525 989.541 344.12C1025.73 325.729 1073.79 321.197 1126.86 325.733C1253.42 336.553 1408.55 398.975 1499.17 448.035L1499.19 448.042C1723.03 580.979 1849.93 626.002 1920 619.007L1920 619.004ZM1920 590.37V590.934C1854.88 609.079 1728.36 570.674 1489.93 430.347C1389.51 378.119 1234.84 318.109 1109.48 308.242C1055.57 303.998 1007.07 309.033 970.676 327.953C934.307 346.858 909.996 379.64 904.389 430.912C898.668 483.244 912.423 554.834 952.708 650.568L952.716 650.579C975.418 712.836 986.155 796.579 972.304 871.522C963.284 920.336 943.834 965.42 910.468 998.413C877.099 1031.41 829.82 1052.31 765.155 1052.74C686.673 1053.27 582.563 1023.64 446.596 948.893C345.136 894.364 250.507 1005.81 158.78 1120H158.066C250.027 1005.51 344.894 893.599 446.861 948.401C582.736 1023.1 686.754 1052.71 765.151 1052.19C829.655 1051.76 876.807 1030.91 910.076 998.014C943.35 965.105 962.754 920.128 971.755 871.418C985.586 796.579 974.865 712.951 952.194 650.775C911.87 554.949 898.103 483.267 903.836 430.847C909.466 379.367 933.884 346.447 970.418 327.458C1006.92 308.484 1055.51 303.437 1109.52 307.689C1234.97 317.564 1389.73 377.604 1490.2 429.863L1490.21 429.871C1728.79 570.286 1855.13 608.606 1920 590.374V590.37ZM1920 557.503V558.133C1861.72 590.504 1737.27 561.586 1480.95 412.176C1370.99 356.871 1216.72 299.154 1092.46 290.144C1037.53 286.161 988.474 291.699 951.725 311.18C915.011 330.642 890.573 364.038 884.844 415.787C879.149 467.193 891.906 536.701 929.388 628.636L929.396 628.652C950.665 692.015 960.995 776.161 947.309 851.092C938.343 900.194 919.066 945.348 885.8 978.118C852.534 1010.9 805.283 1031.29 740.379 1030.85C664.854 1030.34 565.413 1001.63 436.263 931.417C330.613 875.651 232.869 997.48 138.048 1115.67L134.577 1120H133.863L137.614 1115.32C232.581 996.957 330.467 874.944 436.524 930.929C565.59 1001.1 664.939 1029.79 740.375 1030.29C805.118 1030.73 852.238 1010.4 885.404 977.722C918.578 945.036 937.809 899.987 946.756 850.993C960.423 776.157 950.108 692.122 928.866 628.836C891.345 536.813 878.581 467.216 884.283 415.725C890.036 363.77 914.581 330.239 951.456 310.689C988.305 291.154 1037.46 285.6 1092.5 289.591C1216.83 298.605 1371.2 356.353 1481.21 411.688L1481.22 411.696C1737.8 561.26 1862.03 590.039 1919.99 557.507L1920 557.503ZM1920 517.812V518.618C1871.07 569.917 1751.46 555.26 1472 394.013C1352.83 335.762 1198.97 280.242 1075.81 271.992C1019.76 268.235 970.08 274.273 932.94 294.3C895.826 314.311 871.227 348.302 865.302 400.477C859.569 450.946 871.304 518.422 906.075 606.701V606.724C925.901 671.216 935.835 755.77 922.334 830.697C913.436 880.068 894.363 925.267 861.236 957.807C828.104 990.351 780.926 1010.22 715.83 1008.93C643.266 1007.49 548.429 979.758 425.945 913.948C319.941 859.005 222.398 980.484 127.726 1098.38C121.92 1105.62 116.126 1112.83 110.339 1120H109.625C115.504 1112.72 121.394 1105.39 127.296 1098.03C222.106 979.958 319.796 858.298 426.206 913.457H426.21C548.606 979.22 643.362 1006.94 715.842 1008.38C780.772 1009.66 827.82 989.852 860.852 957.408C893.887 924.96 912.91 879.864 921.792 830.597C935.278 755.766 925.356 671.316 905.561 606.897C870.763 518.534 859.02 450.969 864.761 400.411C870.709 348.037 895.412 313.903 932.683 293.808C969.923 273.728 1019.71 267.675 1075.85 271.431C1199.09 279.685 1353.04 335.232 1472.25 393.506L1472.26 393.517C1752.23 555.057 1871.5 569.422 1920 517.808L1920 517.812ZM1920 464.255V465.641C1918.49 469.052 1916.85 472.336 1915.05 475.481C1875.23 545.332 1763.17 547.145 1463.01 375.838C1335.03 314.798 1181.63 261.379 1059.56 253.782C1002.27 250.218 951.894 256.743 914.304 277.311C876.745 297.864 851.939 332.455 845.76 385.029C839.939 434.557 850.637 500.04 882.755 584.777V584.785L882.763 584.8C901.114 650.445 910.664 735.417 897.358 810.337C888.546 859.965 869.703 905.187 836.752 937.478C803.793 969.776 756.73 989.126 691.481 986.998C621.884 984.728 531.579 958.015 415.619 896.484C309.262 842.362 211.915 963.492 117.393 1081.1C106.871 1094.19 96.3843 1107.24 85.9241 1120H85.2022C95.7584 1107.13 106.341 1093.96 116.955 1080.75C211.615 962.966 309.105 841.659 415.865 895.985C531.744 957.473 621.965 984.171 691.488 986.437C756.565 988.557 803.497 969.269 836.352 937.074C869.211 904.876 888.004 859.757 896.802 810.237C910.092 735.409 900.553 650.537 882.221 584.962C850.073 500.14 839.363 434.572 845.196 384.96C851.397 332.186 876.304 297.461 914.024 276.824C951.717 256.198 1002.19 249.653 1059.58 253.225C1181.73 260.826 1335.22 314.272 1463.25 375.342L1463.27 375.354C1763.06 546.445 1874.9 544.775 1914.56 475.205C1916.54 471.721 1918.35 468.065 1919.99 464.255H1920ZM1920 160.998V167.32C1917.4 199.61 1918.25 234.793 1919.09 269.729C1920.74 338.07 1922.37 405.447 1898.15 448.434C1858.28 519.187 1748.53 523.784 1454.04 357.663C1317.68 294.004 1164.76 242.571 1043.77 235.503C985.095 232.077 933.93 239.087 895.826 260.204C857.749 281.306 832.701 316.504 826.215 369.469C820.263 418.045 829.92 481.562 859.442 562.842V562.854L859.45 562.869C876.315 629.693 885.493 715.091 872.398 790.007C863.685 839.869 845.104 885.096 812.364 917.125C779.616 949.158 732.711 967.99 667.362 965.044C600.718 962.04 514.879 936.394 405.293 879.012C298.583 825.72 201.435 946.496 107.067 1063.81C91.7264 1082.89 76.4585 1101.87 61.2329 1120H60.5072C75.8288 1101.76 91.1964 1082.66 106.633 1063.46C201.139 945.97 298.434 825.017 405.543 878.512H405.547C515.056 935.857 600.814 961.487 667.381 964.487C732.561 967.425 779.328 948.658 811.972 916.725C844.62 884.788 863.152 839.67 871.845 789.911C884.924 715.087 875.755 629.781 858.908 563.023C829.36 481.658 819.698 418.06 825.658 369.4C832.167 316.239 857.315 280.903 895.55 259.716C933.754 238.545 985.022 231.513 1043.8 234.946C1164.87 242.014 1317.87 293.474 1454.29 357.163L1454.3 357.175C1748.42 523.081 1857.95 518.63 1897.66 448.161C1921.8 405.305 1920.18 338.005 1918.53 269.745C1917.63 232.519 1916.73 195.005 1920 160.998H1920ZM1920 87.8678V89.5731C1904.83 133.789 1904.87 191.245 1904.91 248.029C1904.96 313.846 1905 378.753 1881.38 421.206C1841.45 492.965 1734.03 500.466 1445.08 339.503C1300.84 273.413 1148.46 223.839 1028.52 217.175C968.256 213.826 916.197 221.311 877.498 242.982C838.829 264.636 813.497 300.476 806.654 353.841C800.548 401.456 809.154 463.025 836.122 540.922L836.13 540.934V540.949C851.493 608.979 860.31 694.807 847.45 769.72C838.852 819.801 820.566 865.008 788.072 896.764C755.57 928.528 708.872 946.83 643.454 943.089C579.767 939.448 498.329 914.909 394.967 861.543C287.908 809.077 190.956 929.504 96.7414 1046.53C76.424 1071.77 56.2332 1096.85 36.0963 1120H35.359C55.5997 1096.75 75.8902 1071.54 96.3113 1046.18C190.664 928.982 287.758 808.378 395.221 861.044H395.225C498.509 914.371 579.871 938.891 643.488 942.528C708.726 946.258 755.29 928.018 787.684 896.361C820.086 864.697 838.322 819.593 846.901 769.624C859.746 694.799 850.94 609.056 835.596 541.087C808.597 463.114 799.987 401.464 806.105 353.768C812.974 300.211 838.407 264.237 877.229 242.494C916.025 220.766 968.187 213.261 1028.56 216.614C1148.56 223.286 1301.02 272.879 1445.31 338.996L1445.33 339.007C1733.91 499.763 1841.12 492.408 1880.89 420.929C1904.44 378.603 1904.4 313.765 1904.35 248.025C1904.31 190.542 1904.28 132.368 1920 87.8639V87.8678ZM1920 46.9317V48.0571C1893.9 93.3986 1892.31 160.314 1890.74 226.308C1889.24 289.525 1887.76 351.89 1864.78 393.736C1824.77 466.628 1719.68 477.179 1436.11 321.328C1284.56 253.033 1132.76 205.184 1013.89 198.773C951.817 195.424 898.725 203.378 859.35 225.621C820.002 247.848 794.339 284.359 787.089 338.143C780.799 384.787 788.352 444.42 812.813 518.987V519.002L812.821 519.022C826.656 588.284 835.123 674.554 822.517 749.463C814.053 799.744 796.09 844.912 763.884 876.385C731.67 907.868 685.214 925.64 619.776 921.131C559.035 916.944 481.928 893.549 384.661 844.079C277.244 792.431 180.488 912.508 86.4233 1029.25C60.9142 1060.91 35.6048 1092.32 10.3222 1120H9.56573C34.9481 1092.24 60.3689 1060.69 85.9856 1028.9C180.188 911.99 277.083 791.736 384.895 843.576H384.899C482.101 893.016 559.135 916.391 619.807 920.578C685.068 925.075 731.382 907.361 763.488 875.985C795.602 844.605 813.516 799.544 821.964 749.371C834.559 674.547 826.1 588.357 812.276 519.148C787.792 444.505 780.235 384.794 786.536 338.07C793.813 284.094 819.575 247.449 859.074 225.137C898.549 202.841 951.74 194.867 1013.92 198.22C1132.87 204.634 1284.73 252.503 1436.34 320.829L1436.36 320.84C1719.56 476.484 1824.43 466.087 1864.3 393.475C1887.2 351.751 1888.68 289.449 1890.18 226.305C1891.76 159.827 1893.36 92.4115 1920 46.9394V46.9317ZM1920 14.4763V15.352C1883.74 59.4952 1880.13 132.599 1876.58 204.588C1873.6 265.113 1870.65 324.846 1848.38 366.005C1808.26 440.176 1705.5 453.946 1427.12 303.157C1268.9 232.907 1117.78 186.636 999.956 180.322C935.797 176.88 881.522 185.288 841.367 208.118C801.239 230.937 775.204 268.178 767.493 322.415C761.004 368.071 767.493 425.777 789.489 497.063L789.497 497.086V497.102C801.788 567.624 809.922 654.347 797.584 729.248C789.27 779.717 771.668 824.821 739.78 856.001C707.885 887.189 661.721 904.438 596.295 899.184C538.491 894.537 465.646 872.321 374.316 826.611C266.55 775.792 169.993 895.52 76.0784 1011.97C50.5808 1043.59 25.2752 1074.96 -0.0112305 1102.62V1101.8C25.1292 1074.26 50.2889 1043.06 75.6445 1011.62C169.694 895.001 266.389 775.101 374.558 826.111H374.562C465.823 871.791 538.599 893.991 596.337 898.631C661.575 903.874 707.601 886.682 739.385 855.605C771.176 824.517 788.732 779.518 797.027 729.16C809.349 654.34 801.224 567.689 788.944 497.213C766.929 425.853 760.439 368.075 766.937 322.342C774.67 267.917 800.802 230.545 841.083 207.642C881.338 184.75 935.716 176.323 999.975 179.768C1117.87 186.091 1269.07 232.385 1427.36 302.661L1427.37 302.673C1705.37 453.25 1807.91 439.631 1847.89 365.748C1870.1 324.7 1873.04 265.032 1876.02 204.573C1879.58 132.203 1883.22 58.7078 1919.99 14.4878L1920 14.4763ZM1907.15 0H1907.86C1873.03 43.8014 1867.69 113.847 1862.44 182.853C1858.05 240.577 1853.71 297.568 1832.21 337.936C1791.94 413.559 1691.55 430.762 1418.15 284.989C1254 213.065 1103.63 168.211 986.846 161.809C920.279 158.16 864.634 167.005 823.584 190.454C782.562 213.887 756.112 251.919 747.894 306.656C741.189 351.314 746.623 407.095 766.176 475.136V475.155L766.184 475.17C781.832 580.003 791.286 717.557 741.835 801.887C692.352 886.267 583.972 917.363 364.005 809.142C255.883 759.146 159.525 878.52 65.7603 994.68C43.7379 1021.96 21.8576 1049.07 0.000289531 1073.76V1072.92C21.7117 1048.36 43.4499 1021.43 65.3264 994.33C159.222 878.002 255.721 758.454 364.24 808.635H364.247C583.868 916.691 692.026 885.733 741.358 801.603C790.722 717.422 781.275 580.007 765.639 475.27C746.066 407.16 740.633 351.306 747.345 306.575C755.586 251.654 782.135 213.491 823.308 189.97C864.453 166.467 920.203 157.599 986.876 161.252C1103.73 167.658 1254.17 212.527 1418.39 284.482L1418.41 284.494C1691.42 430.067 1791.6 413.013 1831.73 337.675C1853.17 297.411 1857.5 240.477 1861.89 182.814C1867.13 113.897 1872.45 43.9473 1907.15 0ZM1884.82 0H1885.47C1860.63 42.9295 1854.43 102.402 1848.32 161.109C1842.62 215.896 1836.99 270.014 1816.33 309.463C1775.87 386.746 1677.87 407.648 1409.19 266.814C1239.92 193.538 1090.43 149.933 974.692 143.257C905.323 139.255 848.095 148.519 806.02 172.613C763.968 196.691 737.05 235.596 728.272 290.885C721.344 334.525 725.714 388.374 742.864 453.201V453.212L742.871 453.239C756.089 559.14 765.915 695.429 718.883 779.414C671.82 863.46 567.906 895.136 353.684 791.666C245.207 742.495 149.046 861.517 55.4307 977.388C36.8797 1000.35 18.4284 1023.19 0.000289531 1044.57V1043.72C18.2864 1022.48 36.5955 999.823 55.0006 977.039C148.747 861.002 245.046 741.808 353.914 791.159H353.922C567.787 894.464 671.482 862.93 718.399 779.145C765.343 695.306 755.532 559.151 742.322 453.339C725.154 388.443 720.784 334.517 727.723 290.804C736.528 235.334 763.542 196.303 805.74 172.137C847.911 147.985 905.25 138.698 974.723 142.704C1090.53 149.383 1240.09 193.004 1409.42 266.307L1409.44 266.315C1677.74 406.949 1775.52 386.204 1815.84 309.202C1836.44 269.852 1842.07 215.784 1847.77 161.048C1853.87 102.409 1860.06 43.0063 1884.82 0ZM1864.99 0H1865.6C1847.49 39.899 1840.82 89.9034 1834.22 139.351C1827.32 191.041 1820.5 242.125 1800.79 280.488C1760.08 359.694 1664.52 384.625 1400.21 248.643C1226.79 174.384 1078.33 131.853 963.648 124.698C891.007 120.166 831.932 129.822 788.679 154.595C745.452 179.354 718.015 219.226 708.619 275.13C701.457 317.733 704.771 369.646 719.547 431.281V431.3L719.555 431.315C730.341 538.284 740.537 673.302 695.927 756.949C651.284 840.661 551.828 872.916 343.358 774.194C234.528 725.853 138.563 844.524 45.1049 960.104C30.0214 978.759 15.0032 997.33 0.00412953 1015.11V1014.25C14.8611 996.627 29.7372 978.229 44.6748 959.755C138.271 844.01 234.367 725.169 343.588 773.687H343.596C551.705 872.24 650.938 840.131 695.44 756.687C739.972 673.183 729.785 538.276 719.006 431.388C704.218 369.688 700.904 317.71 708.077 275.038C717.504 218.957 745.033 178.954 788.41 154.111C831.763 129.28 890.942 119.597 963.691 124.141C1078.43 131.304 1226.97 173.846 1400.45 248.136L1400.47 248.144C1664.39 383.926 1759.75 359.157 1800.3 280.234C1819.98 241.952 1826.79 190.919 1833.68 139.278C1840.26 89.8804 1846.93 39.9298 1864.99 0ZM1846.45 0H1847.05C1833.64 35.4475 1826.85 76.7062 1820.14 117.581C1812.19 165.964 1804.33 213.802 1785.66 250.875C1744.65 332.324 1651.58 361.715 1391.24 230.476C1214.74 155.64 1067.5 114.016 953.914 106.154C877.429 100.858 816.208 110.875 771.595 136.367C727.012 161.847 699.011 202.798 688.931 259.394C681.535 300.929 683.789 350.895 696.227 409.357V409.368L696.231 409.391L696.346 410.897C704.479 516.057 714.463 645.145 675.921 728.376C635.255 816.21 540.634 852.971 333.024 756.734C223.842 709.218 128.076 827.54 34.7638 942.828C23.1401 957.189 11.5587 971.5 -0.0112305 985.439V984.571C11.4128 970.797 22.8521 956.663 34.3299 942.478C127.772 827.026 223.673 708.534 333.243 756.223H333.251C540.477 852.287 634.875 815.687 675.41 728.142C713.891 645.041 703.911 516.033 695.785 410.939L695.67 409.457C683.221 350.933 680.967 300.902 688.374 259.294C698.481 202.526 726.574 161.444 771.307 135.883C816.016 110.333 877.34 100.293 953.937 105.597C1067.59 113.463 1214.89 155.106 1391.45 229.965L1391.47 229.973C1651.42 361.016 1744.28 331.79 1785.15 250.621C1803.78 213.626 1811.64 165.826 1819.58 117.489C1826.3 76.6601 1833.07 35.4475 1846.45 0ZM1828.46 0H1829.05C1819.04 29.9896 1812.54 63.0173 1806.09 95.7915C1797.28 140.595 1788.56 184.927 1771.08 220.42C1729.67 304.532 1639.19 338.954 1382.27 212.301C1203.93 137.369 1058.19 96.479 945.754 87.6719C864.718 81.3267 800.986 91.6472 754.814 117.9C708.665 144.14 680.049 186.313 669.22 243.681C661.586 284.125 662.788 332.125 672.918 387.422V387.441V387.46C673.344 395.269 673.794 403.2 674.247 411.224C680.049 513.552 686.711 631.022 651.817 708.146C612.972 793.998 522.72 829.856 322.706 739.254C213.166 692.568 117.604 810.537 24.4457 925.536C16.2819 935.615 8.13725 945.67 0.000289531 955.591V954.712C7.99133 944.963 15.9939 935.085 24.0118 925.187C117.301 810.026 213.001 691.888 322.933 738.747H322.937C522.559 829.173 612.596 793.479 651.31 707.916C686.151 630.914 679.492 513.521 673.694 411.258C673.241 403.242 672.787 395.315 672.365 387.51C662.227 332.151 661.026 284.091 668.671 243.581C679.531 186.044 708.238 143.745 754.533 117.419C800.805 91.1056 864.645 80.7621 945.792 87.1149C1058.29 95.9259 1204.09 136.831 1382.49 211.79L1382.51 211.798C1639.03 338.251 1729.3 303.998 1770.58 220.171C1788.02 184.742 1796.74 140.446 1805.54 95.6801C1811.98 62.952 1818.47 29.9704 1828.46 0ZM1810.49 0H1811.07C1803.66 23.8058 1797.85 48.9712 1792.07 73.983C1782.64 114.846 1773.3 155.306 1757.19 188.837C1715.25 276.151 1627.53 316.392 1373.3 194.129C1125.01 90.6754 944.076 53.1501 824.479 71.1983C783.057 77.4513 748.996 90.3682 722.047 109.523C695.109 128.673 675.272 154.058 662.289 185.249C642.62 232.5 638.685 293.086 649.598 365.502V365.513V365.533C650.051 379.801 650.638 394.508 651.234 409.418C655.181 508.275 659.486 616.073 627.764 687.959C590.761 771.817 504.83 806.799 312.38 721.785C202.487 675.922 107.121 793.541 14.1123 908.252C9.40445 914.06 4.69661 919.863 -0.00355047 925.636V924.753C4.55453 919.153 9.11261 913.53 13.6784 907.899C106.818 793.026 202.318 675.242 312.599 721.271H312.603C504.661 806.116 590.381 771.294 627.253 687.732C658.921 615.962 654.62 508.233 650.677 409.438C650.085 394.589 649.498 379.943 649.045 365.571C638.116 293.059 642.071 232.381 661.778 185.034C674.8 153.746 694.699 128.278 721.724 109.069C748.743 89.865 782.884 76.9136 824.395 70.6491C944.091 52.5893 1125.12 90.1224 1373.52 193.619L1373.53 193.626C1627.36 315.693 1714.88 275.625 1756.69 188.595C1772.77 155.122 1782.11 114.689 1791.53 73.8562C1797.29 48.8905 1803.09 23.775 1810.49 0ZM1792.11 0H1792.69C1787.44 17.1073 1782.75 34.6678 1778.09 52.1514C1768.38 88.5591 1758.75 124.644 1744.26 155.655C1701.61 246.922 1616.91 294.134 1364.34 175.962C1117.73 73.9984 940.75 36.7918 821.664 50.4922C774.801 55.8848 736.908 69.1588 707.267 89.4732C677.637 109.78 656.256 137.131 642.402 170.669C623.205 217.156 618.467 275.541 626.285 343.578V343.59V343.605C626.477 363.892 627.026 384.844 627.579 406.015C630.068 501.062 632.671 600.544 603.79 667.806C568.651 749.651 486.993 783.8 302.062 704.313C191.812 659.275 96.6454 776.545 3.78653 890.968L0.000289531 895.631V894.748L3.35261 890.615C96.342 776.034 191.643 658.603 302.277 703.799H302.281C486.82 783.12 568.267 749.132 603.276 667.587C632.11 600.429 629.507 501.016 627.022 406.027C626.469 384.887 625.92 363.965 625.728 343.624C617.899 275.498 622.649 217.029 641.883 170.454C655.78 136.812 677.227 109.381 706.948 89.0085C736.658 68.6442 774.636 55.3355 821.591 49.9352C940.773 36.2233 1117.85 73.4414 1364.54 175.44L1364.55 175.447C1616.71 293.432 1701.23 246.396 1743.75 155.413C1758.22 124.452 1767.84 88.3863 1777.54 52.0016C1782.2 34.5717 1786.87 17.0612 1792.11 0ZM1772.94 0H1773.52C1770.32 10.0554 1767.23 20.1877 1764.15 30.2968C1754.65 61.4771 1745.22 92.4154 1732.7 120.039C1689.05 216.36 1607.87 272.368 1355.36 157.787C1055.41 34.6562 862.096 6.64856 746.37 43.9358C630.732 81.1923 592.593 183.709 602.969 321.658V321.674V321.685C602.654 347.649 603.053 374.47 603.452 401.387C604.812 492.447 606.187 584.597 579.89 647.706C546.632 727.528 469.198 760.878 291.744 686.857C183.737 643.677 90.6435 754.145 0.000289531 865.634V864.751C90.632 753.284 183.74 643.078 291.952 686.334C469.018 760.198 546.244 727.005 579.376 647.487C605.626 584.486 604.255 492.393 602.896 401.395C602.496 374.463 602.093 347.626 602.408 321.689C592.021 183.479 630.259 80.7621 746.193 43.4096C862.042 6.08395 1055.49 34.0878 1355.57 157.28H1355.58C1607.66 271.665 1688.66 215.85 1732.19 119.812C1744.7 92.2118 1754.12 61.2966 1763.61 30.1355C1766.68 20.0801 1769.75 10.0016 1772.94 0ZM1752.57 0H1753.16C1752.18 2.80384 1751.22 5.60768 1750.25 8.40768C1741.77 33.0123 1733.34 57.4634 1723.38 80.2129C1678.2 183.402 1601.61 251.501 1346.38 139.62C1034.14 12.2755 840.411 -12.9053 725.764 26.3715C611.198 65.6214 575.62 169.302 579.652 299.738V299.754C578.6 331.114 578.792 363.535 578.98 395.76C579.487 482.737 579.99 568.315 556.078 627.626C524.717 705.412 451.458 738.005 281.419 669.377C177.189 628.625 87.2451 729.006 0.000289531 835.69V834.807C87.2374 728.165 177.201 628.03 281.622 668.862H281.626C451.266 737.333 524.322 704.897 555.56 627.419C579.429 568.212 578.93 482.691 578.419 395.768C578.231 363.528 578.039 331.091 579.092 299.746C575.056 169.075 610.725 65.1951 725.58 25.8491C840.35 -13.4738 1034.21 11.707 1346.6 139.109H1346.6C1601.39 250.798 1677.81 182.899 1722.87 79.9901C1732.82 57.256 1741.25 32.8165 1749.73 8.22716C1750.68 5.48477 1751.62 2.74239 1752.57 0ZM1019.69 0H1021.99C1108.21 21.3053 1209.51 54.7479 1328.65 102.763C1586.3 206.601 1654.53 114.059 1706.46 0H1707.07C1655.02 114.42 1586.77 207.388 1328.44 103.277C1208.32 54.8669 1106.35 21.2746 1019.69 0ZM940.14 0H943.577C1046.71 16.992 1176.01 55.4277 1337.62 120.934H1337.63C1624.9 242.021 1680.96 127.106 1730.58 0H1731.18C1681.44 127.46 1625.36 242.824 1337.41 121.449C1174.07 55.2395 1043.77 16.7001 940.14 0ZM732.292 0H734.65C724.267 2.49657 714.436 5.43484 705.155 8.80713C591.66 50.0505 558.643 154.899 556.332 277.815V277.826C554.335 314.41 554.289 352.205 554.243 389.342C554.139 472.194 554.039 551.788 532.351 607.588C502.906 683.331 433.767 715.218 271.093 651.912C170.673 613.519 83.8736 704.344 0.000289531 805.862V804.987C83.8659 703.522 170.688 612.923 271.296 651.39C433.571 714.545 502.514 682.82 531.833 607.385C553.486 551.681 553.582 472.14 553.686 389.338C553.732 352.201 553.782 314.407 555.771 277.807C558.087 154.668 591.188 49.628 704.959 8.28477C713.599 5.14678 722.708 2.38519 732.292 0ZM663.399 0H664.666C613.145 25.515 581.365 66.0247 561.731 114.788C530.573 192.19 529.932 290.374 529.337 382.256C528.822 460.967 528.342 535.057 508.735 587.581C481.225 661.284 416.149 692.503 260.775 634.444C164.183 598.347 80.5328 680.154 0.000289531 776.203V775.335C80.5289 679.355 164.203 597.76 260.971 633.922C415.941 691.834 480.822 660.773 508.213 587.389C527.781 534.957 528.265 460.913 528.78 382.256C529.379 290.32 530.016 192.082 561.216 114.581C580.77 66.0055 612.354 25.611 663.399 0ZM231.391 1120C310.587 1026.09 392.21 952.303 477.838 1000.82C635.036 1089.88 753.439 1121.87 840.657 1117.64C904.194 1114.55 951.176 1092.23 984.542 1058.76C1017.91 1025.28 1037.67 980.626 1046.75 932.88C1061 858.025 1049.02 775.569 1022.15 716.593C972.611 607.884 956.064 529.446 962.588 474.287C968.429 424.92 992.74 394.185 1028.42 377.082C1064.07 359.994 1111.06 356.529 1162.32 361.676C1291.14 374.62 1446.95 442.012 1517.13 484.385C1717.38 605.292 1842.89 658.799 1920 668.355V668.87C1842.73 659.302 1717.1 605.772 1516.84 484.857C1446.71 442.511 1291 375.162 1162.26 362.229C1111.1 357.09 1064.21 360.543 1028.67 377.581C993.155 394.6 968.959 425.197 963.145 474.345C956.633 529.411 973.168 607.746 1022.66 716.354C1049.58 775.423 1061.57 858.01 1047.3 932.98C1038.19 980.83 1018.39 1025.58 984.937 1059.15C951.479 1092.72 904.378 1115.1 840.688 1118.19C753.374 1122.43 634.864 1090.43 477.566 1001.3C392.414 953.056 311.075 1026.45 232.124 1120H231.395H231.391Z" fill="#FFC700" fill-opacity="0.4"/>
</svg>
