<svg width="106" height="106" viewBox="0 0 106 106" fill="none" xmlns="http://www.w3.org/2000/svg">
<circle cx="53" cy="53" r="51.5" fill="#D9D9D9" stroke="#C24747" stroke-width="3"/>
<path d="M23.3311 55.2904V57.4839C25.1451 57.4839 26.6214 58.9602 26.6214 60.7742V65.0626C26.6228 66.2519 27.0959 67.392 27.9368 68.233C28.7778 69.0739 29.9179 69.547 31.1072 69.5484C32.8182 69.5484 34.3547 68.5986 35.1203 67.0686L36.3542 64.602C36.6244 64.0633 37.0179 63.5959 37.5027 63.2378C37.9875 62.8797 38.55 62.641 39.1444 62.5411C40.5503 62.3103 41.8281 61.5864 42.749 60.4992C43.6698 59.4119 44.1735 58.0324 44.1698 56.6076V55.2904H41.9762V56.6076C41.9781 57.5128 41.658 58.3891 41.0731 59.0799C40.4882 59.7707 39.6766 60.231 38.7835 60.3783C37.848 60.5352 36.9627 60.9107 36.1996 61.4742C35.4365 62.0378 34.8172 62.7735 34.392 63.6215L33.1582 66.0881C32.9689 66.4699 32.6764 66.7909 32.3139 67.0149C31.9513 67.2388 31.5333 67.3566 31.1072 67.3549C30.4994 67.3543 29.9167 67.1126 29.487 66.6829C29.0572 66.2531 28.8155 65.6704 28.8149 65.0626V64.6129L30.1311 63.6258C31.0826 62.9088 31.855 61.9811 32.3878 60.9155C32.9206 59.8499 33.1993 58.6753 33.202 57.4839C33.202 52.646 29.2657 48.7097 24.4278 48.7097V50.9033C28.0571 50.9033 31.0085 53.8547 31.0085 57.4839C31.0064 58.3349 30.8072 59.1738 30.4267 59.9349C30.0461 60.6961 29.4944 61.3587 28.8149 61.871V60.7742C28.8149 57.7504 26.3549 55.2904 23.3311 55.2904Z" fill="#C24747"/>
<path d="M47.414 57.3522C44.9573 62.2296 42.0914 67.9613 42.0914 67.9613L44.0535 68.9429C44.0535 68.9429 46.9172 63.2134 49.3729 58.3404C51.7103 53.6848 52.9353 48.5503 52.9517 43.3409V43.1238C52.9643 38.5969 51.6632 34.1637 49.2062 30.3617L49.0099 30.0579C46.3118 25.8748 41.7196 23.4378 36.7501 23.4805L36.4924 23.4838C36.1798 23.4838 35.8705 23.5014 35.5667 23.5343C32.405 23.7727 29.4646 25.2472 27.3826 27.6384C26.2469 28.9517 25.4064 30.4934 24.9179 32.1594C24.4293 33.8254 24.3041 35.5769 24.5507 37.2955C25.2208 42.0577 28.8204 45.8701 33.4543 47.15L33.4214 47.1742L34.0795 48.0516C35.6407 50.1425 36.4868 52.6808 36.4924 55.2903H38.6859C38.6859 52.5725 37.8864 49.8777 36.4244 47.5931C36.5724 47.5986 36.7183 47.6129 36.8675 47.6129H38.1671C39.4382 47.6086 40.6851 47.9605 41.7664 48.6287C42.8477 49.2969 43.7202 50.2547 44.2849 51.3934L46.2471 50.4118C45.5014 48.908 44.3492 47.6432 42.9213 46.7608C41.4934 45.8783 39.8468 45.4136 38.1682 45.4193H36.8686C31.762 45.4193 27.4001 41.7956 26.7234 36.9895C26.4119 34.7806 26.8133 32.632 27.8542 30.7664C27.7665 31.2588 27.721 31.7579 27.7182 32.258C27.7182 37.0959 31.6545 41.0322 36.4924 41.0322V38.8387C32.8631 38.8387 29.9117 35.8872 29.9117 32.258C29.9137 30.6347 30.5148 29.0693 31.5999 27.8619C32.685 26.6546 34.1776 25.8903 35.7915 25.7158C36.0295 25.6982 36.2664 25.6774 36.5066 25.6774L36.7786 25.6741C38.8412 25.644 40.8774 26.1399 42.695 27.1151C44.5127 28.0904 46.0519 29.5127 47.1673 31.2479L47.3625 31.5506C49.5901 34.9974 50.7696 39.0165 50.7581 43.1205V43.3376C50.7431 48.205 49.5984 53.0025 47.414 57.3522ZM71.1241 58.744C70.9652 58.6455 70.7836 58.5893 70.5968 58.5809C70.41 58.5724 70.2241 58.612 70.057 58.6958L61.5142 62.9677H57.3859C57.095 62.9677 56.8161 63.0833 56.6104 63.2889C56.4047 63.4946 56.2891 63.7736 56.2891 64.0645V72.8387C56.2891 73.1296 56.4047 73.4085 56.6104 73.6142C56.8161 73.8199 57.095 73.9355 57.3859 73.9355H61.5142L70.057 78.2074C70.2243 78.2905 70.4101 78.3296 70.5968 78.3212C70.7834 78.3127 70.9649 78.257 71.1241 78.1591C71.4466 77.9584 71.644 77.6064 71.644 77.2258V59.6774C71.644 59.2968 71.4466 58.9447 71.1241 58.744ZM58.4827 65.1613H60.6762V71.7419H58.4827V65.1613ZM69.4504 75.4512L62.8698 72.1609V64.7423L69.4504 61.452V75.4512Z" fill="#C24747"/>
<path d="M69.4506 50.9032C63.312 50.9032 57.9093 54.0773 54.7714 58.8636C57.1361 52.6789 58.4193 46.0632 58.4752 39.4573L58.4829 38.6786C58.5155 36.014 57.9393 33.3772 56.7981 30.9691C55.6569 28.5611 53.9809 26.4455 51.8979 24.7836L50.3898 23.5738C45.8911 19.9724 40.3019 18.007 34.5392 18C32.0386 18 29.5697 18.6559 27.3992 19.8963C24.1898 21.7232 21.8093 24.7182 20.7538 28.257L18.9902 34.1368L21.0917 34.7664L22.8553 28.8866C23.7492 25.8869 25.7668 23.3483 28.4872 21.8003C30.3308 20.7483 32.4166 20.1945 34.5392 20.1935C39.7851 20.1935 44.9257 22.001 49.0166 25.2837L50.5247 26.4945C52.3481 27.9491 53.8152 29.8008 54.8143 31.9086C55.8133 34.0163 56.3178 36.3243 56.2893 38.6567L56.2828 39.4387C56.2032 47.4609 54.3259 55.3632 50.789 62.5641L50.6497 62.8493C47.9708 68.287 44.532 73.316 40.4366 77.7852L37.1934 81.3256C36.4765 82.1064 35.6055 82.73 34.6354 83.157C33.6652 83.584 32.617 83.8052 31.5571 83.8065H31.3619C30.3553 83.8116 29.3578 83.6169 28.427 83.2338C27.4962 82.8507 26.6507 82.2867 25.9394 81.5745L25.8604 81.4956C25.056 80.6952 24.4183 79.7433 23.9842 78.6949C23.5501 77.6465 23.3282 76.5224 23.3313 75.3876V75.0323H21.1377V75.3865C21.1338 76.81 21.4124 78.22 21.9572 79.535C22.5021 80.85 23.3024 82.0439 24.3118 83.0475L24.3908 83.1265C25.3047 84.0426 26.3914 84.7684 27.5878 85.2616C28.7843 85.7549 30.0667 86.0058 31.3608 86H31.556C32.9199 85.9984 34.2687 85.714 35.5171 85.1646C36.7655 84.6153 37.8864 83.813 38.8089 82.8084L42.0521 79.268C46.2131 74.7233 49.7189 69.6197 52.4682 64.1051C52.0985 65.5246 51.9084 66.9848 51.9022 68.4516C51.9022 78.1274 59.7749 86 69.4506 86C79.1264 86 86.999 78.1274 86.999 68.4516C86.999 58.7759 79.1264 50.9032 69.4506 50.9032ZM69.4506 83.8065C60.9835 83.8065 54.0958 76.9187 54.0958 68.4516C54.0958 59.9845 60.9835 53.0968 69.4506 53.0968C77.9177 53.0968 84.8055 59.9845 84.8055 68.4516C84.8055 76.9187 77.9177 83.8065 69.4506 83.8065Z" fill="#C24747"/>
<path d="M83.3875 64.8399L81.8367 63.2891L78.225 66.9007L74.6133 63.2891L73.0625 64.8399L76.6742 68.4516L73.0625 72.0633L74.6133 73.6141L78.225 70.0024L81.8367 73.6141L83.3875 72.0633L79.7759 68.4516L83.3875 64.8399Z" fill="#C24747"/>
</svg>
