<svg width="1920" height="934" viewBox="0 0 1920 934" fill="none" xmlns="http://www.w3.org/2000/svg">
<path d="M1876.35 1008.87C1867.45 1012.39 1858.08 1014.58 1848.21 1015.32C1856.14 1024.06 1864.1 1032.87 1872.12 1041.85C1885.69 1046.37 1898.3 1048.13 1910.02 1047.4C1898.73 1034.35 1887.49 1021.45 1876.35 1008.87M1812.33 977.288C1803.53 980.211 1794.36 982.097 1784.81 982.885C1793.75 992.18 1802.75 1001.64 1811.8 1011.26C1824.14 1014.32 1835.79 1015.43 1846.81 1014.74C1835.24 1002.02 1823.74 989.518 1812.33 977.288ZM1837.52 965.612C1829.68 970.344 1821.52 974.185 1813.03 977.066C1824.48 989.345 1836.02 1001.9 1847.63 1014.68C1857.54 1013.98 1866.94 1011.82 1875.86 1008.31C1862.98 993.777 1850.21 979.551 1837.52 965.616L1837.52 965.612ZM1860.16 948.782C1853.09 955.084 1845.75 960.611 1838.1 965.274C1850.81 979.236 1863.61 993.493 1876.51 1008.06C1884.89 1004.69 1892.86 1000.13 1900.43 994.461C1886.9 978.886 1873.49 963.699 1860.16 948.782ZM1747.57 945.72C1739.03 948.19 1730.23 949.918 1721.13 950.798C1731.2 960.581 1741.31 970.498 1751.49 980.668C1762.57 982.547 1773.17 983.038 1783.34 982.316C1771.33 969.856 1759.42 957.677 1747.57 945.724L1747.57 945.72ZM1772.99 935.757C1765.01 939.74 1756.78 943.016 1748.29 945.517C1760.18 957.52 1772.14 969.741 1784.19 982.247C1793.78 981.498 1802.98 979.639 1811.81 976.732C1798.78 962.766 1785.83 949.112 1772.99 935.753L1772.99 935.757ZM1796.66 921.4C1789.21 926.758 1781.53 931.448 1773.6 935.446C1786.48 948.831 1799.44 962.513 1812.5 976.509C1821.02 973.651 1829.19 969.822 1837.05 965.094C1823.48 950.203 1810.02 935.623 1796.66 921.4ZM1818.72 903.052C1811.76 909.654 1804.59 915.646 1797.19 921.008C1810.56 935.254 1824.05 949.845 1837.62 964.756C1845.28 960.101 1852.63 954.577 1859.71 948.278C1845.94 932.869 1832.27 917.774 1818.72 903.052ZM1839.29 881.086C1832.79 888.81 1826.1 896.019 1819.2 902.606C1832.76 917.332 1846.43 932.431 1860.2 947.848C1867.14 941.626 1873.81 934.632 1880.23 926.95C1866.48 911.329 1852.83 896.019 1839.29 881.086ZM1858.57 855.901C1852.46 864.632 1846.18 872.874 1839.72 880.583C1853.26 895.516 1866.91 910.826 1880.66 926.443C1886.99 918.842 1893.07 910.557 1898.94 901.658C1885.38 886.079 1871.92 870.812 1858.57 855.901ZM1876.68 827.825C1870.93 837.458 1865.02 846.633 1858.95 855.348C1872.3 870.255 1885.76 885.515 1899.32 901.089C1905.11 892.271 1910.69 882.853 1916.08 872.882C1902.85 857.549 1889.71 842.524 1876.68 827.825ZM1682.01 914.302C1673.88 916.434 1665.56 918.012 1657.04 918.995C1668.35 929.132 1679.72 939.456 1691.17 950.084C1700.96 951.017 1710.42 951.028 1719.6 950.233C1706.98 937.981 1694.44 925.967 1682.01 914.302ZM1707.26 905.675C1699.29 909.059 1691.13 911.871 1682.76 914.106C1695.23 925.813 1707.82 937.87 1720.47 950.164C1729.61 949.319 1738.44 947.625 1747.02 945.167C1733.67 931.701 1720.39 918.481 1707.26 905.675ZM1731.53 893.319C1723.84 897.886 1715.98 901.927 1707.91 905.387C1721.07 918.216 1734.37 931.471 1747.74 944.964C1756.26 942.475 1764.5 939.218 1772.5 935.242C1758.74 920.939 1745.06 906.92 1731.53 893.315L1731.53 893.319ZM1754.78 877.476C1747.41 883.156 1739.85 888.338 1732.11 892.974C1745.66 906.589 1759.34 920.62 1773.11 934.935C1781.05 930.944 1788.74 926.266 1796.2 920.908C1782.29 906.09 1768.47 891.579 1754.78 877.476ZM1776.99 858.394C1769.93 865.1 1762.7 871.334 1755.3 877.068C1769 891.176 1782.82 905.695 1796.73 920.513C1804.13 915.158 1811.3 909.163 1818.27 902.557C1804.4 887.496 1790.63 872.74 1776.99 858.39L1776.99 858.394ZM1798.16 836.324C1791.42 843.968 1784.53 851.2 1777.47 857.945C1791.11 872.29 1804.88 887.055 1818.75 902.111C1825.65 895.52 1832.34 888.315 1838.85 880.591C1825.19 865.523 1811.61 850.701 1798.17 836.324L1798.16 836.324ZM1818.39 811.597C1811.94 820.085 1805.35 828.159 1798.6 835.829C1812.04 850.202 1825.62 865.023 1839.28 880.087C1845.74 872.375 1852.02 864.136 1858.12 855.398C1844.79 840.503 1831.52 825.835 1818.39 811.597ZM1837.69 784.427C1831.52 793.66 1825.22 802.567 1818.79 811.063C1831.91 825.297 1845.17 839.958 1858.5 854.845C1864.57 846.126 1870.48 836.947 1876.22 827.314C1863.28 812.726 1850.43 798.4 1837.69 784.427ZM1856.23 755.078C1850.29 764.996 1844.24 774.602 1838.07 783.866C1850.8 797.831 1863.65 812.15 1876.58 826.726C1882.29 817.116 1887.84 807.049 1893.27 796.621C1880.83 782.498 1868.48 768.64 1856.23 755.082L1856.23 755.078ZM1874.06 723.752C1868.34 734.28 1862.52 744.539 1856.57 754.491C1868.82 768.037 1881.16 781.884 1893.59 795.999C1899 785.579 1904.26 774.782 1909.41 763.643C1897.54 750.093 1885.76 736.792 1874.06 723.756L1874.06 723.752ZM1615.34 883.222C1607.84 885.073 1600.22 886.548 1592.46 887.619C1605.17 897.955 1617.96 908.56 1630.86 919.491C1639.27 919.71 1647.47 919.36 1655.5 918.5C1642.01 906.42 1628.61 894.637 1615.33 883.218L1615.34 883.222ZM1639.97 875.632C1632.17 878.528 1624.22 880.994 1616.13 883.029C1629.43 894.475 1642.85 906.29 1656.37 918.396C1664.92 917.44 1673.27 915.873 1681.42 913.753C1667.49 900.686 1653.68 887.992 1639.97 875.636L1639.97 875.632ZM1664.58 864.897C1656.76 868.826 1648.8 872.337 1640.68 875.382C1654.4 887.758 1668.23 900.475 1682.18 913.557C1690.57 911.341 1698.75 908.544 1706.74 905.172C1692.57 891.372 1678.52 877.956 1664.59 864.897L1664.58 864.897ZM1688.75 851.116C1681.05 856.028 1673.2 860.526 1665.2 864.574C1679.14 877.645 1693.2 891.068 1707.38 904.88C1715.46 901.427 1723.33 897.387 1731.03 892.824C1716.82 878.551 1702.72 864.639 1688.75 851.116ZM1712.31 834.485C1704.79 840.319 1697.13 845.746 1689.32 850.755C1703.3 864.286 1717.4 878.202 1731.62 892.482C1739.37 887.85 1746.93 882.68 1754.31 876.995C1740.19 862.454 1726.19 848.285 1712.31 834.485L1712.31 834.485ZM1735.15 815.154C1727.85 821.84 1720.41 828.163 1712.83 834.074C1726.71 847.878 1740.71 862.047 1754.83 876.588C1762.24 870.858 1769.46 864.624 1776.52 857.914C1762.61 843.292 1748.83 829.065 1735.15 815.154L1735.15 815.154ZM1757.3 793.368C1750.21 800.839 1742.99 807.96 1735.64 814.712C1749.32 828.62 1763.1 842.842 1777.01 857.465C1784.07 850.72 1790.96 843.492 1797.71 835.844C1784.13 821.318 1770.67 807.214 1757.3 793.368ZM1778.76 769.293C1771.88 777.482 1764.88 785.356 1757.75 792.888C1771.12 806.73 1784.56 820.826 1798.15 835.349C1804.89 827.679 1811.49 819.597 1817.94 811.109C1804.77 796.833 1791.72 782.925 1778.76 769.293ZM1799.59 743.16C1792.9 751.99 1786.1 760.548 1779.19 768.786C1792.14 782.41 1805.18 796.306 1818.34 810.571C1824.78 802.071 1831.07 793.164 1837.24 783.927C1824.6 770.069 1812.03 756.423 1799.59 743.16ZM1819.76 715.256C1813.27 724.639 1806.68 733.773 1799.98 742.63C1812.42 755.885 1824.99 769.52 1837.62 783.366C1843.79 774.102 1849.84 764.492 1855.77 754.571C1843.68 741.205 1831.68 728.081 1819.76 715.252L1819.76 715.256ZM1839.44 685.651C1833.1 695.556 1826.68 705.258 1820.15 714.703C1832.05 727.52 1844.04 740.629 1856.12 753.984C1862.05 744.032 1867.88 733.769 1873.6 723.241C1862.14 710.47 1850.75 697.934 1839.44 685.651ZM1858.71 654.539C1852.49 664.914 1846.19 675.1 1839.81 685.082C1851.11 697.354 1862.48 709.883 1873.94 722.634C1879.67 712.064 1885.3 701.218 1890.84 690.148C1880.07 678.08 1869.35 666.181 1858.71 654.539ZM1547.3 852.66C1540.62 854.273 1533.86 855.671 1527.01 856.789C1541.41 867.14 1555.91 877.81 1570.55 888.906C1577.42 888.637 1584.17 888.023 1590.84 887.147C1576.2 875.267 1561.69 863.764 1547.31 852.656L1547.3 852.66ZM1570.91 845.877C1563.43 848.381 1555.83 850.578 1548.13 852.46C1562.54 863.591 1577.08 875.125 1591.73 887.032C1599.53 885.975 1607.18 884.52 1614.7 882.676C1599.98 870.024 1585.37 857.741 1570.91 845.877L1570.91 845.877ZM1595.52 836.424C1587.68 839.835 1579.73 842.908 1571.65 845.631C1586.14 857.518 1600.75 869.817 1615.49 882.488C1623.61 880.468 1631.58 878.009 1639.4 875.121C1624.65 861.828 1610.02 848.919 1595.52 836.424ZM1620.39 824.337C1612.45 828.62 1604.38 832.549 1596.2 836.132C1610.7 848.642 1625.34 861.559 1640.11 874.864C1648.25 871.826 1656.23 868.33 1664.06 864.409C1649.38 850.647 1634.82 837.3 1620.39 824.337L1620.39 824.337ZM1645.08 809.684C1637.17 814.792 1629.15 819.582 1621 824.003C1635.43 836.97 1649.99 850.328 1664.68 864.09C1672.69 860.05 1680.55 855.548 1688.25 850.636C1673.73 836.586 1659.34 822.95 1645.08 809.684L1645.08 809.684ZM1669.46 792.654C1661.64 798.538 1653.7 804.088 1645.65 809.312C1659.92 822.582 1674.31 836.221 1688.83 850.271C1696.65 845.266 1704.31 839.843 1711.84 834.008C1697.59 819.843 1683.46 806.058 1669.46 792.654ZM1693.39 773.369C1685.7 779.967 1677.91 786.282 1669.99 792.258C1683.99 805.659 1698.11 819.44 1712.36 833.601C1719.94 827.694 1727.38 821.368 1734.69 814.681C1720.81 800.581 1707.03 786.75 1693.39 773.369L1693.39 773.369ZM1716.81 752.079C1709.28 759.319 1701.64 766.271 1693.89 772.938C1707.52 786.312 1721.3 800.143 1735.17 814.239C1742.52 807.487 1749.75 800.366 1756.84 792.896C1743.39 778.969 1730.03 765.33 1716.81 752.079L1716.81 752.079ZM1739.73 728.895C1732.35 736.723 1724.87 744.32 1717.29 751.625C1730.5 764.865 1743.85 778.496 1757.29 792.416C1764.42 784.884 1771.42 777.006 1778.3 768.817C1765.34 755.186 1752.49 741.904 1739.73 728.899L1739.73 728.895ZM1762.25 703.972C1754.99 712.352 1747.63 720.503 1740.18 728.415C1752.94 741.412 1765.78 754.687 1778.73 768.31C1785.65 760.068 1792.44 751.51 1799.14 742.676C1786.74 729.479 1774.46 716.6 1762.25 703.975L1762.25 703.972ZM1784.29 677.543C1777.17 686.384 1769.98 695.042 1762.68 703.472C1774.87 716.086 1787.15 728.953 1799.53 742.142C1806.23 733.281 1812.82 724.148 1819.31 714.765C1807.56 702.109 1795.88 689.684 1784.29 677.543ZM1805.98 649.738C1798.97 659.006 1791.88 668.113 1784.71 677.028C1796.29 689.157 1807.96 701.571 1819.7 714.215C1826.22 704.767 1832.65 695.065 1838.99 685.159C1827.91 673.129 1816.91 661.315 1805.98 649.742L1805.98 649.738ZM1827.39 620.682C1820.46 630.334 1813.46 639.848 1806.38 649.208C1817.3 660.769 1828.29 672.572 1839.35 684.587C1845.73 674.6 1852.04 664.411 1858.26 654.036C1847.9 642.698 1837.62 631.625 1827.39 620.682ZM1477.26 822.931C1471.63 824.291 1465.96 825.52 1460.24 826.607C1476.75 836.701 1493.41 847.275 1510.23 858.325C1515.29 857.814 1520.3 857.146 1525.27 856.366C1509.12 844.778 1493.11 833.613 1477.26 822.931ZM1499.52 816.805C1492.47 818.994 1485.33 820.953 1478.14 822.712C1494.01 833.413 1510.05 844.609 1526.22 856.228C1533.11 855.122 1539.9 853.739 1546.62 852.133C1530.77 839.904 1515.07 828.143 1499.52 816.805L1499.52 816.805ZM1523.9 808.305C1516.12 811.313 1508.26 814.067 1500.3 816.552C1515.87 827.909 1531.58 839.685 1547.45 851.934C1555.17 850.063 1562.78 847.874 1570.3 845.374C1554.69 832.58 1539.22 820.216 1523.9 808.305ZM1549.24 797.478C1541.13 801.265 1532.92 804.791 1524.61 808.021C1539.94 819.947 1555.42 832.322 1571.03 845.128C1579.13 842.412 1587.1 839.34 1594.96 835.936C1579.58 822.685 1564.34 809.861 1549.24 797.478ZM1574.95 784.426C1566.7 788.951 1558.35 793.203 1549.9 797.163C1565 809.55 1580.24 822.386 1595.63 835.645C1603.83 832.065 1611.91 828.14 1619.86 823.857C1604.75 810.295 1589.78 797.144 1574.95 784.426ZM1600.7 769.259C1592.42 774.475 1584.05 779.422 1575.57 784.089C1590.4 796.806 1605.37 809.961 1620.48 823.527C1628.64 819.113 1636.66 814.32 1644.58 809.216C1629.82 795.504 1615.19 782.164 1600.7 769.263L1600.7 769.259ZM1626.29 752.094C1618.05 757.951 1609.72 763.559 1601.28 768.89C1615.76 781.792 1630.39 795.131 1645.14 808.843C1653.2 803.623 1661.15 798.069 1668.96 792.189C1654.62 778.462 1640.38 765.045 1626.29 752.098L1626.29 752.094ZM1651.56 733.151C1643.42 739.577 1635.18 745.772 1626.84 751.71C1640.92 764.657 1655.16 778.07 1669.5 791.793C1677.42 785.821 1685.22 779.506 1692.91 772.908C1679 759.273 1665.23 746.064 1651.56 733.151L1651.56 733.151ZM1676.58 712.475C1668.51 719.45 1660.34 726.21 1652.09 732.732C1665.75 745.641 1679.51 758.839 1693.41 772.47C1701.16 765.802 1708.81 758.846 1716.35 751.606C1702.98 738.228 1689.73 725.181 1676.58 712.475ZM1701.26 690.279C1693.29 697.73 1685.23 705.001 1677.09 712.045C1690.22 724.743 1703.47 737.787 1716.83 751.153C1724.41 743.848 1731.89 736.254 1739.27 728.426C1726.51 715.417 1713.83 702.673 1701.26 690.279ZM1725.64 666.696C1717.75 674.585 1709.79 682.301 1701.74 689.83C1714.3 702.212 1726.97 714.949 1739.72 727.946C1747.17 720.034 1754.53 711.888 1761.79 703.503C1749.65 690.943 1737.61 678.702 1725.64 666.696ZM1749.77 641.834C1741.95 650.119 1734.07 658.261 1726.11 666.227C1738.06 678.222 1750.09 690.452 1762.22 703C1769.52 694.569 1776.72 685.908 1783.84 677.062C1772.41 665.079 1761.04 653.322 1749.77 641.83L1749.77 641.834ZM1773.63 615.893C1765.89 624.508 1758.09 633.008 1750.22 641.358C1761.48 652.834 1772.84 664.58 1784.26 676.552C1791.43 667.637 1798.51 658.53 1805.53 649.262C1794.83 637.932 1784.19 626.797 1773.63 615.893ZM1797.34 588.953C1789.64 597.867 1781.89 606.694 1774.07 615.401C1784.62 626.29 1795.24 637.409 1805.93 648.728C1813 639.368 1820.01 629.85 1826.94 620.198C1817.01 609.578 1807.15 599.204 1797.34 588.953ZM1404.12 794.478C1399.85 795.538 1395.56 796.541 1391.26 797.482C1410.6 806.965 1430.15 817.036 1449.91 827.74C1452.76 827.287 1455.59 826.799 1458.41 826.277C1440.13 815.119 1422.03 804.533 1404.12 794.474L1404.12 794.478ZM1424.79 788.836C1418.27 790.775 1411.69 792.584 1405.07 794.244C1422.99 804.318 1441.09 814.915 1459.38 826.085C1465.13 825.002 1470.84 823.78 1476.5 822.42C1459.09 810.702 1441.85 799.506 1424.79 788.836ZM1448.84 781.004C1441.17 783.72 1433.43 786.247 1425.63 788.582C1442.7 799.271 1459.95 810.471 1477.37 822.205C1484.6 820.454 1491.75 818.491 1498.83 816.302C1482 804.042 1465.33 792.258 1448.84 781L1448.84 781.004ZM1474.65 771.072C1466.38 774.505 1458.03 777.728 1449.61 780.728C1466.11 791.993 1482.79 803.796 1499.63 816.064C1507.6 813.583 1515.49 810.829 1523.28 807.825C1506.91 795.104 1490.69 782.817 1474.65 771.072L1474.65 771.072ZM1501.31 759.192C1492.74 763.279 1484.09 767.139 1475.37 770.772C1491.41 782.521 1507.63 794.812 1524 807.541C1532.32 804.315 1540.54 800.789 1548.67 797.005C1532.73 783.939 1516.94 771.321 1501.31 759.192L1501.31 759.192ZM1528.36 745.445C1519.65 750.139 1510.86 754.629 1501.98 758.873C1517.61 771.006 1533.39 783.624 1549.33 796.694C1557.79 792.738 1566.14 788.482 1574.4 783.962C1558.91 770.68 1543.55 757.836 1528.36 745.449L1528.36 745.445ZM1555.58 729.959C1546.8 735.225 1537.94 740.276 1528.99 745.104C1544.19 757.49 1559.54 770.338 1575.03 783.62C1583.51 778.957 1591.9 774.018 1600.19 768.798C1585.19 755.447 1570.31 742.465 1555.59 729.955L1555.58 729.959ZM1582.68 712.905C1573.92 718.667 1565.1 724.244 1556.19 729.598C1570.9 742.104 1585.77 755.082 1600.76 768.429C1609.2 763.098 1617.54 757.487 1625.79 751.629C1611.28 738.301 1596.93 725.442 1582.68 712.902L1582.68 712.905ZM1609.72 694.35C1600.97 700.595 1592.15 706.664 1583.25 712.529C1597.49 725.062 1611.84 737.917 1626.34 751.241C1634.68 745.303 1642.92 739.116 1651.08 732.686C1637.18 719.562 1623.38 706.737 1609.72 694.346L1609.72 694.35ZM1636.54 674.497C1627.86 681.153 1619.1 687.644 1610.27 693.958C1623.92 706.341 1637.71 719.162 1651.6 732.275C1659.86 725.753 1668.02 718.993 1676.1 712.018C1662.8 699.167 1649.62 686.68 1636.54 674.497ZM1663.25 653.364C1654.59 660.42 1645.87 667.333 1637.07 674.086C1650.14 686.261 1663.31 698.74 1676.61 711.584C1684.75 704.536 1692.81 697.269 1700.79 689.814C1688.19 677.385 1675.66 665.186 1663.25 653.364ZM1689.72 631.202C1681.14 638.577 1672.49 645.832 1663.77 652.946C1676.16 664.76 1688.68 676.947 1701.27 689.365C1709.32 681.837 1717.29 674.124 1725.18 666.231C1713.27 654.282 1701.45 642.614 1689.72 631.202ZM1716.12 608.007C1707.54 615.701 1698.91 623.302 1690.22 630.776C1701.94 642.176 1713.74 653.833 1725.64 665.766C1733.6 657.797 1741.49 649.654 1749.31 641.365C1738.17 630.016 1727.1 618.885 1716.12 608.007ZM1742.36 583.998C1733.83 591.937 1725.25 599.799 1716.61 607.566C1727.58 618.431 1738.63 629.551 1749.76 640.885C1757.63 632.531 1765.43 624.031 1773.17 615.42C1762.83 604.75 1752.56 594.265 1742.35 583.998L1742.36 583.998ZM1768.55 559.247C1760.03 567.405 1751.46 575.517 1742.84 583.549C1753.03 593.8 1763.29 604.274 1773.61 614.929C1781.43 606.217 1789.18 597.391 1796.88 588.476C1787.37 578.552 1777.94 568.834 1768.55 559.251L1768.55 559.247ZM1316.96 764.208C1298.95 759.783 1281.08 755.75 1263.35 752.079C1303.52 764.385 1344.52 778.853 1386.39 795.868C1362.95 784.48 1339.81 773.933 1316.96 764.208ZM1345.06 762.856C1339.84 764.392 1334.6 765.864 1329.34 767.262L1329.27 767.281L1329.19 767.262C1326.48 766.57 1323.77 765.894 1321.07 765.222C1343.85 774.997 1366.92 785.575 1390.28 797.005C1394.63 796.068 1398.95 795.054 1403.26 793.99C1383.64 782.99 1364.24 772.604 1345.06 762.852L1345.06 762.856ZM1368.94 755.328C1361.34 757.882 1353.69 760.302 1345.99 762.58C1365.18 772.347 1384.59 782.748 1404.21 793.764C1410.86 792.104 1417.47 790.307 1424.04 788.363C1405.47 776.756 1387.1 765.764 1368.94 755.332L1368.94 755.328ZM1395.39 745.845C1386.91 749.075 1378.38 752.148 1369.8 755.044C1387.96 765.483 1406.32 776.491 1424.89 788.106C1432.7 785.775 1440.46 783.251 1448.15 780.539C1430.37 768.418 1412.78 756.857 1395.39 745.849L1395.39 745.845ZM1423.15 734.629C1414.21 738.447 1405.22 742.088 1396.16 745.549C1413.56 756.565 1431.14 768.13 1448.92 780.259C1457.36 777.263 1465.72 774.041 1474.01 770.611C1456.87 758.07 1439.93 746.114 1423.15 734.629ZM1451.69 721.782C1442.48 726.137 1433.21 730.328 1423.88 734.322C1440.66 745.806 1457.59 757.767 1474.74 770.311C1483.48 766.678 1492.14 762.814 1500.72 758.731C1484.21 745.922 1467.86 733.589 1451.69 721.786L1451.69 721.782ZM1480.52 707.501C1471.2 712.322 1461.82 716.981 1452.38 721.455C1468.54 733.262 1484.89 745.599 1501.39 758.412C1510.27 754.168 1519.07 749.686 1527.8 744.988C1511.88 732.022 1496.12 719.523 1480.52 707.498L1480.52 707.501ZM1509.58 691.838C1500.17 697.112 1490.7 702.224 1481.17 707.163C1496.76 719.185 1512.51 731.684 1528.43 744.65C1537.38 739.819 1546.25 734.772 1555.04 729.506C1539.74 716.508 1524.58 703.952 1509.58 691.838ZM1538.6 674.984C1529.2 680.634 1519.73 686.138 1510.2 691.485C1525.19 703.599 1540.35 716.147 1555.65 729.145C1564.56 723.791 1573.4 718.21 1582.16 712.448C1567.5 699.555 1552.98 687.064 1538.6 674.984ZM1567.63 656.994C1558.22 663.005 1548.74 668.881 1539.2 674.62C1553.58 686.691 1568.09 699.182 1582.74 712.068C1591.64 706.203 1600.47 700.135 1609.21 693.889C1595.22 681.203 1581.37 668.927 1567.63 656.99L1567.63 656.994ZM1596.65 637.97C1587.23 644.304 1577.75 650.53 1568.21 656.621C1581.95 668.555 1595.79 680.823 1609.76 693.501C1618.6 687.187 1627.36 680.696 1636.05 674.036C1622.81 661.71 1609.66 649.619 1596.65 637.97ZM1625.53 618.093C1616.15 624.692 1606.71 631.195 1597.22 637.586C1610.22 649.228 1623.36 661.315 1636.58 673.625C1645.38 666.876 1654.11 659.959 1662.77 652.903C1650.25 640.973 1637.85 629.424 1625.53 618.09L1625.53 618.093ZM1654.41 597.387C1645.02 604.239 1635.58 611.022 1626.08 617.705C1638.39 629.028 1650.78 640.57 1663.28 652.488C1672.01 645.375 1680.65 638.116 1689.24 630.741C1677.54 619.369 1665.93 608.238 1654.4 597.387L1654.41 597.387ZM1683.3 575.951C1673.9 583.026 1664.45 590.047 1654.95 596.992C1666.46 607.834 1678.06 618.95 1689.74 630.311C1698.44 622.837 1707.07 615.236 1715.65 607.539C1704.79 596.792 1694 586.253 1683.3 575.955L1683.3 575.951ZM1712.14 553.97C1702.75 561.206 1693.32 568.408 1683.83 575.552C1694.53 585.838 1705.3 596.366 1716.14 607.097C1724.78 599.335 1733.36 591.468 1741.89 583.533C1731.91 573.497 1721.99 563.626 1712.14 553.97ZM1741.03 531.493C1731.62 538.871 1722.17 546.234 1712.67 553.563C1722.5 563.203 1732.41 573.063 1742.37 583.084C1751 575.049 1759.57 566.937 1768.09 558.779C1759.02 549.526 1750 540.435 1741.03 531.493ZM1191.28 732.694C1176.24 732.229 1161.29 731.937 1146.41 731.799C1180.13 736.177 1214.38 741.662 1249.18 748.518C1229.68 742.757 1210.38 737.495 1191.28 732.69L1191.28 732.694ZM1242.88 734.983C1226.65 734.038 1210.51 733.312 1194.47 732.794C1214.9 737.975 1235.55 743.686 1256.43 749.974C1275.16 753.757 1294.05 757.951 1313.09 762.572C1289.38 752.551 1265.98 743.375 1242.88 734.983ZM1281.9 732.513C1277.63 733.93 1273.35 735.325 1269.06 736.68L1269 736.696L1268.95 736.696C1261.02 736.112 1253.11 735.59 1245.23 735.121C1268.89 743.759 1292.87 753.215 1317.17 763.567C1321.19 764.55 1325.22 765.56 1329.26 766.589C1334.25 765.26 1339.22 763.862 1344.17 762.414C1323.16 751.744 1302.4 741.793 1281.9 732.521L1281.9 732.513ZM1309.62 722.865C1300.73 726.103 1291.81 729.218 1282.85 732.202C1303.35 741.489 1324.1 751.453 1345.12 762.138C1352.84 759.86 1360.52 757.437 1368.16 754.879C1348.41 743.548 1328.9 732.893 1309.63 722.865L1309.62 722.865ZM1339.05 711.661C1329.57 715.429 1320.05 719.062 1310.48 722.554C1329.76 732.594 1349.26 743.256 1369.01 754.594C1377.63 751.698 1386.18 748.626 1394.68 745.392C1375.92 733.527 1357.37 722.293 1339.05 711.657L1339.05 711.661ZM1369.34 699.136C1359.55 703.342 1349.71 707.417 1339.84 711.35C1358.16 721.993 1376.7 733.231 1395.46 745.1C1404.53 741.639 1413.55 737.998 1422.5 734.18C1404.58 721.924 1386.85 710.24 1369.34 699.136ZM1400.13 685.424C1390.16 690.018 1380.14 694.485 1370.08 698.817C1387.59 709.921 1405.31 721.617 1423.23 733.873C1432.57 729.878 1441.85 725.692 1451.07 721.336C1433.9 708.807 1416.93 696.87 1400.14 685.424L1400.13 685.424ZM1431.24 670.633C1421.15 675.572 1411.02 680.4 1400.84 685.098C1417.63 696.547 1434.59 708.481 1451.76 721.01C1461.21 716.531 1470.6 711.876 1479.94 707.052C1463.53 694.415 1447.29 682.271 1431.24 670.637L1431.24 670.633ZM1462.51 654.877C1452.35 660.128 1442.16 665.275 1431.91 670.302C1447.96 681.933 1464.18 694.077 1480.58 706.714C1490.13 701.771 1499.6 696.659 1509.02 691.385C1493.35 678.745 1477.85 666.592 1462.51 654.877ZM1493.84 638.285C1483.66 643.804 1473.43 649.224 1463.16 654.543C1478.5 666.25 1493.99 678.403 1509.65 691.036C1519.18 685.689 1528.65 680.181 1538.06 674.535C1523.19 662.045 1508.44 649.934 1493.84 638.285ZM1525.2 620.932C1515.01 626.682 1504.77 632.358 1494.48 637.939C1509.05 649.577 1523.79 661.687 1538.66 674.17C1548.2 668.432 1557.69 662.548 1567.11 656.537C1553.01 644.288 1539.04 632.42 1525.2 620.932L1525.2 620.932ZM1556.62 602.907C1546.39 608.868 1536.13 614.763 1525.82 620.586C1539.65 632.066 1553.61 643.927 1567.69 656.168C1577.23 650.076 1586.71 643.85 1596.14 637.517C1582.84 625.61 1569.68 614.137 1556.62 602.907ZM1588.09 584.274C1577.84 590.42 1567.56 596.515 1557.22 602.549C1570.28 613.772 1583.42 625.234 1596.71 637.129C1606.21 630.738 1615.65 624.231 1625.03 617.632C1612.62 606.217 1600.3 595.094 1588.09 584.271L1588.09 584.274ZM1619.63 565.135C1609.36 571.431 1599.04 577.699 1588.68 583.917C1600.88 594.729 1613.18 605.841 1625.58 617.245C1635.08 610.561 1644.53 603.778 1653.92 596.922C1642.41 586.087 1630.97 575.46 1619.63 565.135ZM1651.26 545.574C1640.95 551.996 1630.6 558.402 1620.21 564.778C1631.54 575.095 1642.96 585.707 1654.46 596.527C1663.96 589.583 1673.42 582.561 1682.82 575.483C1672.23 565.301 1661.71 555.322 1651.26 545.57L1651.26 545.574ZM1682.96 525.713C1672.63 532.215 1662.26 538.722 1651.84 545.213C1662.27 554.953 1672.78 564.916 1683.35 575.083C1692.84 567.939 1702.27 560.738 1711.66 553.501C1702.04 544.076 1692.46 534.785 1682.96 525.713ZM1714.82 505.613C1704.43 512.174 1694.01 518.757 1683.54 525.348C1693.02 534.405 1702.58 543.684 1712.18 553.094C1721.69 545.762 1731.15 538.395 1740.56 531.017C1731.93 522.421 1723.35 513.921 1714.82 505.609L1714.82 505.613ZM1085.61 725.665C1072.81 727.846 1060.06 730.059 1047.35 732.279C1076.27 731.395 1105.53 730.931 1135.12 731.05C1118.48 729.003 1101.98 727.213 1085.61 725.665ZM1128.91 718.425C1115.28 720.652 1101.69 722.926 1088.14 725.231C1105.56 726.902 1123.13 728.837 1140.84 731.08C1156.53 731.184 1172.31 731.457 1188.19 731.922C1168.22 726.948 1148.46 722.462 1128.91 718.425ZM1172.66 711.484C1158.65 713.639 1144.68 715.855 1130.77 718.121C1150.75 722.27 1170.95 726.886 1191.36 732.018C1207.7 732.521 1224.13 733.235 1240.66 734.176C1217.69 725.872 1195.03 718.333 1172.66 711.484L1172.66 711.484ZM1214.48 704.01C1212.58 704.709 1210.68 705.404 1208.78 706.096L1208.75 706.107L1208.72 706.107C1197.18 707.774 1185.67 709.491 1174.18 711.25C1196.82 718.202 1219.76 725.872 1243.01 734.315C1251.62 734.818 1260.26 735.382 1268.94 736.016C1272.96 734.741 1276.98 733.435 1280.99 732.106C1258.52 721.958 1236.36 712.617 1214.49 704.01L1214.48 704.01ZM1246.59 691.873C1236.23 695.902 1225.84 699.835 1215.44 703.664C1237.31 712.283 1259.47 721.636 1281.94 731.795C1290.94 728.807 1299.89 725.688 1308.82 722.446C1287.8 711.53 1267.06 701.352 1246.59 691.873ZM1279.48 678.752C1268.83 683.104 1258.16 687.371 1247.46 691.531C1267.93 701.018 1288.66 711.204 1309.67 722.131C1319.26 718.636 1328.81 714.999 1338.31 711.227C1318.44 699.712 1298.84 688.915 1279.48 678.752ZM1312.82 664.802C1302 669.427 1291.16 673.97 1280.29 678.418C1299.65 688.589 1319.25 699.393 1339.1 710.916C1349 706.983 1358.84 702.908 1368.65 698.702C1349.81 686.772 1331.19 675.468 1312.82 664.802ZM1346.43 650.142C1335.51 654.997 1324.57 659.778 1313.59 664.476C1331.96 675.146 1350.56 686.453 1369.39 698.383C1379.47 694.051 1389.5 689.58 1399.49 684.982C1381.59 672.799 1363.9 661.157 1346.43 650.142ZM1380.21 634.855C1369.23 639.91 1358.21 644.895 1347.16 649.811C1364.62 660.827 1382.31 672.473 1400.19 684.66C1410.39 679.962 1420.53 675.134 1430.63 670.191C1413.63 657.889 1396.82 646.082 1380.21 634.855ZM1414.11 619.034C1403.08 624.254 1392.02 629.424 1380.92 634.532C1397.51 645.752 1414.32 657.562 1431.3 669.861C1441.56 664.833 1451.76 659.682 1461.93 654.432C1445.82 642.145 1429.88 630.342 1414.11 619.038L1414.11 619.034ZM1448.13 602.749C1437.05 608.115 1425.94 613.438 1414.8 618.708C1430.55 630.012 1446.48 641.807 1462.58 654.09C1472.86 648.774 1483.09 643.351 1493.27 637.832C1478.07 625.706 1463.02 613.991 1448.13 602.745L1448.13 602.749ZM1482.24 586.064C1471.12 591.549 1459.98 597.007 1448.8 602.423C1463.68 613.665 1478.72 625.368 1493.91 637.49C1504.2 631.909 1514.45 626.232 1524.65 620.479C1510.39 608.645 1496.23 597.118 1482.24 586.064ZM1516.45 569.061C1505.3 574.642 1494.11 580.207 1482.89 585.742C1496.87 596.788 1511.01 608.299 1525.27 620.129C1535.58 614.306 1545.85 608.411 1556.08 602.446C1542.76 591.011 1529.53 579.811 1516.45 569.061ZM1550.8 551.796C1539.6 557.446 1528.37 563.1 1517.1 568.734C1530.17 579.477 1543.39 590.662 1556.69 602.092C1567.03 596.058 1577.32 589.959 1587.57 583.814C1575.22 572.879 1562.95 562.139 1550.8 551.796L1550.8 551.796ZM1585.29 534.343C1574.04 540.043 1562.76 545.758 1551.44 551.473C1563.57 561.805 1575.83 572.533 1588.16 583.456C1598.53 577.238 1608.84 570.97 1619.12 564.671C1607.77 554.335 1596.48 544.18 1585.29 534.343L1585.29 534.343ZM1619.95 516.775C1612.14 520.735 1604.3 524.706 1596.45 528.689L1585.92 534.024C1597.09 543.849 1608.37 553.989 1619.7 564.313C1630.1 557.934 1640.46 551.527 1650.77 545.105C1640.43 535.453 1630.16 526.016 1619.95 516.779L1619.95 516.775ZM1654.83 499.161C1643.45 504.884 1632.04 510.656 1620.59 516.452C1630.77 525.674 1641.02 535.107 1651.34 544.74C1661.76 538.249 1672.13 531.743 1682.46 525.244C1673.2 516.402 1663.98 507.668 1654.83 499.161L1654.83 499.161ZM1689.97 481.581C1678.51 487.277 1667.01 493.038 1655.46 498.842C1664.59 507.334 1673.8 516.053 1683.04 524.875C1693.51 518.284 1703.93 511.697 1714.33 505.137C1706.18 497.194 1698.03 489.263 1689.97 481.577L1689.97 481.581ZM994.675 735.014C983.601 739.016 972.538 742.953 961.494 746.793C968.625 745.53 975.767 744.259 982.925 742.987C1001.13 739.753 1019.42 736.496 1037.81 733.266C1023.35 733.754 1008.97 734.345 994.671 735.014L994.675 735.014ZM1031.83 721.348C1020.15 725.73 1008.48 730.013 996.829 734.238C1011.98 733.539 1027.23 732.928 1042.57 732.432C1056 730.078 1069.48 727.735 1083.01 725.423C1065.8 723.821 1048.75 722.473 1031.83 721.348ZM1068.79 707.232C1056.97 711.811 1045.15 716.335 1033.35 720.772C1050.61 721.935 1068.02 723.322 1085.58 724.985C1099.36 722.634 1113.19 720.314 1127.07 718.045C1107.44 714.015 1088.01 710.424 1068.79 707.236L1068.79 707.232ZM1105.74 692.748C1093.82 697.488 1081.92 702.143 1070.03 706.756C1089.45 709.998 1109.08 713.643 1128.93 717.741C1142.97 715.448 1157.05 713.205 1171.18 711.031C1149.08 704.294 1127.27 698.226 1105.74 692.752L1105.74 692.748ZM1142.56 677.915C1130.63 682.766 1118.71 687.583 1106.8 692.322C1128.48 697.849 1150.45 703.983 1172.71 710.793C1184.64 708.961 1196.6 707.175 1208.6 705.446C1210.25 704.847 1211.9 704.244 1213.54 703.637C1189.53 694.208 1165.87 685.662 1142.56 677.911L1142.56 677.915ZM1179.41 662.793C1167.45 667.752 1155.49 672.653 1143.53 677.519C1166.83 685.286 1190.49 693.847 1214.5 703.292C1224.93 699.459 1235.35 695.518 1245.75 691.481C1223.32 681.115 1201.21 671.574 1179.41 662.793ZM1216.24 647.411C1204.26 652.446 1192.28 657.462 1180.3 662.429C1202.09 671.217 1224.19 680.769 1246.61 691.147C1257.33 686.98 1268.03 682.708 1278.7 678.349C1257.59 667.284 1236.77 656.982 1216.24 647.411L1216.24 647.411ZM1253.09 631.836C1241.09 636.937 1229.08 642.01 1217.08 647.057C1237.61 656.637 1258.41 666.942 1279.51 678.011C1290.4 673.559 1301.26 669.016 1312.09 664.384C1292.16 652.826 1272.5 641.999 1253.09 631.836ZM1289.97 616.088C1277.95 621.239 1265.92 626.378 1253.89 631.494C1273.28 641.665 1292.94 652.496 1312.86 664.057C1323.84 659.356 1334.8 654.574 1345.73 649.715C1326.9 637.855 1308.32 626.67 1289.97 616.092L1289.97 616.088ZM1326.89 600.237C1314.85 605.418 1302.8 610.596 1290.74 615.758C1309.09 626.34 1327.66 637.521 1346.48 649.385C1357.53 644.469 1368.56 639.476 1379.55 634.421C1361.78 622.418 1344.24 611.072 1326.89 600.237L1326.89 600.237ZM1363.93 584.286L1356.81 587.351C1347.1 591.538 1337.37 595.728 1327.64 599.914C1344.98 610.75 1362.5 622.092 1380.26 634.091C1391.37 628.982 1402.44 623.812 1413.48 618.585C1396.77 606.609 1380.26 595.209 1363.93 584.282L1363.93 584.286ZM1401.09 568.296C1388.96 573.508 1376.82 578.732 1364.67 583.967C1380.99 594.891 1397.49 606.283 1414.19 618.255C1425.33 612.981 1436.45 607.654 1447.53 602.288C1431.88 590.481 1416.41 579.17 1401.09 568.296ZM1438.31 552.341C1426.16 557.534 1413.99 562.754 1401.8 567.989C1417.11 578.859 1432.57 590.162 1448.2 601.962C1459.39 596.546 1470.54 591.084 1481.66 585.6C1467.06 574.077 1452.63 563.046 1438.32 552.338L1438.31 552.341ZM1475.72 536.436C1463.5 541.606 1451.27 546.811 1439.02 552.042C1453.31 562.742 1467.73 573.762 1482.31 585.281C1493.54 579.742 1504.73 574.177 1515.89 568.596C1502.36 557.488 1489 546.841 1475.72 536.44L1475.72 536.436ZM1513.34 520.616C1501.06 525.743 1488.75 530.921 1476.43 536.137C1489.69 546.534 1503.03 557.169 1516.54 568.266C1527.81 562.631 1539.05 556.977 1550.25 551.324C1537.83 540.757 1525.55 530.591 1513.34 520.616ZM1551.19 504.945C1538.83 510.015 1526.45 515.146 1514.04 520.324C1526.23 530.287 1538.49 540.442 1550.89 550.997C1562.21 545.282 1573.49 539.567 1584.74 533.867C1573.47 523.957 1562.3 514.363 1551.19 504.945ZM1589.33 489.474C1576.88 494.467 1564.4 499.533 1551.89 504.661C1562.98 514.067 1574.12 523.65 1585.38 533.544L1596.17 528.075C1603.94 524.134 1611.69 520.212 1619.42 516.295C1609.32 507.153 1599.29 498.216 1589.33 489.474ZM1627.69 474.287C1615.17 479.173 1602.61 484.147 1590.02 489.194C1599.96 497.924 1609.97 506.85 1620.05 515.972C1631.5 510.172 1642.92 504.4 1654.3 498.673C1645.37 490.377 1636.51 482.276 1627.69 474.283L1627.69 474.287ZM1666.39 459.431C1653.76 464.197 1641.08 469.063 1628.38 474.018C1637.18 481.996 1646.02 490.077 1654.93 498.358C1666.48 492.55 1677.98 486.789 1689.45 481.089C1681.71 473.722 1674.04 466.571 1666.39 459.427L1666.39 459.431ZM1706.19 444.728C1712.62 450.896 1719.04 456.992 1725.53 463.314C1786.78 433.436 1846.84 405.846 1905.62 383.013C1840.76 398.971 1774.11 420.169 1706.19 444.728ZM1724.9 463.621C1718.38 457.284 1711.95 451.161 1705.49 444.977C1692.73 449.598 1679.92 454.326 1667.07 459.173C1674.72 466.298 1682.36 473.431 1690.08 480.782C1701.73 474.994 1713.34 469.267 1724.9 463.625L1724.9 463.621ZM1746.41 484.888C1739.4 477.921 1732.36 470.892 1725.41 464.116C1713.85 469.759 1702.25 475.482 1690.6 481.27C1698.65 488.936 1706.77 496.856 1714.91 504.78L1718.09 502.767C1727.57 496.779 1737 490.818 1746.41 484.892L1746.41 484.888ZM1769.59 508.125C1761.99 500.424 1754.42 492.846 1746.89 485.364C1737.43 491.325 1727.94 497.321 1718.41 503.339L1715.39 505.248C1723.9 513.545 1732.47 522.029 1741.08 530.61C1750.63 523.12 1760.13 515.615 1769.59 508.125ZM1794.34 533.348C1786.19 524.933 1778.13 516.775 1770.06 508.601C1760.6 516.095 1751.1 523.592 1741.56 531.082C1750.51 540.008 1759.51 549.084 1768.56 558.322C1777.2 550.041 1785.79 541.706 1794.34 533.348ZM1820.46 560.707C1811.87 551.642 1803.29 542.609 1794.79 533.821C1786.25 542.178 1777.66 550.509 1769.02 558.79C1778.4 568.366 1787.82 578.064 1797.31 587.973C1805.08 578.966 1812.79 569.867 1820.46 560.707ZM1848.04 590.155C1838.95 580.364 1829.9 570.666 1820.92 561.183C1813.25 570.344 1805.54 579.443 1797.77 588.45C1807.57 598.689 1817.41 609.048 1827.33 619.653C1834.3 609.943 1841.2 600.099 1848.05 590.155L1848.04 590.155ZM1877.06 621.765C1867.48 611.222 1857.96 600.848 1848.49 590.643C1841.64 600.587 1834.75 610.431 1827.78 620.141C1838 631.064 1848.26 642.126 1858.61 653.449C1864.83 643.055 1870.98 632.478 1877.06 621.765L1877.06 621.765ZM1907.54 655.642C1897.47 644.319 1887.47 633.219 1877.52 622.268C1871.44 632.981 1865.29 643.555 1859.06 653.948C1869.68 665.574 1880.39 677.462 1891.15 689.515C1896.7 678.437 1902.15 667.138 1907.53 655.642L1907.54 655.642ZM1920 1058.96C1916.86 1055.31 1913.72 1051.69 1910.58 1048.05C1898.62 1048.87 1885.74 1047.1 1871.84 1042.47L1871.76 1042.44L1871.7 1042.38C1863.56 1033.24 1855.46 1024.27 1847.38 1015.39C1836.12 1016.14 1824.21 1015.04 1811.57 1011.89L1811.48 1011.87L1811.41 1011.8C1802.21 1002.02 1793.05 992.395 1783.95 982.946C1773.53 983.733 1762.67 983.253 1751.29 981.318L1751.2 981.302L1751.13 981.233C1740.77 970.89 1730.49 960.807 1720.25 950.863C1710.82 951.716 1701.09 951.712 1691.02 950.744L1690.92 950.733L1690.84 950.66C1679.2 939.867 1667.65 929.381 1656.17 919.095C1647.89 920.009 1639.42 920.394 1630.74 920.163L1630.63 920.163L1630.55 920.09C1617.45 908.99 1604.46 898.216 1591.55 887.731C1584.63 888.66 1577.61 889.305 1570.46 889.582L1570.35 889.582L1570.26 889.521C1555.4 878.251 1540.68 867.42 1526.06 856.927C1520.82 857.764 1515.53 858.467 1510.18 859.005L1510.08 859.016L1509.99 858.959C1492.92 847.743 1476.02 837.027 1459.27 826.795C1456.16 827.379 1453.04 827.928 1449.91 828.428L1449.81 828.443L1449.72 828.393C1429.67 817.531 1409.83 807.318 1390.2 797.716C1390.01 797.758 1389.82 797.804 1389.63 797.846L1389.53 797.866L1389.45 797.831C1344.06 779.257 1299.68 763.693 1256.28 750.631C1217.1 742.715 1178.62 736.542 1140.81 731.756C1107.67 731.538 1074.94 732.064 1042.63 733.105C1022.65 736.607 1002.79 740.141 983.028 743.652C974.511 745.169 966.021 746.674 957.542 748.18C597.88 872.724 254.819 907.3 4.05032e-05 595.659L4.05938e-05 594.622C253.678 905.395 595.081 872.317 953.257 748.937C582.301 814.669 252.872 863.994 4.4089e-05 554.642L4.41789e-05 553.613C253.693 864.501 584.659 813.629 957.362 747.519C969.02 743.483 980.698 739.327 992.387 735.113C935.735 737.802 880.408 741.72 826.426 745.549C500.893 768.613 224.145 788.202 0.00383185 513.717L0.00383194 512.665C224.056 787.522 500.805 767.941 826.383 744.873C881.065 740.998 937.125 737.03 994.545 734.338C1006.42 730.043 1018.31 725.692 1030.21 721.232C927.986 714.503 830.934 715.767 738.732 716.973C447.56 720.775 204.756 723.886 5.12508e-05 472.72L5.13418e-05 471.679C204.691 723.21 447.502 720.096 738.724 716.297C831.383 715.087 928.946 713.816 1031.74 720.66C1043.64 716.193 1055.56 711.626 1067.49 707.014C929.33 684.183 801.8 681.541 683.374 679.094C414.701 673.536 192.86 668.923 0.003839 431.834L0.0038391 430.781C192.818 668.24 414.659 672.86 683.386 678.418C802.164 680.872 930.098 683.519 1068.73 706.533C1080.69 701.901 1092.66 697.223 1104.63 692.46C935.858 649.711 784.251 643.547 646.138 637.935C393.02 627.649 185.188 619.184 0.00384258 390.928L0.00384267 389.891C185.157 618.516 392.993 626.973 646.157 637.259C784.562 642.886 936.511 649.066 1105.7 692.038C1117.66 687.283 1129.62 682.451 1141.58 677.585C945.565 612.574 773.99 603.632 620.191 595.64C378.202 583.064 180.165 572.732 0.00384616 350.004L0.00384625 348.963C180.142 572.06 378.182 582.388 620.221 594.967C774.271 602.972 946.145 611.929 1142.55 677.197C1154.53 672.319 1166.53 667.406 1178.52 662.436C957.477 573.57 768.714 562.669 601.809 553.063C367.941 539.601 176.936 528.555 0.00384973 309.11L0.00384983 308.065C176.916 527.883 367.926 538.925 601.839 552.391C768.972 562.013 958.003 572.928 1179.41 662.071C1191.42 657.097 1203.42 652.077 1215.43 647.031C970.929 533.214 766.986 521.111 588.749 510.556C360.868 497.06 174.973 486.002 0.00385331 268.228L0.0038534 267.179C174.966 485.326 360.856 496.384 588.783 509.88C767.224 520.451 971.42 532.569 1216.26 646.677C1228.28 641.626 1240.3 636.545 1252.32 631.437C985.536 491.882 767.889 479.199 579.598 468.261C356.126 455.282 173.956 444.647 0.00385688 227.345L0.00385697 226.293C173.956 443.971 356.118 454.602 579.633 467.585C768.115 478.531 986.005 491.229 1253.12 631.095C1265.17 625.975 1277.22 620.828 1289.26 615.67C1001.05 449.755 770.83 437.08 573.404 426.238C353.142 414.139 173.668 404.229 0.00386046 186.471L0.00386055 185.418C173.664 403.553 353.134 413.463 573.439 425.562C771.045 436.416 1001.5 449.106 1290.02 615.339C1302.09 610.17 1314.15 604.988 1326.2 599.803C1017.27 407.079 775.346 394.842 569.499 384.491C351.514 373.525 173.937 364.542 0.00386403 145.596L0.00386412 144.54C173.94 363.866 351.51 372.846 569.53 383.811C775.549 394.174 1017.7 406.426 1326.95 599.477C1336.83 595.225 1346.71 590.973 1356.58 586.721L1363.27 583.84C1034.09 363.873 781.156 352.539 567.414 343.01C350.968 333.357 174.662 325.445 0.0038676 104.722L0.00386769 103.661C174.666 324.769 350.965 332.678 567.437 342.33C781.352 351.871 1034.5 363.209 1364 583.518C1376.16 578.279 1388.31 573.048 1400.45 567.832C1051.4 320.249 788.022 310.201 566.788 301.774C351.291 293.566 175.757 286.833 0.00387118 63.843L0.00387127 62.7829C175.764 286.157 351.283 292.89 566.811 301.098C788.21 309.532 1051.81 319.592 1401.17 567.524C1413.36 562.285 1425.54 557.066 1437.7 551.869C1069.14 276.409 795.736 267.855 567.364 260.776C352.328 254.109 177.159 248.632 0.007781 22.9722L0.00778109 21.9122C177.166 247.959 352.32 253.429 567.379 260.097C795.917 267.183 1069.53 275.748 1438.41 551.566C1450.66 546.33 1462.9 541.122 1475.12 535.952C1087.25 232.281 804.196 225.513 568.927 219.982C359.708 215.062 188.225 210.987 14.377 -4.45245e-05L15.2257 -4.44504e-05C188.794 210.326 360.039 214.394 568.935 219.306C804.369 224.841 1087.64 231.613 1475.82 535.653C1488.15 530.433 1500.46 525.256 1512.75 520.124C1105.71 187.888 813.289 183.179 571.319 179.377C376.013 176.308 213.535 173.711 50.1466 -4.13975e-05L51.0644 -4.13172e-05C214.149 173.043 376.374 175.636 571.327 178.701C813.458 182.507 1106.1 187.22 1513.44 519.832C1525.86 514.651 1538.25 509.516 1550.62 504.446C1124.49 143.28 822.935 140.86 574.418 138.94C394.71 137.549 242.703 136.332 91.3729 -3.77934e-05L92.3828 -3.77051e-05C243.383 135.664 395.098 136.881 574.418 138.268C823.096 140.188 1124.87 142.604 1551.31 504.161C1563.82 499.03 1576.3 493.964 1588.75 488.967C1143.58 98.4648 833.065 98.5608 578.12 98.6606C416.836 98.7221 277.77 98.7451 140.913 -3.34624e-05L142.092 -3.33594e-05C278.565 98.0614 417.285 98.0461 578.12 97.9847C833.23 97.8849 1143.95 97.785 1589.45 488.687C1602.04 483.636 1614.61 478.658 1627.14 473.769C1162.94 53.5919 843.613 56.2727 582.344 58.5158C444.876 59.6949 323.466 60.6974 205.475 0.00375636L206.984 0.00375649C324.495 60.0176 445.448 59.0151 582.336 57.8398C843.767 55.5968 1163.31 52.9197 1627.82 473.504C1640.53 468.545 1653.21 463.679 1665.84 458.908C1182.58 8.62286 854.542 14.0039 587.017 18.4939C488.156 20.1531 397.551 21.6472 310.418 0.00376554L313.259 0.00376578C399.514 20.952 489.216 19.4618 587.005 17.8179C854.692 13.3279 1182.95 7.94305 1666.53 458.647C1679.37 453.804 1692.18 449.068 1704.95 444.447C1400.77 153.282 1157.35 41.4393 951.855 0.00382161L955.238 0.00382191C1160.19 41.9885 1402.83 154.265 1705.64 444.198C1775.46 418.94 1843.95 397.216 1910.53 381.092C1913.69 379.878 1916.85 378.68 1920 377.493L1920 378.223C1918.55 378.768 1917.1 379.318 1915.65 379.867C1917.1 379.521 1918.55 379.179 1920 378.837L1920 379.536C1916.91 380.259 1913.82 380.992 1910.73 381.741C1850.48 404.894 1788.88 433.147 1726.04 463.798C1732.97 470.554 1739.98 477.567 1746.97 484.519C1805.86 447.412 1863.44 411.758 1919.99 381.15L1919.99 381.914C1863.59 412.449 1806.18 447.996 1747.46 484.995C1754.97 492.462 1762.52 500.025 1770.11 507.707C1778.44 501.1 1786.75 494.505 1795.02 487.934C1837.37 454.295 1878.91 421.298 1920 391.098L1920 391.927C1879.03 422.051 1837.62 454.941 1795.4 488.479C1787.16 495.028 1778.88 501.6 1770.57 508.183C1778.62 516.337 1786.67 524.484 1794.8 532.88C1813.34 514.724 1831.68 496.457 1849.85 478.343C1873.46 454.814 1896.79 431.557 1919.99 409.157L1919.99 410.075C1896.94 432.341 1873.74 455.455 1850.28 478.835C1832.12 496.941 1813.79 515.204 1795.25 533.356C1803.73 542.125 1812.3 551.143 1820.87 560.192C1845.12 531.186 1868.86 501.569 1892.34 472.282C1901.59 460.74 1910.81 449.248 1919.99 437.864L1919.99 438.901C1910.97 450.086 1901.92 461.378 1892.83 472.716C1869.34 502.018 1845.59 531.643 1821.33 560.665C1830.3 570.132 1839.34 579.815 1848.42 589.59C1872.85 554.074 1896.57 517.297 1920 480.747L1920 481.946C1896.72 518.261 1873.15 554.792 1848.87 590.078C1858.33 600.268 1867.84 610.627 1877.4 621.155C1891.91 595.578 1906.06 569.207 1920 542.524L1920 543.922C1906.21 570.298 1892.21 596.369 1877.86 621.662C1887.79 632.6 1897.77 643.681 1907.83 654.989C1911.93 646.224 1915.98 637.348 1920 628.379L1920 629.954C1916.13 638.561 1912.24 647.088 1908.3 655.515C1912.19 659.894 1916.09 664.292 1920 668.716L1920 669.707C1915.99 665.167 1911.99 660.654 1908 656.164C1902.62 667.656 1897.16 678.952 1891.62 690.025C1901.02 700.557 1910.48 711.289 1920 722.162L1920 723.157C1910.38 712.157 1900.81 701.306 1891.3 690.655C1885.76 701.721 1880.13 712.568 1874.39 723.138C1886.08 736.158 1897.85 749.448 1909.7 762.983C1913.19 755.432 1916.62 747.727 1920 739.88L1920 741.509C1916.77 748.975 1913.5 756.315 1910.17 763.513C1913.44 767.246 1916.72 770.999 1920 774.774L1920 775.769C1916.62 771.878 1913.24 768.011 1909.87 764.166C1904.72 775.301 1899.45 786.093 1894.05 796.514C1902.65 806.293 1911.3 816.206 1920 826.258L1920 827.256C1911.19 817.074 1902.44 807.03 1893.72 797.132C1888.29 807.56 1882.74 817.619 1877.02 827.229C1890.05 841.917 1903.18 856.935 1916.41 872.256C1917.61 870.02 1918.81 867.754 1919.99 865.465L1919.99 866.867C1918.96 868.861 1917.91 870.831 1916.86 872.778L1919.99 876.412L1919.99 877.414L1916.52 873.393C1911.13 883.356 1905.55 892.77 1899.75 901.589C1906.48 909.313 1913.22 917.11 1919.99 924.987L1919.99 925.99C1913.09 917.962 1906.22 910.023 1899.38 902.157C1893.5 911.049 1887.42 919.333 1881.09 926.935C1893.97 941.561 1906.92 956.433 1919.99 971.665L1919.99 972.672C1906.78 957.262 1893.68 942.229 1880.67 927.442C1874.24 935.12 1867.58 942.114 1860.64 948.34C1873.98 963.273 1887.4 978.471 1900.95 994.062C1907.59 989.038 1913.93 983.157 1919.99 976.497L1919.99 977.492C1914.06 983.952 1907.87 989.668 1901.39 994.576C1907.56 1001.68 1913.76 1008.89 1919.99 1016.17L1919.99 1017.18C1913.59 1009.69 1907.21 1002.28 1900.87 994.976C1893.3 1000.64 1885.36 1005.22 1876.99 1008.61C1888.18 1021.25 1899.48 1034.21 1910.81 1047.33C1913.94 1047.1 1916.99 1046.7 1919.98 1046.12L1919.98 1046.84C1917.17 1047.38 1914.31 1047.76 1911.38 1048C1914.25 1051.31 1917.12 1054.63 1919.98 1057.95L1919.98 1058.95L1920 1058.96Z" fill="white" fill-opacity="0.3"/>
</svg>
