<svg width="545" height="987" viewBox="0 0 545 987" fill="none" xmlns="http://www.w3.org/2000/svg">
<path d="M25.7805 964.562C23.9659 959.988 22.8411 955.171 22.4576 950.096C17.9625 954.174 13.4259 958.266 8.80633 962.384C6.47972 969.364 5.57438 975.843 5.95193 981.868C12.6669 976.066 19.3047 970.29 25.7785 964.564M42.0332 931.651C40.5289 927.127 39.5583 922.413 39.1531 917.501C34.3694 922.101 29.4987 926.728 24.551 931.379C22.9735 937.723 22.4042 943.71 22.7561 949.374C29.305 943.428 35.7393 937.518 42.0332 931.651ZM48.0424 944.6C45.6071 940.568 43.6304 936.375 42.1478 932.008C35.8282 937.897 29.3663 943.829 22.7897 949.796C23.1495 954.891 24.2604 959.721 26.0671 964.309C33.5471 957.69 40.8689 951.123 48.0404 944.598L48.0424 944.6ZM56.7044 956.239C53.4606 952.603 50.6161 948.829 48.2164 944.897C41.031 951.43 33.6934 958.012 26.1976 964.644C27.9312 968.954 30.2795 973.046 33.1952 976.94C41.2108 969.984 49.0268 963.091 56.7044 956.239ZM58.2799 898.359C57.0089 893.969 56.1193 889.445 55.6667 884.769C50.6319 889.944 45.528 895.14 40.2936 900.375C39.327 906.072 39.074 911.518 39.4456 916.747C45.8581 910.577 52.1263 904.449 58.2779 898.359L58.2799 898.359ZM63.4075 911.427C61.3577 907.327 59.6715 903.097 58.3847 898.731C52.2074 904.842 45.9174 910.989 39.4812 917.184C39.8667 922.115 40.8234 926.844 42.3198 931.385C49.5072 924.683 56.5345 918.03 63.4095 911.427L63.4075 911.427ZM70.7965 923.597C68.039 919.768 65.6254 915.818 63.5677 911.743C56.6788 918.36 49.6376 925.024 42.4344 931.74C43.9051 936.116 45.8759 940.317 48.3093 944.358C55.9731 937.384 63.4767 930.463 70.7965 923.597ZM80.2394 934.934C76.8414 931.357 73.7577 927.671 70.9982 923.87C63.6665 930.743 56.1569 937.674 48.4832 944.654C50.879 948.59 53.7216 952.368 56.9634 956.008C64.894 948.929 72.6626 941.902 80.2394 934.934ZM91.5443 945.51C87.5691 942.167 83.8588 938.73 80.4687 935.181C72.8899 942.151 65.1194 949.18 57.1848 956.261C60.3871 959.828 63.9867 963.255 67.9402 966.557C75.9795 959.488 83.8588 952.469 91.5443 945.51ZM104.506 955.42C100.013 952.281 95.7705 949.054 91.8033 945.732C84.1177 952.69 76.2385 959.709 68.2011 966.778C72.1131 970.03 76.3769 973.156 80.9569 976.175C88.9746 969.204 96.8321 962.284 104.506 955.42ZM118.956 964.729C113.998 961.774 109.276 958.738 104.79 955.617C97.1187 962.479 89.2651 969.398 81.2495 976.368C85.7881 979.345 90.635 982.215 95.7666 984.987C103.658 978.184 111.391 971.429 118.956 964.729ZM74.4495 864.657C73.3525 860.48 72.54 856.203 72.034 851.82C66.8174 857.634 61.504 863.479 56.0343 869.369C55.554 874.399 55.5481 879.261 55.9572 883.981C62.263 877.494 68.4462 871.047 74.4495 864.657ZM78.8893 877.636C77.1478 873.542 75.7008 869.346 74.5504 865.044C68.5253 871.456 62.3203 877.925 55.9928 884.431C56.4277 889.127 57.2994 893.669 58.5646 898.077C65.495 891.214 72.2989 884.39 78.8893 877.636ZM85.2484 890.112C82.8981 886.162 80.8186 882.119 79.0375 877.97C72.4353 884.737 65.6136 891.573 58.6693 898.448C59.9502 902.827 61.6265 907.065 63.6724 911.175C71.0338 904.1 78.2488 897.072 85.2504 890.112L85.2484 890.112ZM93.4024 902.067C90.4788 898.277 87.8122 894.394 85.4263 890.414C78.4188 897.378 71.1978 904.412 63.8306 911.491C65.8844 915.571 68.292 919.525 71.0496 923.36C78.6758 916.206 86.1439 909.104 93.4024 902.067ZM103.223 913.482C99.7715 909.854 96.5632 906.139 93.612 902.335C86.3514 909.374 78.8794 916.479 71.2532 923.633C74.0087 927.437 77.0944 931.124 80.4944 934.703C88.2451 927.575 95.8397 920.494 103.225 913.482L103.223 913.482ZM114.581 924.369C110.647 920.903 106.925 917.359 103.454 913.729C96.071 920.741 88.4725 927.821 80.7237 934.95C84.1158 938.499 87.8241 941.938 91.7993 945.283C99.554 938.262 107.182 931.28 114.581 924.371L114.581 924.369ZM127.307 934.766C122.939 931.452 118.784 928.06 114.836 924.594C107.439 931.501 99.811 938.483 92.0582 945.503C96.0275 948.827 100.268 952.052 104.765 955.191C112.43 948.335 119.98 941.515 127.307 934.766ZM141.291 944.687C136.539 941.515 131.955 938.28 127.582 934.969C120.256 941.716 112.711 948.533 105.049 955.386C109.536 958.507 114.261 961.543 119.219 964.494C126.726 957.844 134.099 951.237 141.291 944.687ZM156.395 954.216C151.291 951.166 146.347 948.057 141.579 944.883C134.392 951.429 127.023 958.034 119.521 964.678C124.467 967.615 129.648 970.47 135.015 973.257C142.283 966.863 149.415 960.515 156.393 954.216L156.395 954.216ZM172.517 963.385C167.099 960.442 161.819 957.449 156.697 954.395C149.725 960.691 142.599 967.035 135.335 973.423C140.698 976.202 146.254 978.911 151.987 981.556C158.961 975.456 165.806 969.398 172.515 963.385L172.517 963.385ZM90.4452 830.385C89.4924 826.532 88.7334 822.611 88.1819 818.622C82.8625 825.156 77.4048 831.735 71.779 838.366C71.6663 842.685 71.8462 846.903 72.289 851.031C78.5058 844.096 84.5704 837.209 90.4472 830.383L90.4452 830.385ZM94.3513 843.048C92.8608 839.039 91.5917 834.953 90.5441 830.789C84.6534 837.629 78.573 844.529 72.3423 851.477C72.8346 855.875 73.6411 860.167 74.7322 864.357C81.457 857.196 87.9901 850.093 94.3493 843.046L94.3513 843.048ZM99.8762 855.699C97.854 851.68 96.0473 847.586 94.4797 843.411C88.1107 850.466 81.5658 857.577 74.833 864.748C75.9736 869.057 77.4127 873.266 79.1482 877.37C86.2506 870.086 93.1553 862.863 99.8762 855.701L99.8762 855.699ZM106.969 868.122C104.44 864.164 102.126 860.131 100.042 856.017C93.3154 863.185 86.4068 870.412 79.2985 877.7C81.0755 881.853 83.1551 885.902 85.5034 889.857C92.8489 882.552 100.009 875.305 106.969 868.122ZM115.528 880.234C112.525 876.369 109.732 872.431 107.155 868.416C100.191 875.601 93.0288 882.85 85.6793 890.16C88.0633 894.143 90.724 898.03 93.6495 901.824C101.133 894.565 108.426 887.37 115.528 880.232L115.528 880.234ZM125.477 891.978C122.035 888.223 118.782 884.399 115.739 880.501C108.635 887.639 101.343 894.834 93.8591 902.092C96.8083 905.9 100.017 909.615 103.47 913.243C110.995 906.094 118.317 899.009 125.477 891.976L125.477 891.978ZM136.689 903.364C132.844 899.718 129.179 896.006 125.704 892.226C118.546 899.258 111.227 906.342 103.701 913.492C107.172 917.124 110.893 920.668 114.828 924.136C122.304 917.152 129.563 910.237 136.689 903.364ZM149.079 914.396C144.865 910.857 140.812 907.258 136.936 903.595C129.812 910.464 122.557 917.377 115.083 924.359C119.031 927.825 123.19 931.219 127.558 934.535C134.906 927.766 142.064 921.059 149.079 914.396ZM162.529 925.099C157.984 921.661 153.58 918.169 149.34 914.615C142.328 921.274 135.177 927.977 127.835 934.74C132.21 938.051 136.794 941.284 141.548 944.456C148.68 937.96 155.703 931.497 162.529 925.099ZM176.89 935.473C172.06 932.135 167.36 928.747 162.801 925.305C155.98 931.698 148.962 938.157 141.836 944.65C146.604 947.822 151.55 950.931 156.656 953.981C163.535 947.769 170.289 941.596 176.892 935.473L176.89 935.473ZM192.126 945.589C187.028 942.328 182.035 939.026 177.174 935.67C170.578 941.787 163.831 947.954 156.958 954.161C162.08 957.212 167.362 960.207 172.78 963.148C179.353 957.256 185.805 951.401 192.126 945.589ZM208.138 955.495C202.799 952.297 197.556 949.058 192.419 945.777C186.103 951.584 179.655 957.431 173.092 963.32C178.532 966.269 184.115 969.161 189.811 972.011C196.022 966.472 202.146 960.963 208.138 955.495ZM106.174 795.411C105.344 791.975 104.624 788.5 104.049 784.977C98.7218 792.379 93.2304 799.835 87.5197 807.36C87.6581 810.892 87.9743 814.364 88.425 817.791C94.539 810.268 100.459 802.808 106.176 795.413L106.174 795.411ZM109.665 807.546C108.376 803.698 107.245 799.796 106.277 795.838C100.548 803.244 94.6122 810.716 88.4843 818.251C89.0279 822.256 89.7771 826.19 90.7259 830.057C97.2373 822.489 103.559 814.982 109.665 807.544L109.665 807.546ZM114.53 820.197C112.774 816.168 111.193 812.078 109.791 807.927C103.674 815.373 97.344 822.888 90.8228 830.464C91.8625 834.639 93.1277 838.735 94.6142 842.756C101.456 835.17 108.099 827.651 114.53 820.197ZM120.75 832.981C118.546 828.898 116.524 824.751 114.68 820.544C108.242 828 101.594 835.527 94.7466 843.117C96.3102 847.302 98.109 851.406 100.127 855.433C107.21 847.882 114.079 840.399 120.75 832.983L120.75 832.981ZM128.292 845.673C125.663 841.609 123.198 837.487 120.922 833.296C114.249 840.715 107.374 848.2 100.291 855.751C102.371 859.868 104.688 863.905 107.216 867.867C114.447 860.403 121.464 853.007 128.292 845.671L128.292 845.673ZM137.057 858.204C134.028 854.187 131.172 850.107 128.483 845.968C121.654 853.303 114.634 860.698 107.404 868.163C109.979 872.182 112.77 876.124 115.773 879.991C123.063 872.666 130.158 865.404 137.057 858.204ZM146.982 870.508C143.586 866.556 140.336 862.549 137.26 858.481C130.363 865.676 123.271 872.936 115.983 880.258C119.023 884.159 122.278 887.98 125.72 891.737C132.977 884.605 140.095 877.518 146.982 870.506L146.982 870.508ZM157.939 882.548C154.213 878.675 150.635 874.748 147.203 870.765C140.32 877.773 133.202 884.857 125.947 891.985C129.422 895.766 133.087 899.479 136.932 903.125C144.1 896.212 151.119 889.344 157.939 882.546L157.939 882.548ZM169.87 894.331C165.842 890.535 161.932 886.693 158.172 882.793C151.358 889.587 144.343 896.449 137.179 903.358C141.055 907.021 145.11 910.62 149.324 914.159C156.34 907.495 163.175 900.888 169.868 894.329L169.87 894.331ZM182.697 905.908C178.384 902.175 174.189 898.393 170.117 894.563C163.428 901.119 156.596 907.72 149.585 914.38C153.827 917.936 158.231 921.428 162.778 924.868C169.57 918.498 176.198 912.183 182.695 905.908L182.697 905.908ZM196.299 917.239C191.749 913.577 187.293 909.878 182.954 906.127C176.463 912.397 169.841 918.707 163.052 925.072C167.613 928.514 172.313 931.902 177.143 935.24C183.656 929.197 190.051 923.194 196.299 917.239ZM210.609 928.388C205.839 924.783 201.152 921.139 196.564 917.454C190.321 923.404 183.933 929.403 177.425 935.439C182.288 938.793 187.281 942.095 192.379 945.355C198.57 939.661 204.651 934.004 210.607 928.388L210.609 928.388ZM225.563 939.393C220.595 935.83 215.699 932.229 210.881 928.593C204.931 934.203 198.857 939.855 192.674 945.542C197.813 948.823 203.058 952.062 208.397 955.262C214.232 949.936 219.931 944.654 225.563 939.393ZM121.474 759.402C120.774 756.51 120.142 753.594 119.582 750.655C114.387 759.141 108.945 767.706 103.258 776.352C103.521 778.954 103.865 781.53 104.267 784.087C110.23 775.784 115.977 767.552 121.474 759.402ZM124.627 770.847C123.5 767.221 122.492 763.553 121.587 759.854C116.079 768.014 110.317 776.26 104.338 784.574C104.907 788.114 105.619 791.606 106.445 795.058C112.739 786.911 118.792 778.842 124.627 770.845L124.627 770.847ZM129.001 783.38C127.454 779.381 126.036 775.338 124.757 771.248C118.912 779.252 112.851 787.328 106.548 795.484C107.51 799.454 108.637 803.369 109.924 807.23C116.508 799.207 122.871 791.254 129.001 783.38ZM134.574 796.406C132.625 792.235 130.81 788.017 129.148 783.747C123.01 791.625 116.641 799.582 110.05 807.609C111.448 811.77 113.029 815.868 114.781 819.907C121.6 812.001 128.201 804.166 134.574 796.406ZM141.291 809.622C138.962 805.382 136.774 801.091 134.736 796.746C128.361 804.508 121.755 812.344 114.931 820.254C116.773 824.469 118.794 828.62 120.998 832.708C127.977 824.942 134.746 817.244 141.291 809.622ZM149.097 822.862C146.412 818.606 143.866 814.301 141.465 809.942C134.92 817.566 128.149 825.26 121.168 833.026C123.439 837.221 125.906 841.346 128.533 845.415C135.59 837.831 142.455 830.31 149.095 822.862L149.097 822.862ZM157.931 836.015C154.916 831.778 152.03 827.495 149.287 823.158C142.647 830.604 135.782 838.123 128.725 845.707C131.411 849.85 134.269 853.933 137.296 857.952C144.361 850.577 151.265 843.257 157.929 836.015L157.931 836.015ZM167.68 849.008C164.373 844.819 161.184 840.582 158.128 836.297C151.465 843.538 144.562 850.857 137.499 858.228C140.573 862.298 143.823 866.308 147.219 870.262C154.236 863.112 161.034 856.033 167.68 849.006L167.68 849.008ZM178.321 861.868C174.731 857.717 171.252 853.52 167.895 849.276C161.252 856.299 154.46 863.374 147.444 870.52C150.876 874.504 154.456 878.434 158.182 882.309C165.067 875.439 171.782 868.625 178.321 861.868ZM189.744 874.555C185.909 870.455 182.167 866.316 178.542 862.129C172.007 868.88 165.294 875.69 158.415 882.556C162.175 886.456 166.083 890.3 170.111 894.096C176.807 887.534 183.365 881.014 189.744 874.555ZM201.881 887.088C197.821 883.031 193.85 878.937 189.976 874.802C183.603 881.257 177.048 887.769 170.358 894.327C174.431 898.156 178.623 901.938 182.938 905.671C189.402 899.427 195.702 893.239 201.881 887.088ZM214.677 899.489C210.413 895.472 206.222 891.419 202.123 887.327C195.949 893.472 189.655 899.654 183.197 905.892C187.536 909.643 191.994 913.344 196.546 917.006C202.714 911.127 208.764 905.284 214.679 899.489L214.677 899.489ZM228.028 911.757C223.594 907.779 219.219 903.77 214.922 899.724C209.015 905.513 202.971 911.348 196.809 917.221C201.397 920.907 206.084 924.549 210.854 928.155C216.685 922.654 222.416 917.186 228.028 911.757ZM241.892 923.943C237.304 919.987 232.762 916.001 228.281 911.982C222.677 917.405 216.954 922.865 211.129 928.36C215.946 931.996 220.844 935.597 225.812 939.162C231.277 934.055 236.616 928.988 241.892 923.943ZM136.118 721.805C135.572 719.61 135.056 717.407 134.572 715.192C129.691 725.139 124.508 735.189 118.999 745.345C119.232 746.808 119.483 748.262 119.752 749.713C125.495 740.315 130.942 731.014 136.12 721.805L136.118 721.805ZM139.021 732.433C138.023 729.077 137.092 725.698 136.238 722.294C131.053 731.507 125.599 740.811 119.851 750.215C120.408 753.17 121.037 756.103 121.737 759.013C127.768 750.063 133.53 741.201 139.021 732.433ZM143.052 744.792C141.654 740.85 140.354 736.874 139.152 732.865C133.651 741.64 127.886 750.505 121.848 759.461C122.749 763.176 123.759 766.854 124.886 770.494C131.196 761.842 137.26 753.271 143.054 744.792L143.052 744.792ZM148.164 758.063C146.397 753.809 144.738 749.52 143.194 745.191C137.397 753.671 131.322 762.246 125.008 770.902C126.285 775.002 127.703 779.055 129.248 783.062C135.795 774.647 142.119 766.309 148.164 758.061L148.164 758.063ZM154.278 771.767C152.175 767.361 150.188 762.917 148.318 758.433C142.271 766.678 135.946 775.018 129.395 783.431C131.055 787.709 132.87 791.933 134.817 796.112C141.542 787.918 148.035 779.801 154.278 771.769L154.278 771.767ZM161.352 785.672C158.937 781.193 156.626 776.674 154.442 772.112C148.197 780.145 141.704 788.26 134.977 796.452C137.013 800.8 139.203 805.096 141.53 809.342C148.365 801.375 154.976 793.483 161.351 785.672L161.352 785.672ZM169.323 799.667C166.613 795.153 164.013 790.595 161.528 785.997C155.153 793.809 148.541 801.699 141.706 809.664C144.106 814.024 146.648 818.336 149.334 822.595C156.205 814.885 162.886 807.236 169.325 799.669L169.323 799.667ZM178.099 813.596C175.134 809.095 172.264 804.557 169.508 799.977C163.072 807.54 156.393 815.185 149.524 822.892C152.267 827.23 155.155 831.518 158.17 835.758C165.029 828.298 171.647 820.919 178.101 813.596L178.099 813.596ZM187.649 827.497C184.435 823 181.312 818.466 178.293 813.89C171.843 821.21 165.227 828.585 158.37 836.04C161.426 840.328 164.61 844.566 167.919 848.757C174.674 841.611 181.274 834.516 187.651 827.497L187.649 827.497ZM197.867 841.285C194.441 836.82 191.1 832.317 187.851 827.779C181.478 834.795 174.879 841.885 168.131 849.025C171.487 853.269 174.966 857.468 178.556 861.621C185.17 854.783 191.596 848.009 197.867 841.285ZM208.743 855.016C205.111 850.565 201.553 846.08 198.078 841.558C191.812 848.277 185.39 855.046 178.779 861.88C182.407 866.069 186.147 870.21 189.983 874.314C196.38 867.834 202.658 861.394 208.743 855.016ZM220.148 868.621C216.353 864.209 212.619 859.764 208.958 855.283C202.878 861.653 196.605 868.088 190.215 874.561C194.089 878.696 198.058 882.793 202.121 886.849C208.27 880.726 214.275 874.652 220.148 868.621ZM232.086 882.19C228.126 877.784 224.214 873.347 220.368 868.878C214.501 874.902 208.501 880.971 202.36 887.086C206.461 891.18 210.652 895.235 214.918 899.254C220.759 893.527 226.488 887.836 232.086 882.19ZM244.442 895.681C240.356 891.297 236.31 886.887 232.313 882.443C226.721 888.083 220.998 893.766 215.165 899.485C219.464 903.531 223.839 907.543 228.271 911.52C233.762 906.206 239.159 900.924 244.442 895.679L244.442 895.681ZM257.18 909.143C252.982 904.765 248.807 900.361 244.674 895.928C239.398 901.167 234.007 906.441 228.524 911.747C233.007 915.766 237.549 919.752 242.137 923.71C247.245 918.822 252.246 913.972 257.178 909.143L257.18 909.143ZM151.696 677.001C153.973 667.743 156.049 658.556 157.939 649.442C151.605 670.092 144.159 691.168 135.402 712.691C141.263 700.644 146.691 688.746 151.696 677.001ZM152.392 691.443C151.601 688.76 150.844 686.068 150.125 683.365L150.115 683.328L150.125 683.288C150.48 681.895 150.828 680.503 151.174 679.111C146.144 690.821 140.7 702.681 134.817 714.691C135.299 716.925 135.821 719.148 136.369 721.363C142.03 711.278 147.375 701.303 152.394 691.443L152.392 691.443ZM156.266 703.723C154.952 699.813 153.706 695.88 152.534 691.924C147.507 701.787 142.154 711.765 136.485 721.85C137.339 725.271 138.264 728.669 139.264 732.044C145.238 722.498 150.896 713.058 156.264 703.723L156.266 703.723ZM161.147 717.316C159.484 712.959 157.903 708.575 156.413 704.163C151.04 713.496 145.375 722.936 139.397 732.48C140.597 736.499 141.896 740.485 143.291 744.439C149.53 735.299 155.48 726.258 161.145 717.316L161.147 717.316ZM166.919 731.59C164.954 726.995 163.08 722.369 161.299 717.715C155.63 726.657 149.678 735.698 143.435 744.838C144.977 749.174 146.636 753.474 148.401 757.736C154.855 748.924 161.009 740.214 166.919 731.59ZM173.531 746.259C171.289 741.525 169.133 736.762 167.077 731.965C161.167 740.588 155.011 749.295 148.555 758.107C150.425 762.6 152.414 767.053 154.515 771.465C161.107 762.977 167.455 754.571 173.529 746.261L173.531 746.259ZM180.881 761.08C178.4 756.289 176.002 751.468 173.699 746.612C167.623 754.921 161.273 763.324 154.679 771.808C156.863 776.374 159.17 780.899 161.588 785.384C168.261 777.199 174.693 769.098 180.883 761.08L180.881 761.08ZM188.942 776.017C186.228 771.181 183.597 766.315 181.055 761.413C174.867 769.428 168.435 777.527 161.762 785.707C164.248 790.309 166.846 794.869 169.556 799.389C176.245 791.521 182.707 783.731 188.942 776.017ZM197.616 790.936C194.708 786.102 191.875 781.234 189.124 776.335C182.889 784.045 176.431 791.835 169.742 799.699C172.497 804.283 175.369 808.825 178.335 813.329C184.97 805.795 191.399 798.331 197.616 790.936ZM206.875 805.862C203.781 801.022 200.757 796.148 197.803 791.246C191.591 798.635 185.162 806.095 178.53 813.626C181.549 818.201 184.672 822.739 187.886 827.236C194.415 820.045 200.733 812.925 206.877 805.862L206.875 805.862ZM216.665 820.779C213.406 815.937 210.201 811.063 207.066 806.16C200.925 813.219 194.611 820.333 188.086 827.519C191.336 832.061 194.676 836.565 198.104 841.033C204.447 834.228 210.67 827.465 216.665 820.779ZM226.895 835.624C223.499 830.801 220.152 825.951 216.863 821.071C210.872 827.751 204.651 834.51 198.315 841.307C201.788 845.829 205.349 850.316 208.98 854.768C215.12 848.33 221.064 841.958 226.897 835.626L226.895 835.624ZM237.551 850.468C234.025 845.642 230.534 840.79 227.095 835.908C221.267 842.237 215.327 848.603 209.193 855.032C212.854 859.515 216.59 863.961 220.386 868.374C226.239 862.362 231.967 856.39 237.551 850.466L237.551 850.468ZM248.584 865.321C244.942 860.488 241.329 855.632 237.755 850.747C232.175 856.663 226.454 862.628 220.607 868.633C224.454 873.104 228.366 877.542 232.327 881.95C237.858 876.369 243.282 870.824 248.582 865.321L248.584 865.321ZM259.896 880.145C256.172 875.319 252.466 870.471 248.789 865.595C243.495 871.093 238.077 876.63 232.554 882.202C236.549 886.646 240.598 891.056 244.682 895.44C249.847 890.311 254.927 885.211 259.896 880.145ZM271.464 895C267.667 890.163 263.878 885.303 260.106 880.418C255.144 885.473 250.07 890.568 244.913 895.689C249.048 900.122 253.223 904.528 257.422 908.907C262.183 904.244 266.862 899.609 271.464 895ZM167.915 612.392C168.154 604.662 168.305 596.973 168.376 589.328C166.122 606.66 163.3 624.266 159.771 642.154C162.736 632.132 165.444 622.211 167.917 612.39L167.915 612.392ZM166.737 638.919C167.223 630.575 167.597 622.278 167.864 614.03C165.197 624.532 162.258 635.15 159.022 645.883C157.075 655.51 154.916 665.22 152.538 675.011C157.696 662.822 162.418 650.79 166.737 638.919ZM168.008 658.978C167.279 656.781 166.561 654.582 165.863 652.377L165.855 652.348L165.855 652.318C166.156 648.242 166.425 644.177 166.666 640.125C162.22 652.287 157.354 664.614 152.026 677.108C151.52 679.176 151 681.247 150.471 683.324C151.155 685.888 151.874 688.442 152.619 690.987C158.111 680.185 163.232 669.516 168.004 658.978L168.008 658.978ZM172.974 673.229C171.307 668.659 169.704 664.071 168.168 659.464C163.389 670.001 158.261 680.671 152.762 691.474C153.934 695.444 155.181 699.392 156.498 703.318C162.329 693.166 167.812 683.138 172.974 673.231L172.974 673.229ZM178.74 688.355C176.801 683.482 174.931 678.586 173.134 673.669C167.967 683.578 162.479 693.606 156.644 703.759C158.134 708.186 159.716 712.584 161.38 716.955C167.486 707.308 173.268 697.775 178.742 688.355L178.74 688.355ZM185.186 703.924C183.021 698.893 180.924 693.837 178.9 688.76C173.422 698.178 167.638 707.709 161.53 717.354C163.311 722.016 165.185 726.651 167.15 731.253C173.458 722.04 179.471 712.928 185.186 703.924ZM192.243 719.756C189.879 714.629 187.58 709.479 185.35 704.307C179.635 713.309 173.616 722.417 167.308 731.628C169.364 736.43 171.519 741.201 173.76 745.943C180.209 737.115 186.352 728.392 192.243 719.758L192.243 719.756ZM199.855 735.745C197.313 730.56 194.828 725.352 192.411 720.121C186.518 728.751 180.377 737.471 173.928 746.294C176.233 751.154 178.629 755.983 181.112 760.78C187.615 752.345 193.866 743.999 199.853 735.745L199.855 735.745ZM207.964 751.822C205.262 746.6 202.613 741.359 200.025 736.091C194.04 744.342 187.789 752.682 181.286 761.113C183.83 766.019 186.461 770.89 189.175 775.731C195.68 767.677 201.935 759.71 207.964 751.822ZM216.503 767.929C213.663 762.696 210.874 757.438 208.136 752.157C202.111 760.041 195.856 768.004 189.355 776.052C192.106 780.954 194.941 785.824 197.847 790.66C204.275 783.013 210.508 775.431 216.503 767.929ZM225.434 784.049C222.475 778.808 219.553 773.543 216.681 768.255C210.692 775.748 204.459 783.325 198.035 790.966C200.988 795.873 204.016 800.749 207.11 805.593C213.414 798.345 219.522 791.163 225.434 784.047L225.434 784.049ZM234.711 800.198C231.643 794.944 228.609 789.667 225.612 784.367C219.704 791.475 213.599 798.651 207.3 805.891C210.435 810.797 213.639 815.671 216.899 820.515C223.026 813.679 228.931 806.916 234.711 800.198ZM244.3 816.375C241.137 811.111 238 805.822 234.895 800.51C229.119 807.224 223.22 813.977 217.098 820.807C220.388 825.691 223.736 830.543 227.132 835.367C233.007 828.985 238.732 822.653 244.302 816.375L244.3 816.375ZM254.15 832.59C250.91 827.309 247.684 822.007 244.484 816.681C238.919 822.953 233.201 829.277 227.332 835.651C230.771 840.535 234.262 845.389 237.791 850.218C243.367 844.3 248.837 838.419 254.15 832.59ZM264.218 848.852C260.912 843.553 257.615 838.231 254.334 832.89C249.024 838.711 243.563 844.584 237.994 850.494C241.568 855.382 245.182 860.242 248.825 865.074C254.065 859.63 259.201 854.221 264.22 848.852L264.218 848.852ZM274.439 865.147C271.093 859.837 267.744 854.505 264.403 849.15C259.39 854.511 254.263 859.912 249.03 865.348C252.707 870.224 256.413 875.074 260.138 879.899C264.988 874.954 269.77 870.031 274.439 865.147ZM284.783 881.523C281.407 876.186 278.019 870.826 274.627 865.443C269.966 870.319 265.19 875.232 260.347 880.169C264.121 885.055 267.912 889.917 271.709 894.755C276.133 890.321 280.508 885.907 284.785 881.523L284.783 881.523ZM171.533 558.07C170.41 551.492 169.271 544.935 168.129 538.403C168.583 553.271 168.823 568.313 168.761 583.522C169.815 574.971 170.736 566.487 171.533 558.07ZM175.259 580.332C174.112 573.323 172.942 566.337 171.756 559.374C170.896 568.328 169.9 577.357 168.745 586.462C168.692 594.527 168.552 602.642 168.313 610.805C170.872 600.538 173.181 590.382 175.259 580.332ZM178.831 602.818C177.722 595.617 176.581 588.44 175.415 581.288C173.28 591.558 170.904 601.94 168.263 612.435C168.004 620.833 167.637 629.28 167.152 637.778C171.426 625.971 175.306 614.319 178.831 602.82L178.831 602.818ZM182.677 624.321C182.318 623.344 181.96 622.365 181.604 621.388L181.598 621.374L181.598 621.356C180.74 615.424 179.857 609.506 178.951 603.604C175.373 615.241 171.426 627.033 167.081 638.984C166.822 643.413 166.532 647.855 166.205 652.312C166.862 654.383 167.534 656.448 168.218 658.511C173.44 646.959 178.248 635.565 182.677 624.323L182.677 624.321ZM188.924 640.828C186.85 635.5 184.826 630.16 182.855 624.81C178.42 636.052 173.606 647.446 168.378 658.996C169.916 663.621 171.521 668.227 173.189 672.814C178.807 662.01 184.045 651.349 188.924 640.828ZM195.676 657.731C193.437 652.257 191.241 646.771 189.1 641.274C184.217 651.793 178.975 662.453 173.351 673.252C175.15 678.182 177.022 683.091 178.963 687.976C184.889 677.763 190.446 667.686 195.676 657.731ZM202.856 674.871C200.476 669.31 198.137 663.738 195.848 658.151C190.614 668.1 185.053 678.176 179.123 688.383C181.147 693.468 183.245 698.53 185.409 703.569C191.549 693.885 197.367 684.317 202.856 674.871ZM210.401 692.148C207.902 686.535 205.441 680.91 203.024 675.268C197.533 684.71 191.713 694.274 185.573 703.952C187.803 709.132 190.104 714.29 192.47 719.424C198.74 710.225 204.732 701.129 210.401 692.148ZM218.268 709.515C215.667 703.867 213.101 698.204 210.571 692.527C204.902 701.502 198.908 710.595 192.636 719.787C195.054 725.026 197.538 730.24 200.083 735.431C206.414 726.696 212.49 718.052 218.268 709.515ZM226.411 726.943C223.724 721.27 221.064 715.583 218.434 709.88C212.66 718.41 206.582 727.05 200.253 735.777C202.84 741.049 205.491 746.296 208.193 751.522C214.517 743.241 220.591 735.047 226.409 726.943L226.411 726.943ZM234.792 744.427C232.03 738.732 229.291 733.021 226.579 727.297C220.761 735.394 214.691 743.582 208.369 751.857C211.105 757.14 213.896 762.4 216.737 767.635C222.977 759.822 229.006 752.082 234.794 744.427L234.792 744.427ZM243.379 761.962C240.556 756.247 237.747 750.519 234.96 744.772C229.174 752.422 223.151 760.156 216.912 767.963C219.785 773.253 222.706 778.522 225.667 783.767C231.758 776.433 237.69 769.155 243.379 761.962ZM252.13 779.55C249.258 773.816 246.393 768.066 243.545 762.298C237.86 769.485 231.936 776.755 225.847 784.083C228.844 789.385 231.878 794.665 234.948 799.922C240.833 793.076 246.597 786.274 252.13 779.55ZM261.015 797.208C258.107 791.452 255.198 785.678 252.298 779.886C246.769 786.603 241.013 793.398 235.13 800.236C238.235 805.55 241.374 810.84 244.537 816.109C250.165 809.762 255.692 803.452 261.015 797.21L261.015 797.208ZM269.997 814.938C267.064 809.154 264.123 803.355 261.181 797.537C255.864 803.771 250.343 810.074 244.721 816.415C247.921 821.743 251.147 827.047 254.389 832.329C259.709 826.492 264.935 820.689 269.997 814.94L269.997 814.938ZM279.039 832.758C277.001 828.738 274.957 824.712 272.907 820.673L270.162 815.264C265.105 821.004 259.887 826.802 254.573 832.629C257.856 837.975 261.154 843.297 264.459 848.597C269.426 843.283 274.283 838.002 279.037 832.758L279.039 832.758ZM288.104 850.687C285.159 844.838 282.188 838.972 279.205 833.083C274.459 838.318 269.604 843.589 264.646 848.893C267.987 854.248 271.336 859.58 274.68 864.89C279.231 860.131 283.726 855.387 288.104 850.685L288.104 850.687ZM297.152 868.749C294.22 862.857 291.255 856.945 288.268 851.011C283.898 855.703 279.411 860.437 274.87 865.186C278.262 870.57 281.652 875.929 285.029 881.271C289.116 877.082 293.198 872.893 297.154 868.749L297.152 868.749ZM166.721 511.325C164.662 505.632 162.635 499.945 160.659 494.268C161.309 497.934 161.963 501.605 162.618 505.285C164.282 514.642 165.958 524.048 167.621 533.499C167.37 526.065 167.065 518.672 166.721 511.323L166.721 511.325ZM173.754 530.426C171.499 524.421 169.295 518.424 167.121 512.433C167.48 520.222 167.795 528.059 168.05 535.945C169.261 542.85 170.467 549.779 171.657 556.733C172.481 547.89 173.175 539.123 173.754 530.426ZM181.019 549.425C178.663 543.347 176.334 537.271 174.051 531.205C173.452 540.078 172.738 549.029 171.883 558.056C173.092 565.14 174.286 572.251 175.454 579.385C177.528 569.292 179.376 559.305 181.017 549.425L181.019 549.425ZM188.473 568.419C186.034 562.294 183.638 556.174 181.264 550.061C179.596 560.045 177.72 570.139 175.611 580.342C176.791 587.557 177.945 594.796 179.064 602.06C182.531 590.7 185.654 579.487 188.471 568.419L188.473 568.419ZM196.107 587.348C193.611 581.217 191.132 575.087 188.693 568.964C185.848 580.111 182.691 591.404 179.187 602.844C180.129 608.977 181.049 615.128 181.938 621.295C182.247 622.142 182.557 622.99 182.869 623.837C187.722 611.494 192.12 599.332 196.109 587.348L196.107 587.348ZM203.89 606.292C201.338 600.141 198.815 593.992 196.311 587.843C192.314 599.826 187.908 611.985 183.047 624.327C185.02 629.692 187.048 635.048 189.126 640.391C194.461 628.861 199.371 617.495 203.89 606.292ZM211.807 625.225C209.215 619.066 206.633 612.907 204.078 606.75C199.555 617.949 194.639 629.311 189.297 640.837C191.442 646.347 193.64 651.844 195.884 657.33C201.579 646.479 206.881 635.776 211.807 625.223L211.807 625.225ZM219.822 644.166C217.197 637.997 214.586 631.826 211.988 625.655C207.058 636.206 201.755 646.903 196.058 657.751C198.349 663.345 200.687 668.927 203.071 674.496C209.019 664.249 214.592 654.142 219.822 644.166ZM227.927 663.126C225.276 656.945 222.631 650.763 219.998 644.576C214.764 654.547 209.189 664.65 203.239 674.891C205.659 680.538 208.12 686.172 210.62 691.79C216.725 682.112 222.481 672.558 227.925 663.124L227.927 663.126ZM236.085 682.106C233.418 675.915 230.753 669.721 228.097 663.523C222.651 672.952 216.897 682.499 210.79 692.173C213.321 697.856 215.89 703.524 218.492 709.177C224.669 700.04 230.508 691.022 236.085 682.104L236.085 682.106ZM244.294 701.147L242.717 697.487C240.562 692.491 238.405 687.491 236.251 682.489C230.674 691.401 224.837 700.411 218.662 709.542C221.291 715.249 223.952 720.942 226.642 726.619C232.805 718.027 238.672 709.542 244.296 701.145L244.294 701.147ZM252.523 720.245C249.841 714.012 247.152 707.772 244.458 701.526C238.836 709.918 232.973 718.396 226.812 726.981C229.526 732.709 232.268 738.424 235.029 744.121C241.106 736.075 246.927 728.122 252.523 720.245ZM260.735 739.383C258.062 733.136 255.376 726.878 252.681 720.615C247.087 728.481 241.27 736.428 235.197 744.466C237.984 750.217 240.795 755.949 243.618 761.666C249.548 754.159 255.225 746.742 260.737 739.385L260.735 739.383ZM268.92 758.612C266.259 752.333 263.581 746.044 260.889 739.745C255.382 747.094 249.71 754.504 243.782 762.001C246.633 767.771 249.497 773.524 252.369 779.26C258.086 772.308 263.565 765.438 268.918 758.61L268.92 758.612ZM277.062 777.951C274.423 771.637 271.759 765.312 269.074 758.975C263.723 765.794 258.25 772.653 252.539 779.598C255.439 785.389 258.349 791.165 261.258 796.924C266.696 790.54 271.929 784.229 277.062 777.951ZM285.127 797.411C282.518 791.057 279.877 784.689 277.213 778.309C272.085 784.576 266.858 790.879 261.426 797.253C264.368 803.073 267.309 808.874 270.243 814.656C275.343 808.86 280.28 803.12 285.127 797.411ZM293.09 817.013C290.52 810.613 287.913 804.198 285.274 797.768C280.433 803.467 275.501 809.198 270.409 814.986L273.224 820.531C275.252 824.524 277.27 828.508 279.286 832.483C283.991 827.292 288.591 822.135 293.09 817.013ZM300.906 836.735C298.391 830.298 295.831 823.841 293.234 817.368C288.741 822.479 284.147 827.625 279.452 832.807C282.437 838.695 285.408 844.566 288.355 850.415C292.625 845.825 296.794 841.269 300.908 836.733L300.906 836.735ZM308.552 856.627C306.099 850.135 303.594 843.618 301.044 837.087C296.938 841.613 292.779 846.159 288.517 850.739C291.506 856.673 294.471 862.587 297.405 868.481C301.196 864.503 304.877 860.563 308.554 856.627L308.552 856.627ZM316.119 877.086C312.944 880.396 309.807 883.693 306.553 887.031C321.93 918.516 336.129 949.391 347.881 979.609C339.667 946.266 328.758 912.002 316.119 877.086ZM306.395 886.705C309.657 883.357 312.808 880.051 315.99 876.728C313.612 870.167 311.179 863.584 308.684 856.981C305.017 860.909 301.346 864.839 297.563 868.807C300.542 874.794 303.489 880.761 306.393 886.705L306.395 886.705ZM295.45 897.763C299.036 894.159 302.653 890.542 306.14 886.97C303.236 881.026 300.291 875.06 297.312 869.075C293.366 873.211 289.29 877.388 285.212 881.569L286.248 883.207C289.33 888.079 292.398 892.929 295.448 897.765L295.45 897.763ZM283.491 909.68C287.454 905.772 291.354 901.883 295.205 898.01C292.137 893.146 289.051 888.268 285.954 883.371L284.971 881.817C280.701 886.192 276.335 890.6 271.919 895.023C275.773 899.933 279.636 904.816 283.491 909.68ZM270.509 922.401C274.84 918.212 279.039 914.069 283.246 909.921C279.389 905.059 275.53 900.176 271.676 895.268C267.082 899.87 262.411 904.497 257.657 909.151C261.919 913.593 266.208 918.009 270.509 922.401ZM256.429 935.83C261.094 931.414 265.744 927.002 270.266 922.634C265.965 918.244 261.677 913.83 257.416 909.388C252.488 914.211 247.496 919.053 242.396 923.931C247.032 927.926 251.715 931.89 256.429 935.83ZM241.274 950.009C246.312 945.337 251.304 940.682 256.184 936.065C251.47 932.125 246.787 928.161 242.151 924.166C236.881 929.203 231.55 934.263 226.092 939.363C231.09 942.944 236.156 946.492 241.274 950.011L241.274 950.009ZM225.005 964.929C230.431 960.004 235.77 955.108 241.023 950.24C235.905 946.721 230.838 943.175 225.841 939.592C220.219 944.845 214.527 950.12 208.699 955.44C214.048 958.64 219.492 961.8 225.005 964.927L225.005 964.929ZM207.57 980.592C213.398 975.417 219.111 970.278 224.746 965.164C219.233 962.035 213.791 958.874 208.442 955.675C202.459 961.135 196.341 966.64 190.138 972.171C195.839 975.02 201.654 977.825 207.57 980.59L207.57 980.592ZM0 987C1.87789 985.383 3.74393 983.771 5.61391 982.158C5.19089 976.009 6.10216 969.39 8.48807 962.244L8.50191 962.203L8.53354 962.173C13.2362 957.984 17.8518 953.821 22.426 949.67C22.0366 943.882 22.6019 937.757 24.2228 931.258L24.2347 931.213L24.2703 931.179C29.305 926.448 34.2587 921.742 39.1214 917.063C38.7162 911.708 38.9633 906.123 39.9596 900.274L39.9675 900.225L40.0031 900.189C45.3264 894.864 50.5153 889.579 55.6331 884.316C55.1942 879.468 55.1962 874.466 55.6943 869.29L55.7003 869.237L55.7378 869.198C61.2924 863.214 66.6889 857.279 71.9826 851.374C71.5121 847.116 71.3145 842.766 71.4331 838.304L71.4331 838.247L71.4706 838.204C77.1834 831.471 82.7281 824.79 88.1246 818.156C87.6462 814.597 87.3141 810.988 87.1718 807.315L87.1718 807.259L87.2034 807.214C93.0031 799.573 98.5775 792.004 103.978 784.491C103.547 781.795 103.185 779.077 102.909 776.329L102.903 776.274L102.932 776.228C108.704 767.456 114.219 758.764 119.485 750.156C119.185 748.559 118.902 746.954 118.645 745.343L118.637 745.292L118.663 745.244C124.253 734.938 129.509 724.74 134.451 714.651C134.429 714.552 134.406 714.454 134.384 714.355L134.374 714.308L134.392 714.264C143.951 690.93 151.961 668.116 158.684 645.804C162.758 625.667 165.935 605.884 168.398 586.448C168.51 569.41 168.239 552.586 167.704 535.975C165.901 525.706 164.082 515.494 162.276 505.338C161.495 500.96 160.72 496.595 159.945 492.237C95.8476 307.348 78.0531 130.993 238.441 -1.04226e-05L238.975 -1.04459e-05C79.0336 130.406 96.0571 305.909 159.556 490.034C125.726 299.339 100.341 129.992 259.55 -1.13453e-05L260.08 -1.13685e-05C100.08 130.414 126.262 300.551 160.285 492.144C162.363 498.137 164.501 504.14 166.67 510.149C165.286 481.026 163.27 452.585 161.299 424.834C149.429 257.49 139.348 115.224 280.613 0.00187982L281.154 0.0018798C139.697 115.179 149.775 257.445 161.647 424.813C163.642 452.922 165.683 481.741 167.069 511.258C169.279 517.364 171.519 523.473 173.814 529.593C177.277 477.043 176.627 427.152 176.006 379.754C174.049 230.074 172.448 105.258 301.712 -1.31883e-05L302.248 -1.32117e-05C172.796 105.224 174.399 230.044 176.354 379.75C176.977 427.383 177.631 477.536 174.108 530.376C176.407 536.496 178.758 542.623 181.132 548.754C192.881 477.734 194.241 412.175 195.5 351.297C198.361 213.182 200.735 99.1421 322.754 0.00187798L323.296 0.00187796C201.087 99.1204 198.709 213.16 195.848 351.303C194.585 412.363 193.223 478.128 181.379 549.394C183.763 555.543 186.17 561.694 188.621 567.849C210.622 481.089 213.795 403.154 216.683 332.155C221.977 202.037 226.333 95.198 343.807 0.00187706L344.34 0.00187704C226.677 95.1822 222.325 202.023 217.031 332.165C214.135 403.314 210.955 481.425 188.839 568.399C191.286 574.545 193.773 580.694 196.277 586.845C229.735 486.08 234.337 397.879 238.451 318.817C244.923 194.419 250.24 92.6161 364.869 0.00187614L365.404 0.00187612C250.586 92.6042 245.271 194.409 238.797 318.833C234.677 398.023 230.068 486.378 196.477 587.34C198.987 593.503 201.516 599.67 204.074 605.834C249.809 492.203 255.419 395.167 260.363 309.367C267.291 189.145 272.976 90.9559 385.915 0.00187522L386.453 0.0018752C273.322 90.946 267.639 189.137 260.709 309.383C255.757 395.299 250.139 492.473 204.261 606.292C206.821 612.463 209.405 618.634 212.002 624.807C270.579 499.118 276.807 394.279 282.239 302.654C289.186 185.509 294.877 89.9472 406.955 0.0018743L407.495 0.00187428C295.224 89.9433 289.533 185.503 282.587 302.671C277.147 394.401 270.911 499.371 212.184 625.235C214.783 631.414 217.399 637.592 220.028 643.769C291.85 506.627 298.377 394.743 304.007 297.95C310.686 183.071 316.16 89.4241 427.995 0.00187338L428.537 0.00187336C316.508 89.4241 311.036 183.067 304.355 297.967C298.721 394.859 292.186 506.868 220.204 644.183C222.839 650.376 225.487 656.57 228.142 662.759C313.531 514.604 320.054 396.255 325.634 294.766C331.861 181.537 336.961 89.276 449.032 0.00187246L449.573 0.00187244C337.309 89.2741 332.209 181.533 325.982 294.783C320.396 396.365 313.865 514.833 228.312 663.153C230.973 669.356 233.64 675.556 236.308 681.751C335.494 522.938 341.792 398.576 347.12 292.758C352.763 180.7 357.387 89.4142 470.068 0.00187154L470.612 0.00187152C357.735 89.4162 353.113 180.698 347.469 292.774C342.136 398.681 335.83 523.159 236.476 682.135C238.664 687.215 240.853 692.294 243.041 697.367L244.523 700.806C357.731 531.584 363.564 401.563 368.468 291.686C373.436 180.42 377.508 89.7873 491.104 0.00187062L491.65 0.0018706C377.856 89.7893 373.786 180.418 368.818 291.698C363.908 401.664 358.073 531.8 244.689 701.183C247.386 707.434 250.078 713.68 252.762 719.92C380.182 540.487 385.353 405.092 389.69 291.364C393.915 180.585 397.38 90.3499 512.143 0.0018697L512.688 0.00186968C397.728 90.3539 394.263 180.582 390.038 291.376C385.697 405.189 380.52 540.696 252.921 720.289C255.617 726.556 258.303 732.816 260.978 739.068C402.745 549.603 407.147 409.058 410.79 291.66C414.222 181.118 417.04 91.0705 533.177 0.00388294L533.723 0.00388292C417.386 91.0744 414.571 181.114 411.14 291.668C407.493 409.151 403.085 549.806 261.134 739.431C263.828 745.732 266.509 752.023 269.169 758.304C425.455 558.914 428.938 413.407 431.785 292.464C434.317 184.912 436.414 96.7595 545 7.3906L545 7.82682C436.754 97.0517 434.661 185.082 432.133 292.468C429.284 413.496 425.799 559.114 269.323 758.663C272.01 765.004 274.674 771.331 277.315 777.647C448.302 568.405 450.726 418.081 452.683 293.694C454.262 193.294 455.599 109.77 545 25.7784L545 26.2502C455.942 110.086 454.608 193.48 453.031 293.698C451.072 418.168 448.646 568.603 277.466 778.005C280.132 784.389 282.775 790.757 285.384 797.113C471.26 578.06 472.505 423.04 473.494 295.287C474.209 202.905 474.836 124.765 545 46.9714L545 47.4905C475.18 125.114 474.553 203.105 473.84 295.287C472.851 423.123 471.608 578.254 285.531 797.468C288.172 803.9 290.779 810.317 293.351 816.717C494.325 587.869 494.275 428.247 494.224 297.19C494.192 214.28 494.18 142.791 545 72.4378L545 73.0439C494.532 143.2 494.54 214.511 494.572 297.19C494.623 428.332 494.674 588.062 293.495 817.074C296.094 823.551 298.656 830.01 301.172 836.451C517.419 597.824 516.039 433.67 514.885 299.361C514.278 228.694 513.762 166.282 544.998 105.627L544.998 106.403C514.112 166.811 514.628 228.988 515.232 299.357C516.387 433.749 517.765 598.013 301.309 836.802C303.861 843.336 306.365 849.852 308.82 856.347C540.562 607.921 537.793 439.288 535.482 301.763C534.628 250.943 533.859 204.366 544.998 159.574L544.998 161.035C534.217 205.375 534.984 251.488 535.83 301.757C538.141 439.365 540.912 608.11 308.955 856.698C311.448 863.303 313.885 869.888 316.263 876.45C466.113 720.082 523.673 594.95 544.998 489.313L544.998 491.052C523.39 596.413 465.607 721.14 316.391 876.805C329.39 912.699 340.571 947.907 348.869 982.134C349.494 983.757 350.11 985.379 350.721 986.998L350.346 986.998C350.065 986.254 349.782 985.51 349.5 984.763C349.677 985.51 349.853 986.254 350.029 986.998L349.67 986.998C349.298 985.413 348.92 983.824 348.535 982.233C336.619 951.265 322.078 919.598 306.304 887.291C302.827 890.852 299.218 894.459 295.64 898.054C314.737 928.327 333.087 957.923 348.839 986.996L348.446 986.996C332.731 958.004 314.436 928.491 295.395 898.302C291.552 902.165 287.66 906.044 283.706 909.945C287.106 914.23 290.5 918.5 293.882 922.752C311.195 944.521 328.177 965.876 343.72 986.998L343.293 986.998C327.789 965.941 310.862 944.652 293.602 922.948C290.231 918.709 286.849 914.455 283.461 910.184C279.264 914.321 275.072 918.459 270.751 922.638C280.095 932.172 289.496 941.598 298.818 950.939C310.928 963.073 322.897 975.069 334.425 986.996L333.953 986.996C322.493 975.144 310.598 963.221 298.565 951.162C289.247 941.823 279.848 932.401 270.506 922.871C265.993 927.231 261.351 931.635 256.694 936.043C271.622 948.507 286.865 960.712 301.937 972.781C307.878 977.539 313.792 982.274 319.651 986.996L319.117 986.996C313.361 982.357 307.549 977.704 301.714 973.032C286.634 960.959 271.387 948.748 256.451 936.278C251.578 940.889 246.595 945.538 241.564 950.203C259.843 962.763 278.77 974.957 297.581 986.998L296.964 986.998C278.274 975.034 259.473 962.915 241.313 950.436C236.069 955.296 230.738 960.185 225.319 965.102C238.483 972.562 252.055 979.836 265.787 986.998L265.068 986.998C251.493 979.911 238.075 972.716 225.059 965.337C219.429 970.444 213.726 975.574 207.906 980.744C212.417 982.851 216.986 984.933 221.601 986.998L220.791 986.998C216.361 985.012 211.973 983.009 207.636 980.985C205.382 982.987 203.119 984.99 200.842 986.998L200.332 986.998C202.668 984.937 204.991 982.882 207.302 980.829C201.387 978.064 195.574 975.259 189.875 972.41C184.455 977.244 178.932 982.108 173.335 986.998L172.823 986.998C178.485 982.053 184.069 977.134 189.551 972.248C183.856 969.398 178.273 966.504 172.833 963.555C166.132 969.564 159.293 975.616 152.327 981.708C156.213 983.498 160.178 985.261 164.217 986.998L163.379 986.998C159.536 985.34 155.758 983.656 152.054 981.949C150.133 983.628 148.201 985.312 146.258 986.998L145.746 986.998C147.749 985.261 149.739 983.526 151.718 981.795C145.987 979.147 140.433 976.437 135.07 973.658C130.037 978.081 124.935 982.529 119.762 986.998L119.248 986.998C124.488 982.474 129.658 977.971 134.752 973.49C129.385 970.701 124.208 967.846 119.262 964.907C111.703 971.603 103.974 978.354 96.0888 985.152C97.2393 985.772 98.4055 986.386 99.5837 986.996L98.8622 986.996C97.8362 986.463 96.8222 985.926 95.82 985.385L93.95 986.996L93.4341 986.996L95.5037 985.214C90.3761 982.442 85.5311 979.57 80.9925 976.591C77.0173 980.048 73.0046 983.514 68.9503 986.994L68.4344 986.994C72.5657 983.449 76.6516 979.917 80.7 976.398C76.1238 973.379 71.86 970.251 67.9481 966.999C60.4207 973.618 52.7668 980.277 44.9271 986.994L44.4092 986.994C52.3398 980.204 60.0768 973.472 67.6872 966.78C63.7357 963.478 60.1361 960.051 56.9318 956.486C49.2463 963.344 41.4243 970.243 33.4008 977.207C35.9864 980.62 39.0127 983.877 42.4404 986.994L41.9284 986.994C38.6035 983.946 35.6622 980.762 33.1359 977.434C29.479 980.606 25.7706 983.794 22.0227 986.994L21.5048 986.994C25.3575 983.705 29.1706 980.427 32.9303 977.166C30.0127 973.277 27.6584 969.191 25.9149 964.889C19.4075 970.643 12.7361 976.449 5.98554 982.278C6.10216 983.883 6.3117 985.454 6.61018 986.992L6.23856 986.992C5.96181 985.547 5.76217 984.073 5.64356 982.57C3.93765 984.043 2.22975 985.518 0.517905 986.992L0.00592995 986.992L0 987Z" fill="white" fill-opacity="0.3"/>
</svg>
