<svg width="73" height="73" viewBox="0 0 73 73" fill="none" xmlns="http://www.w3.org/2000/svg">
<path d="M27.9355 66.0018C16.5875 66.0018 7 55.8196 7 43.7626C7 32.3271 26.372 8.36738 27.197 7.35296C27.2895 7.24824 27.4031 7.16437 27.5304 7.10693C27.6577 7.04948 27.7958 7.01978 27.9355 7.01978C28.0752 7.01978 28.2132 7.04948 28.3406 7.10693C28.4679 7.16437 28.5815 7.24824 28.6739 7.35296C28.7091 7.39483 32.1787 11.6714 36.1765 17.3906C36.2495 17.4929 36.3015 17.6087 36.3295 17.7313C36.3575 17.8539 36.361 17.9808 36.3396 18.1047C36.3183 18.2286 36.2726 18.3471 36.2053 18.4532C36.1379 18.5594 36.0501 18.6511 35.9471 18.7232C35.8441 18.7952 35.7278 18.8461 35.6049 18.873C35.4821 18.8998 35.3552 18.902 35.2315 18.8795C35.1078 18.857 34.9898 18.8102 34.8842 18.7418C34.7787 18.6735 34.6878 18.5848 34.6168 18.4811C32.4725 15.4189 30.2445 12.416 27.9355 9.47601C24.346 14.039 8.90323 34.2018 8.90323 43.7626C8.90323 54.7861 17.619 64.0986 27.9355 64.0986C30.6175 64.0533 33.2576 63.4256 35.673 62.2589C38.0884 61.0923 40.2213 59.4147 41.9242 57.3421C42.0882 57.15 42.3219 57.0308 42.5738 57.0109C42.8257 56.991 43.0752 57.072 43.2674 57.236C43.4596 57.4001 43.5787 57.6338 43.5986 57.8857C43.6185 58.1376 43.5376 58.3871 43.3735 58.5792C41.4917 60.8611 39.1365 62.7068 36.4708 63.9884C33.8052 65.27 30.8929 65.957 27.9355 66.0018Z" fill="white"/>
<path d="M18.42 58.6401C18.2007 58.6398 17.9883 58.5638 17.8186 58.425C15.1563 56.2413 13.1303 53.3817 11.9528 50.146C11.8661 49.9089 11.8772 49.647 11.9835 49.4181C12.0899 49.1891 12.2829 49.0117 12.52 48.9251C12.7571 48.8384 13.0189 48.8494 13.2479 48.9558C13.4769 49.0621 13.6542 49.2551 13.7409 49.4922C14.8006 52.4074 16.6252 54.9837 19.0233 56.951C19.1757 57.0752 19.2858 57.2436 19.3386 57.433C19.3914 57.6223 19.3842 57.8234 19.3181 58.0086C19.2519 58.1937 19.1301 58.3538 18.9693 58.4669C18.8085 58.58 18.6166 58.6405 18.42 58.6401ZM11.1401 47.2264C11.0926 46.9791 11.1451 46.7231 11.286 46.5144C11.4269 46.3057 11.6448 46.1614 11.8919 46.113C12.015 46.0896 12.1416 46.0908 12.2642 46.1164C12.3869 46.142 12.5033 46.1916 12.6068 46.2624C12.7102 46.3331 12.7987 46.4236 12.8671 46.5286C12.9355 46.6336 12.9824 46.7511 13.0053 46.8743C13.0528 47.1216 13.0003 47.3776 12.8594 47.5863C12.7185 47.795 12.5006 47.9394 12.2535 47.9877C12.1941 47.9986 12.134 48.005 12.0737 48.0068C11.8514 48.0062 11.6364 47.9278 11.4659 47.7853C11.2954 47.6427 11.1801 47.445 11.1401 47.2264ZM46.9684 55.534C43.2041 55.534 39.5244 54.4178 36.3946 52.3265C33.2648 50.2352 30.8253 47.2628 29.3848 43.7851C27.9443 40.3074 27.5674 36.4806 28.3018 32.7887C29.0362 29.0968 30.8488 25.7056 33.5105 23.0439C36.1722 20.3822 39.5634 18.5696 43.2553 17.8352C46.9472 17.1008 50.774 17.4777 54.2517 18.9182C57.7294 20.3587 60.7018 22.7982 62.7931 25.928C64.8844 29.0578 66.0006 32.7375 66.0006 36.5018C65.9948 41.5476 63.9878 46.3852 60.4198 49.9532C56.8518 53.5212 52.0142 55.5282 46.9684 55.534ZM46.9684 19.3727C43.5806 19.3727 40.2688 20.3773 37.452 22.2595C34.6351 24.1416 32.4396 26.8168 31.1432 29.9468C29.8467 33.0767 29.5075 36.5208 30.1685 39.8435C30.8294 43.1662 32.4608 46.2183 34.8563 48.6138C37.2518 51.0093 40.3039 52.6407 43.6266 53.3017C46.9494 53.9626 50.3934 53.6234 53.5233 52.3269C56.6533 51.0305 59.3285 48.835 61.2106 46.0181C63.0928 43.2013 64.0974 39.8896 64.0974 36.5018C64.0921 31.9605 62.2857 27.6067 59.0746 24.3955C55.8634 21.1844 51.5096 19.378 46.9684 19.3727Z" fill="white"/>
<path d="M46.9674 44.1147C45.4617 44.1147 43.9898 43.6682 42.7379 42.8317C41.486 41.9952 40.5102 40.8062 39.934 39.4152C39.3578 38.0241 39.207 36.4934 39.5008 35.0166C39.7945 33.5399 40.5196 32.1834 41.5843 31.1187C42.6489 30.054 44.0054 29.3289 45.4822 29.0352C46.959 28.7415 48.4897 28.8922 49.8807 29.4684C51.2718 30.0446 52.4608 31.0204 53.2973 32.2723C54.1338 33.5243 54.5803 34.9961 54.5803 36.5018C54.578 38.5202 53.7752 40.4553 52.348 41.8825C50.9208 43.3097 48.9858 44.1125 46.9674 44.1147ZM46.9674 30.7921C45.8381 30.7921 44.7342 31.127 43.7953 31.7544C42.8563 32.3818 42.1245 33.2735 41.6923 34.3168C41.2602 35.3601 41.1471 36.5082 41.3674 37.6157C41.5877 38.7233 42.1315 39.7407 42.93 40.5392C43.7286 41.3377 44.7459 41.8815 45.8535 42.1018C46.9611 42.3221 48.1091 42.209 49.1524 41.7769C50.1957 41.3447 51.0874 40.6129 51.7148 39.6739C52.3422 38.735 52.6771 37.6311 52.6771 36.5018C52.6753 34.9881 52.0732 33.5368 51.0028 32.4664C49.9324 31.396 48.4812 30.7939 46.9674 30.7921Z" fill="white"/>
<path d="M46.9681 27.9372C46.4035 27.9372 45.8515 27.7698 45.3821 27.4561C44.9126 27.1424 44.5467 26.6965 44.3306 26.1749C44.1145 25.6532 44.058 25.0792 44.1681 24.5254C44.2783 23.9716 44.5502 23.463 44.9494 23.0637C45.3487 22.6644 45.8574 22.3925 46.4112 22.2824C46.965 22.1722 47.539 22.2288 48.0606 22.4449C48.5823 22.6609 49.0281 23.0268 49.3418 23.4963C49.6555 23.9658 49.823 24.5177 49.823 25.0824C49.823 25.8395 49.5222 26.5657 48.9868 27.1011C48.4514 27.6364 47.7253 27.9372 46.9681 27.9372ZM46.9681 24.1308C46.7799 24.1308 46.5959 24.1866 46.4394 24.2911C46.2829 24.3957 46.161 24.5443 46.0889 24.7182C46.0169 24.8921 45.9981 25.0834 46.0348 25.268C46.0715 25.4526 46.1621 25.6222 46.2952 25.7553C46.4283 25.8884 46.5979 25.979 46.7825 26.0157C46.9671 26.0524 47.1584 26.0336 47.3323 25.9616C47.5062 25.8895 47.6548 25.7676 47.7594 25.6111C47.8639 25.4546 47.9197 25.2706 47.9197 25.0824C47.9197 24.83 47.8195 24.5879 47.641 24.4095C47.4626 24.231 47.2205 24.1308 46.9681 24.1308Z" fill="white"/>
<path d="M46.9681 30.7922C46.7157 30.7922 46.4737 30.692 46.2952 30.5135C46.1168 30.3351 46.0165 30.093 46.0165 29.8406V26.9858C46.0165 26.7334 46.1168 26.4914 46.2952 26.3129C46.4737 26.1344 46.7157 26.0342 46.9681 26.0342C47.2205 26.0342 47.4626 26.1344 47.641 26.3129C47.8195 26.4914 47.9197 26.7334 47.9197 26.9858V29.8406C47.9197 30.093 47.8195 30.3351 47.641 30.5135C47.4626 30.692 47.2205 30.7922 46.9681 30.7922ZM46.9681 50.7761C46.4035 50.7761 45.8515 50.6087 45.3821 50.295C44.9126 49.9813 44.5467 49.5354 44.3306 49.0138C44.1145 48.4921 44.058 47.9181 44.1681 47.3643C44.2783 46.8105 44.5502 46.3019 44.9494 45.9026C45.3487 45.5033 45.8574 45.2314 46.4112 45.1213C46.965 45.0111 47.539 45.0677 48.0606 45.2838C48.5823 45.4998 49.0281 45.8657 49.3418 46.3352C49.6555 46.8047 49.823 47.3566 49.823 47.9213C49.823 48.6784 49.5222 49.4046 48.9868 49.94C48.4514 50.4753 47.7253 50.7761 46.9681 50.7761ZM46.9681 46.9697C46.7799 46.9697 46.5959 47.0255 46.4394 47.13C46.2829 47.2346 46.161 47.3832 46.0889 47.5571C46.0169 47.731 45.9981 47.9223 46.0348 48.1069C46.0715 48.2915 46.1621 48.4611 46.2952 48.5942C46.4283 48.7273 46.5979 48.8179 46.7825 48.8546C46.9671 48.8913 47.1584 48.8725 47.3323 48.8004C47.5062 48.7284 47.6548 48.6065 47.7594 48.45C47.8639 48.2935 47.9197 48.1095 47.9197 47.9213C47.9197 47.6689 47.8195 47.4268 47.641 47.2484C47.4626 47.0699 47.2205 46.9697 46.9681 46.9697Z" fill="white"/>
<path d="M46.9682 46.9697C46.7158 46.9697 46.4738 46.8695 46.2953 46.691C46.1169 46.5125 46.0166 46.2705 46.0166 46.0181V43.1633C46.0166 42.9109 46.1169 42.6688 46.2953 42.4904C46.4738 42.3119 46.7158 42.2117 46.9682 42.2117C47.2206 42.2117 47.4626 42.3119 47.6411 42.4904C47.8196 42.6688 47.9198 42.9109 47.9198 43.1633V46.0181C47.9198 46.2705 47.8196 46.5125 47.6411 46.691C47.4626 46.8695 47.2206 46.9697 46.9682 46.9697ZM55.0427 31.2805C54.4783 31.2802 53.9267 31.1126 53.4575 30.7989C52.9884 30.4853 52.6227 30.0396 52.4067 29.5182C52.1907 28.9969 52.1341 28.4232 52.244 27.8696C52.354 27.3161 52.6255 26.8075 53.0243 26.4082C53.3561 26.0759 53.7649 25.8307 54.2142 25.6941C54.6635 25.5576 55.1396 25.534 55.6002 25.6255C56.0609 25.7169 56.4918 25.9206 56.8549 26.2185C57.218 26.5163 57.502 26.8992 57.6817 27.333C57.8614 27.7669 57.9314 28.2384 57.8853 28.7058C57.8392 29.1731 57.6785 29.6219 57.4175 30.0123C57.1565 30.4027 56.8032 30.7227 56.389 30.9439C55.9747 31.1651 55.5123 31.2807 55.0427 31.2805ZM55.0427 27.474C54.7904 27.4738 54.5484 27.5738 54.3699 27.7519C54.1918 27.9303 54.0917 28.1721 54.0917 28.4242C54.0917 28.6763 54.1918 28.9181 54.3699 29.0965C54.5029 29.2296 54.6725 29.3202 54.8571 29.3569C55.0416 29.3936 55.2329 29.3747 55.4068 29.3027C55.5806 29.2307 55.7293 29.1088 55.8338 28.9523C55.9384 28.7959 55.9942 28.6119 55.9943 28.4237C55.9943 28.1714 55.894 27.9293 55.7155 27.7508C55.5371 27.5724 55.295 27.4721 55.0427 27.4721V27.474Z" fill="white"/>
<path d="M51.6782 32.7429C51.4901 32.7429 51.3061 32.6871 51.1497 32.5825C50.9932 32.4779 50.8713 32.3293 50.7993 32.1555C50.7272 31.9816 50.7084 31.7903 50.7451 31.6057C50.7818 31.4212 50.8724 31.2516 51.0054 31.1185L53.0229 29.1011C53.2023 28.9278 53.4427 28.8319 53.6922 28.834C53.9417 28.8362 54.1804 28.9363 54.3569 29.1127C54.5333 29.2891 54.6334 29.5278 54.6355 29.7773C54.6377 30.0268 54.5418 30.2672 54.3684 30.4467L52.351 32.4641C52.1726 32.6426 51.9306 32.7429 51.6782 32.7429ZM38.8933 47.4301C38.329 47.4298 37.7774 47.2623 37.3082 46.9486C36.8391 46.6349 36.4734 46.1893 36.2574 45.6679C36.0414 45.1465 35.9848 44.5728 36.0947 44.0193C36.2046 43.4657 36.4761 42.9572 36.8749 42.5579C37.2068 42.2256 37.6155 41.9803 38.0649 41.8438C38.5142 41.7072 38.9903 41.6837 39.4509 41.7751C39.9115 41.8666 40.3425 42.0703 40.7056 42.3681C41.0686 42.666 41.3526 43.0488 41.5324 43.4827C41.7121 43.9166 41.782 44.3881 41.7359 44.8554C41.6899 45.3228 41.5292 45.7715 41.2682 46.162C41.0072 46.5524 40.6539 46.8724 40.2396 47.0936C39.8254 47.3148 39.3629 47.4304 38.8933 47.4301ZM38.8933 43.6237C38.6411 43.6235 38.3991 43.7234 38.2205 43.9015C38.0424 44.08 37.9424 44.3218 37.9424 44.5739C37.9424 44.826 38.0424 45.0678 38.2205 45.2462C38.3536 45.3792 38.5232 45.4698 38.7077 45.5065C38.8923 45.5432 39.0836 45.5244 39.2575 45.4524C39.4313 45.3804 39.5799 45.2584 39.6845 45.102C39.7891 44.9455 39.8449 44.7616 39.8449 44.5734C39.8449 44.321 39.7447 44.079 39.5662 43.9005C39.3877 43.722 39.1457 43.6218 38.8933 43.6218V43.6237Z" fill="white"/>
<path d="M40.2395 44.1813C40.0513 44.1813 39.8674 44.1255 39.7109 44.0209C39.5545 43.9163 39.4325 43.7677 39.3605 43.5939C39.2885 43.42 39.2697 43.2287 39.3064 43.0441C39.3431 42.8596 39.4337 42.69 39.5667 42.5569L41.5841 40.5395C41.7636 40.3662 42.004 40.2702 42.2535 40.2724C42.503 40.2746 42.7417 40.3747 42.9181 40.5511C43.0946 40.7275 43.1946 40.9662 43.1968 41.2157C43.199 41.4652 43.103 41.7056 42.9297 41.8851L40.9123 43.9025C40.7339 44.081 40.4919 44.1813 40.2395 44.1813ZM58.3868 39.3567C57.8221 39.3567 57.2702 39.1892 56.8007 38.8755C56.3312 38.5618 55.9653 38.116 55.7492 37.5943C55.5332 37.0727 55.4766 36.4986 55.5868 35.9449C55.6969 35.3911 55.9688 34.8824 56.3681 34.4831C56.7673 34.0839 57.276 33.812 57.8298 33.7018C58.3836 33.5917 58.9576 33.6482 59.4792 33.8643C60.0009 34.0804 60.4468 34.4463 60.7605 34.9158C61.0742 35.3852 61.2416 35.9372 61.2416 36.5018C61.2416 37.259 60.9408 37.9851 60.4054 38.5205C59.87 39.0559 59.1439 39.3567 58.3868 39.3567ZM58.3868 35.5502C58.1985 35.5502 58.0146 35.606 57.8581 35.7106C57.7016 35.8151 57.5796 35.9638 57.5076 36.1376C57.4356 36.3115 57.4167 36.5029 57.4534 36.6875C57.4901 36.8721 57.5808 37.0416 57.7139 37.1747C57.8469 37.3078 58.0165 37.3984 58.2011 37.4351C58.3857 37.4719 58.577 37.453 58.7509 37.381C58.9248 37.309 59.0734 37.187 59.178 37.0305C59.2826 36.874 59.3384 36.69 59.3384 36.5018C59.3384 36.2494 59.2381 36.0074 59.0596 35.8289C58.8812 35.6505 58.6391 35.5502 58.3868 35.5502Z" fill="white"/>
<path d="M56.4837 37.4534H53.6288C53.3765 37.4534 53.1344 37.3532 52.956 37.1747C52.7775 36.9962 52.6772 36.7542 52.6772 36.5018C52.6772 36.2494 52.7775 36.0074 52.956 35.8289C53.1344 35.6505 53.3765 35.5502 53.6288 35.5502H56.4837C56.7361 35.5502 56.9781 35.6505 57.1566 35.8289C57.335 36.0074 57.4353 36.2494 57.4353 36.5018C57.4353 36.7542 57.335 36.9962 57.1566 37.1747C56.9781 37.3532 56.7361 37.4534 56.4837 37.4534ZM35.5482 39.3567C34.9836 39.3567 34.4316 39.1892 33.9621 38.8755C33.4927 38.5618 33.1267 38.116 32.9107 37.5943C32.6946 37.0727 32.6381 36.4986 32.7482 35.9449C32.8584 35.3911 33.1303 34.8824 33.5295 34.4831C33.9288 34.0839 34.4375 33.812 34.9912 33.7018C35.545 33.5917 36.119 33.6482 36.6407 33.8643C37.1624 34.0804 37.6082 34.4463 37.9219 34.9158C38.2356 35.3852 38.403 35.9372 38.403 36.5018C38.403 37.259 38.1023 37.9851 37.5669 38.5205C37.0315 39.0559 36.3054 39.3567 35.5482 39.3567ZM35.5482 35.5502C35.36 35.5502 35.176 35.606 35.0195 35.7106C34.863 35.8151 34.741 35.9638 34.669 36.1376C34.597 36.3115 34.5782 36.5029 34.6149 36.6875C34.6516 36.8721 34.7422 37.0416 34.8753 37.1747C35.0084 37.3078 35.178 37.3984 35.3625 37.4351C35.5471 37.4719 35.7385 37.453 35.9124 37.381C36.0863 37.309 36.2349 37.187 36.3394 37.0305C36.444 36.874 36.4998 36.69 36.4998 36.5018C36.4998 36.2494 36.3996 36.0074 36.2211 35.8289C36.0426 35.6505 35.8006 35.5502 35.5482 35.5502Z" fill="white"/>
<path d="M40.3065 37.4535H37.4516C37.1992 37.4535 36.9572 37.3533 36.7787 37.1748C36.6003 36.9963 36.5 36.7543 36.5 36.5019C36.5 36.2495 36.6003 36.0075 36.7787 35.829C36.9572 35.6506 37.1992 35.5503 37.4516 35.5503H40.3065C40.5588 35.5503 40.8009 35.6506 40.9793 35.829C41.1578 36.0075 41.2581 36.2495 41.2581 36.5019C41.2581 36.7543 41.1578 36.9963 40.9793 37.1748C40.8009 37.3533 40.5588 37.4535 40.3065 37.4535ZM55.0422 47.4302C54.5726 47.4305 54.1101 47.3149 53.6959 47.0937C53.2816 46.8725 52.9283 46.5525 52.6673 46.1621C52.4063 45.7716 52.2456 45.3229 52.1996 44.8555C52.1535 44.3882 52.2234 43.9167 52.4031 43.4828C52.5829 43.0489 52.8669 42.6661 53.2299 42.3682C53.593 42.0704 54.024 41.8667 54.4846 41.7752C54.9452 41.6838 55.4213 41.7073 55.8706 41.8439C56.32 41.9804 56.7287 42.2257 57.0605 42.558C57.4594 42.9573 57.7309 43.4658 57.8408 44.0194C57.9507 44.5729 57.8941 45.1466 57.6781 45.668C57.4621 46.1894 57.0964 46.635 56.6273 46.9487C56.1581 47.2624 55.6065 47.4299 55.0422 47.4302ZM55.0422 43.6238C54.822 43.6237 54.6086 43.7 54.4384 43.8397C54.2682 43.9793 54.1517 44.1736 54.1087 44.3896C54.0657 44.6055 54.0989 44.8296 54.2026 45.0238C54.3064 45.218 54.4743 45.3702 54.6776 45.4545C54.881 45.5388 55.1074 45.5499 55.3181 45.4861C55.5287 45.4222 55.7108 45.2872 55.8331 45.1042C55.9555 44.9212 56.0106 44.7014 55.989 44.4823C55.9675 44.2632 55.8706 44.0583 55.715 43.9026C55.5362 43.7248 55.2943 43.6252 55.0422 43.6257V43.6238Z" fill="white"/>
<path d="M53.6958 44.1815C53.4435 44.1814 53.2015 44.0811 53.0231 43.9027L51.0056 41.8853C50.8323 41.7058 50.7364 41.4654 50.7385 41.2159C50.7407 40.9664 50.8408 40.7277 51.0172 40.5513C51.1937 40.3748 51.4323 40.2747 51.6819 40.2726C51.9314 40.2704 52.1717 40.3663 52.3512 40.5397L54.3686 42.5571C54.5017 42.6902 54.5923 42.8597 54.629 43.0443C54.6657 43.2289 54.6468 43.4202 54.5748 43.594C54.5028 43.7679 54.3809 43.9165 54.2244 44.0211C54.068 44.1256 53.884 44.1815 53.6958 44.1815ZM38.8935 31.2805C38.4239 31.2807 37.9615 31.1651 37.5472 30.9439C37.1329 30.7227 36.7796 30.4027 36.5186 30.0123C36.2576 29.6219 36.097 29.1731 36.0509 28.7058C36.0048 28.2384 36.0747 27.7669 36.2545 27.333C36.4342 26.8992 36.7182 26.5163 37.0813 26.2185C37.4443 25.9206 37.8753 25.7169 38.3359 25.6255C38.7966 25.534 39.2726 25.5576 39.722 25.6941C40.1713 25.8307 40.58 26.0759 40.9119 26.4082C41.3107 26.8075 41.5822 27.3161 41.6921 27.8696C41.802 28.4232 41.7454 28.9969 41.5294 29.5182C41.3134 30.0396 40.9478 30.4853 40.4786 30.7989C40.0095 31.1126 39.4579 31.2802 38.8935 31.2805ZM38.8935 27.474C38.6733 27.474 38.46 27.5503 38.2898 27.6899C38.1195 27.8295 38.003 28.0239 37.96 28.2398C37.917 28.4557 37.9502 28.6799 38.054 28.8741C38.1577 29.0683 38.3256 29.2205 38.529 29.3047C38.7324 29.389 38.9587 29.4002 39.1694 29.3363C39.3801 29.2725 39.5621 29.1375 39.6845 28.9545C39.8068 28.7714 39.8619 28.5516 39.8404 28.3325C39.8188 28.1134 39.722 27.9086 39.5663 27.7528C39.3876 27.5751 39.1456 27.4755 38.8935 27.4759V27.474Z" fill="white"/>
<path d="M42.2571 32.7429C42.0048 32.7429 41.7628 32.6426 41.5844 32.4641L39.5669 30.4467C39.3936 30.2672 39.2977 30.0268 39.2998 29.7773C39.302 29.5278 39.4021 29.2891 39.5785 29.1127C39.755 28.9363 39.9936 28.8362 40.2431 28.834C40.4927 28.8319 40.733 28.9278 40.9125 29.1011L42.9299 31.1185C43.063 31.2516 43.1536 31.4212 43.1903 31.6057C43.227 31.7903 43.2081 31.9816 43.1361 32.1555C43.0641 32.3293 42.9422 32.4779 42.7857 32.5825C42.6293 32.6871 42.4453 32.7429 42.2571 32.7429Z" fill="white"/>
<path d="M46.9682 34.5985C47.4938 34.5985 47.9198 34.1725 47.9198 33.6469C47.9198 33.1214 47.4938 32.6953 46.9682 32.6953C46.4427 32.6953 46.0166 33.1214 46.0166 33.6469C46.0166 34.1725 46.4427 34.5985 46.9682 34.5985Z" fill="white"/>
<path d="M46.9682 40.3083C47.4938 40.3083 47.9198 39.8822 47.9198 39.3566C47.9198 38.8311 47.4938 38.405 46.9682 38.405C46.4427 38.405 46.0166 38.8311 46.0166 39.3566C46.0166 39.8822 46.4427 40.3083 46.9682 40.3083Z" fill="white"/>
<path d="M44.1127 37.4535C44.6383 37.4535 45.0644 37.0275 45.0644 36.5019C45.0644 35.9763 44.6383 35.5503 44.1127 35.5503C43.5872 35.5503 43.1611 35.9763 43.1611 36.5019C43.1611 37.0275 43.5872 37.4535 44.1127 37.4535Z" fill="white"/>
<path d="M49.8227 37.4535C50.3483 37.4535 50.7743 37.0275 50.7743 36.5019C50.7743 35.9763 50.3483 35.5503 49.8227 35.5503C49.2971 35.5503 48.8711 35.9763 48.8711 36.5019C48.8711 37.0275 49.2971 37.4535 49.8227 37.4535Z" fill="white"/>
</svg>
