<svg width="73" height="73" viewBox="0 0 73 73" fill="none" xmlns="http://www.w3.org/2000/svg">
<path d="M53.3739 49.1388C53.633 49.1388 53.8814 49.0359 54.0645 48.8528C54.2477 48.6696 54.3506 48.4212 54.3506 48.1622V42.926C54.3506 40.8071 52.6329 39.0894 50.5139 39.0894H44.8785C42.7597 39.0894 41.0419 40.807 41.0419 42.926V48.1622C41.0419 48.4212 41.1448 48.6696 41.328 48.8528C41.5111 49.0359 41.7595 49.1388 42.0186 49.1388H53.3739Z" stroke="white" stroke-width="2" stroke-miterlimit="10" stroke-linecap="round" stroke-linejoin="round"/>
<path d="M47.6962 39.0893C45.1952 39.0893 43.1678 37.0619 43.1678 34.5609C43.1678 32.0599 45.1952 30.0325 47.6962 30.0325C50.1972 30.0325 52.2246 32.0599 52.2246 34.5609C52.2246 37.0619 50.1972 39.0893 47.6962 39.0893Z" stroke="white" stroke-width="2" stroke-miterlimit="10" stroke-linecap="round" stroke-linejoin="round"/>
<path d="M43.0342 32.918H37.1779C35.0591 32.918 33.3413 34.6356 33.3413 36.7546V41.9262C33.3413 42.0629 33.3682 42.1982 33.4205 42.3245C33.4728 42.4508 33.5495 42.5655 33.6461 42.6622C33.7428 42.7588 33.8575 42.8355 33.9838 42.8878C34.1101 42.9401 34.2454 42.967 34.3821 42.967H41.0475" stroke="white" stroke-width="2" stroke-miterlimit="10" stroke-linecap="round" stroke-linejoin="round"/>
<path d="M39.995 32.9179C37.494 32.9179 35.4666 30.8905 35.4666 28.3895C35.4666 25.8885 37.494 23.8611 39.995 23.8611C42.496 23.8611 44.5234 25.8885 44.5234 28.3895C44.5234 30.8905 42.496 32.9179 39.995 32.9179Z" stroke="white" stroke-width="2" stroke-miterlimit="10" stroke-linecap="round" stroke-linejoin="round"/>
<path d="M54.3446 42.967H61.01C61.286 42.967 61.5507 42.8574 61.7459 42.6622C61.9411 42.467 62.0508 42.2022 62.0508 41.9262V36.7546C62.0508 34.6357 60.3331 32.918 58.2141 32.918H52.2243" stroke="white" stroke-width="2" stroke-miterlimit="10" stroke-linecap="round" stroke-linejoin="round"/>
<path d="M55.3974 32.9179C52.8964 32.9179 50.8689 30.8905 50.8689 28.3895C50.8689 25.8885 52.8964 23.8611 55.3974 23.8611C57.8983 23.8611 59.9258 25.8885 59.9258 28.3895C59.9258 30.8905 57.8983 32.9179 55.3974 32.9179Z" stroke="white" stroke-width="2" stroke-miterlimit="10" stroke-linecap="round" stroke-linejoin="round"/>
<path d="M24.6684 30.1625C27.445 20.051 36.703 12.6221 47.6962 12.6221C60.8837 12.6219 71.5742 23.3124 71.5742 36.4999C71.5742 49.6874 60.8837 60.3779 47.6962 60.3779C36.7109 60.3779 27.4581 52.9596 24.6744 42.859M13.7578 48.6424C14.0168 48.6424 14.2652 48.5395 14.4484 48.3564C14.6316 48.1732 14.7344 47.9248 14.7344 47.6658V42.4297C14.7344 40.3109 13.0168 38.5931 10.8978 38.5931H5.26242C3.14356 38.5931 1.42578 40.3107 1.42578 42.4297V47.6659C1.42578 47.7942 1.45104 47.9212 1.50012 48.0397C1.54921 48.1582 1.62115 48.2658 1.71184 48.3565C1.80253 48.4472 1.91019 48.5192 2.02869 48.5682C2.14718 48.6173 2.27419 48.6426 2.40244 48.6426H13.7578V48.6424Z" stroke="white" stroke-width="2" stroke-miterlimit="10" stroke-linecap="round" stroke-linejoin="round"/>
<path d="M8.07997 38.593C5.57899 38.593 3.55155 36.5655 3.55155 34.0646C3.55155 31.5636 5.57899 29.5361 8.07997 29.5361C10.581 29.5361 12.6084 31.5636 12.6084 34.0646C12.6084 36.5655 10.581 38.593 8.07997 38.593Z" stroke="white" stroke-width="2" stroke-miterlimit="10" stroke-linecap="round" stroke-linejoin="round"/>
<path d="M23.5 38C22.6716 38 22 37.3284 22 36.5C22 35.6716 22.6716 35 23.5 35C24.3284 35 25 35.6716 25 36.5C25 37.3284 24.3284 38 23.5 38Z" fill="white"/>
</svg>
