<svg width="228" height="35" viewBox="0 0 228 35" fill="none" xmlns="http://www.w3.org/2000/svg">
<g clip-path="url(#clip0_89_2)">
<path d="M16.4798 34.665C12.9498 34.665 10.0098 34.095 7.63977 32.945C5.26977 31.805 3.47977 30.325 2.25977 28.515C1.03977 26.705 0.289766 24.735 0.00976562 22.595H11.3798C11.5698 23.615 12.0598 24.485 12.8598 25.215C13.6598 25.945 14.7898 26.305 16.2498 26.305C16.8998 26.305 17.4598 26.225 17.9198 26.055C18.3798 25.885 18.7198 25.655 18.9398 25.355C19.1598 25.065 19.2598 24.765 19.2598 24.455C19.2598 23.995 19.0398 23.575 18.5898 23.205C18.1398 22.835 17.5898 22.505 16.9398 22.235C16.2898 21.955 15.2698 21.565 13.8798 21.075C11.6498 20.335 9.78977 19.595 8.28977 18.875C6.78977 18.145 5.49977 17.145 4.40977 15.855C3.32977 14.575 2.78977 12.955 2.78977 11.005C2.78977 9.05499 3.34977 7.35499 4.47977 5.71499C5.60977 4.07499 7.25977 2.76499 9.44977 1.79499C11.6298 0.824991 14.2098 0.334991 17.1798 0.334991C20.3998 0.334991 23.1098 0.854991 25.3298 1.88499C27.5398 2.92499 29.2398 4.27499 30.4298 5.94499C31.6198 7.61499 32.3698 9.42499 32.6798 11.375H21.1198C20.9998 10.635 20.6298 9.99499 20.0298 9.47499C19.4298 8.94499 18.5498 8.68499 17.4098 8.68499C16.8798 8.68499 16.4298 8.77499 16.0398 8.94499C15.6498 9.11499 15.3598 9.32499 15.1598 9.57499C14.9598 9.82499 14.8598 10.075 14.8598 10.315C14.8598 10.625 15.0498 10.905 15.4198 11.145C15.7898 11.395 16.3498 11.655 17.0898 11.935C17.8298 12.215 18.6198 12.475 19.4598 12.725C21.7798 13.435 23.7698 14.165 25.4198 14.905C27.0698 15.645 28.5098 16.695 29.7398 18.035C30.9598 19.375 31.5698 21.055 31.5698 23.065C31.5698 25.075 30.9598 27.015 29.7398 28.795C28.5198 30.575 26.7698 31.995 24.4998 33.065C22.2298 34.135 19.5598 34.665 16.4898 34.665H16.4798Z" fill="url(#paint0_linear_89_2)"/>
<path d="M83.1299 33.735L88.8399 1.26498H97.4299L106.62 24.225H107.08L107.31 20.285L110.65 1.26498H117.61L111.9 33.735H103.31L94.1199 10.775H93.6599L93.4299 14.715L90.0899 33.735H83.1299Z" fill="url(#paint1_linear_89_2)"/>
<path d="M116.67 33.735L122.38 1.26498H129.34L123.63 33.735H116.67Z" fill="url(#paint2_linear_89_2)"/>
<path d="M125.169 33.735L136.349 17.735L131.339 1.26498H138.489L142.199 14.485H144.519L152.869 1.26498H160.569L149.799 17.735L155.319 33.735H148.079L143.899 20.975H141.579L132.949 33.735H125.149H125.169Z" fill="url(#paint3_linear_89_2)"/>
<path d="M156.54 33.735L162.25 1.26498H169.21L163.5 33.735H156.54Z" fill="url(#paint4_linear_89_2)"/>
<path d="M169.43 33.735L175.14 1.26498H179.69L192.36 29.885L197.42 1.26498H200.67L194.96 33.735H190.41L177.74 5.11498L172.68 33.735H169.43Z" fill="url(#paint5_linear_89_2)"/>
<path d="M199.67 33.735L205.38 1.26498H227.52L226.96 4.37498H208.07L206.07 15.785H221.48L220.92 18.895H205.56L203.47 30.635H222.31L221.8 33.745H199.66L199.67 33.735Z" fill="url(#paint6_linear_89_2)"/>
<path d="M71.0698 33.895H44.2798C41.4898 33.895 38.8698 32.665 37.0898 30.525C35.3098 28.385 34.5798 25.585 35.0798 22.845L37.6898 8.715C38.5098 4.285 42.3798 1.065 46.8898 1.065H73.6798C76.4698 1.065 79.0898 2.295 80.8698 4.435C82.6498 6.575 83.3798 9.375 82.8798 12.115L80.2698 26.245C79.4498 30.675 75.5798 33.895 71.0698 33.895ZM46.8898 10.005C46.6998 10.005 46.5298 10.145 46.4998 10.335L43.8898 24.465C43.8898 24.465 43.8598 24.655 43.9798 24.795C44.0998 24.935 44.2398 24.935 44.2898 24.935H71.0798C71.2698 24.935 71.4398 24.795 71.4698 24.605L74.0798 10.475C74.0798 10.475 74.1098 10.285 73.9898 10.145C73.8698 10.005 73.7298 10.005 73.6798 10.005H46.8898Z" fill="url(#paint7_linear_89_2)"/>
</g>
<defs>
<linearGradient id="paint0_linear_89_2" x1="16.3448" y1="0.334991" x2="16.3448" y2="34.665" gradientUnits="userSpaceOnUse">
<stop stop-color="#EE5E0D"/>
<stop offset="1" stop-color="#DC1616"/>
</linearGradient>
<linearGradient id="paint1_linear_89_2" x1="100.37" y1="1.26498" x2="100.37" y2="33.735" gradientUnits="userSpaceOnUse">
<stop stop-color="#EE5E0D"/>
<stop offset="1" stop-color="#DC1616"/>
</linearGradient>
<linearGradient id="paint2_linear_89_2" x1="123.005" y1="1.26498" x2="123.005" y2="33.735" gradientUnits="userSpaceOnUse">
<stop stop-color="#EE5E0D"/>
<stop offset="1" stop-color="#DC1616"/>
</linearGradient>
<linearGradient id="paint3_linear_89_2" x1="142.859" y1="1.26498" x2="142.859" y2="33.735" gradientUnits="userSpaceOnUse">
<stop stop-color="#EE5E0D"/>
<stop offset="1" stop-color="#DC1616"/>
</linearGradient>
<linearGradient id="paint4_linear_89_2" x1="162.875" y1="1.26498" x2="162.875" y2="33.735" gradientUnits="userSpaceOnUse">
<stop stop-color="#EE5E0D"/>
<stop offset="1" stop-color="#DC1616"/>
</linearGradient>
<linearGradient id="paint5_linear_89_2" x1="185.05" y1="1.26498" x2="185.05" y2="33.735" gradientUnits="userSpaceOnUse">
<stop stop-color="#EE5E0D"/>
<stop offset="1" stop-color="#DC1616"/>
</linearGradient>
<linearGradient id="paint6_linear_89_2" x1="213.59" y1="1.26498" x2="213.59" y2="33.745" gradientUnits="userSpaceOnUse">
<stop stop-color="#EE5E0D"/>
<stop offset="1" stop-color="#DC1616"/>
</linearGradient>
<linearGradient id="paint7_linear_89_2" x1="58.9798" y1="1.065" x2="58.9798" y2="33.895" gradientUnits="userSpaceOnUse">
<stop stop-color="#EE5E0D"/>
<stop offset="1" stop-color="#DC1616"/>
</linearGradient>
<clipPath id="clip0_89_2">
<rect width="227.52" height="34.33" fill="white" transform="translate(0 0.334991)"/>
</clipPath>
</defs>
</svg>
