<svg width="106" height="106" viewBox="0 0 106 106" fill="none" xmlns="http://www.w3.org/2000/svg">
<circle cx="53" cy="53" r="51.5" fill="#D9D9D9" stroke="#C24747" stroke-width="3"/>
<path d="M54.9252 28.15C52.7552 26.505 49.9202 26.33 47.5752 27.625L33.3302 35.57C32.0002 36.305 30.4602 36.725 28.9202 36.725H25.4202C23.4252 36.725 21.4652 37.67 20.1002 39.315C18.7702 40.89 18.0352 42.955 18.0352 45.16V60.91C18.0352 63.115 18.7702 65.18 20.1002 66.755C21.5002 68.4 23.4252 69.31 25.4202 69.31H26.8902C29.7602 69.31 32.5602 70.045 35.0802 71.445L47.6102 78.41C48.6252 78.97 49.7452 79.25 50.8652 79.25C52.3002 79.25 53.7352 78.795 54.9602 77.885C57.0602 76.345 58.2852 73.685 58.2852 70.85V35.185C58.2852 32.35 57.0252 29.69 54.9602 28.15H54.9252ZM25.4202 65.775C24.4402 65.775 23.4952 65.285 22.7602 64.445C21.9902 63.5 21.5352 62.205 21.5352 60.875V45.125C21.5352 43.76 21.9902 42.465 22.7602 41.555C23.4952 40.68 24.4402 40.225 25.4202 40.225H27.2052V65.845H25.4552L25.4202 65.775ZM54.7502 70.815C54.7502 72.53 54.0152 74.175 52.8252 75.05C52.33 75.4418 51.7296 75.6776 51.1002 75.7275C50.4708 75.7773 49.8408 75.639 49.2902 75.33L36.7952 68.365C34.9052 67.315 32.8402 66.615 30.7052 66.195V40.085C32.2102 39.875 33.7152 39.385 35.0452 38.615L49.2902 30.67C50.4452 30.04 51.7402 30.11 52.8252 30.95C54.0152 31.825 54.7502 33.47 54.7502 35.185V70.85V70.815ZM63.9902 41.835C63.2902 41.135 62.2052 41.135 61.5052 41.835C60.8052 42.5 60.8052 43.62 61.5052 44.32C63.8152 46.63 65.1102 49.71 65.1102 53C65.1102 56.29 63.8152 59.37 61.5052 61.68C60.8052 62.38 60.8052 63.465 61.5052 64.165C61.6636 64.3302 61.8538 64.4616 62.0643 64.5514C62.2748 64.6411 62.5013 64.6874 62.7302 64.6874C62.959 64.6874 63.1855 64.6411 63.396 64.5514C63.6065 64.4616 63.7967 64.3302 63.9552 64.165C66.9302 61.19 68.5752 57.235 68.5752 53C68.5752 48.765 66.9302 44.81 63.9552 41.835H63.9902Z" fill="#C24747"/>
<path d="M70.9548 35.185C70.2898 34.485 69.2048 34.415 68.4698 35.08C67.7698 35.745 67.6998 36.83 68.3648 37.565C72.2148 41.8 74.3498 47.295 74.3498 53.035C74.3498 58.775 72.2148 64.235 68.3648 68.505C67.6998 69.205 67.7698 70.325 68.4698 70.99C68.8198 71.305 69.2398 71.445 69.6598 71.445C70.1498 71.445 70.6048 71.235 70.9548 70.885C75.3998 65.985 77.8498 59.685 77.8498 53.07C77.8498 46.455 75.3998 40.12 70.9548 35.255V35.185Z" fill="#C24747"/>
<path d="M78.06 28.01C77.395 27.31 76.275 27.275 75.575 27.94C74.875 28.605 74.84 29.725 75.505 30.425C81.315 36.55 84.5 44.565 84.5 53C84.5 61.435 81.315 69.45 75.54 75.575C75.3047 75.8242 75.1471 76.1365 75.0864 76.4737C75.0257 76.811 75.0645 77.1586 75.1982 77.4741C75.3318 77.7897 75.5545 78.0595 75.8389 78.2505C76.1234 78.4416 76.4573 78.5457 76.8 78.55C77.255 78.55 77.745 78.375 78.06 77.99C84.465 71.2 87.965 62.345 87.965 53.035C87.965 43.725 84.43 34.835 78.025 28.045L78.06 28.01Z" fill="#C24747"/>
</svg>
