<svg width="106" height="106" viewBox="0 0 106 106" fill="none" xmlns="http://www.w3.org/2000/svg">
<circle cx="53" cy="53" r="51.5" fill="#D9D9D9" stroke="#C24747" stroke-width="3"/>
<path d="M79.0731 20.0023H46.491C44.6502 19.9756 42.8739 20.6799 41.5516 21.9609C40.2292 23.2418 39.4688 24.9949 39.437 26.8356V43.4294H26.927C25.0646 43.3816 23.2591 44.0739 21.9062 45.3548C20.5533 46.6356 19.7632 48.4004 19.709 50.2627V71.1201C19.7632 72.9824 20.5533 74.7472 21.9062 76.028C23.2591 77.3088 25.0646 78.0012 26.927 77.9534H27.107V84.5093C27.1058 84.7897 27.184 85.0648 27.3326 85.3026C27.4812 85.5405 27.6942 85.7313 27.9468 85.8531C28.1994 85.9749 28.4814 86.0227 28.76 85.9908C29.0387 85.959 29.3026 85.8489 29.5212 85.6733L39.2077 77.9547H59.424C61.2872 77.982 63.0851 77.2693 64.4235 75.9728C65.7618 74.6763 66.5313 72.9018 66.5631 71.0388V54.5264H66.7924L76.4776 62.245C76.6966 62.42 76.9605 62.5295 77.2389 62.561C77.5174 62.5925 77.7991 62.5447 78.0516 62.423C78.3041 62.3014 78.517 62.1108 78.6659 61.8734C78.8148 61.636 78.8936 61.3613 78.8931 61.081V54.5252H79.0731C80.9353 54.5729 82.7406 53.8807 84.0935 52.6002C85.4463 51.3196 86.2366 49.5551 86.2911 47.6931V26.8356C86.2369 24.9734 85.4468 23.2085 84.0939 21.9277C82.741 20.6469 80.9355 19.9545 79.0731 20.0023ZM64.0971 71.04C64.0651 72.2488 63.5553 73.3956 62.6794 74.2292C61.8035 75.0628 60.6329 75.5153 59.424 75.4874H38.934C38.5531 75.4878 38.1836 75.6173 37.8859 75.8549L29.573 82.4773V77.1261C29.5694 76.6887 29.3926 76.2707 29.0812 75.9635C28.7699 75.6563 28.3495 75.4851 27.9121 75.4874H26.9257C25.7176 75.5346 24.5399 75.1018 23.6497 74.2835C22.7596 73.4652 22.2294 72.328 22.175 71.1201V50.2627C22.2294 49.0546 22.7598 47.9172 23.6502 47.0989C24.5406 46.2805 25.7186 45.8479 26.927 45.8954H39.437V47.6931C39.4688 49.5338 40.2292 51.2869 41.5516 52.5678C42.8739 53.8488 44.6502 54.5531 46.491 54.5264H64.0971V71.04ZM83.8251 47.6931C83.7707 48.9012 83.2403 50.0386 82.3499 50.8569C81.4595 51.6752 80.2815 52.1079 79.0731 52.0604H78.0867C77.6496 52.0584 77.2295 52.2297 76.9184 52.5369C76.6073 52.844 76.4307 53.2619 76.4271 53.699V59.0503L68.1179 52.4303C67.8194 52.1913 67.4485 52.0609 67.0661 52.0604H46.4898C45.3031 52.0869 44.1543 51.6422 43.2947 50.8238C42.4351 50.0053 41.9347 48.8796 41.903 47.6931V26.8356C41.9347 25.6489 42.4352 24.523 43.2951 23.7045C44.155 22.886 45.3042 22.4415 46.491 22.4683H79.0731C80.2815 22.4208 81.4595 22.8535 82.3499 23.6718C83.2403 24.4901 83.7707 25.6275 83.8251 26.8356V47.6931Z" fill="#C24747"/>
<path d="M34.5048 62.5409C35.5262 62.5409 36.3543 61.7129 36.3543 60.6914C36.3543 59.67 35.5262 58.8419 34.5048 58.8419C33.4833 58.8419 32.6553 59.67 32.6553 60.6914C32.6553 61.7129 33.4833 62.5409 34.5048 62.5409Z" fill="#C24747"/>
<path d="M43.1356 62.5409C44.1571 62.5409 44.9851 61.7129 44.9851 60.6914C44.9851 59.67 44.1571 58.8419 43.1356 58.8419C42.1142 58.8419 41.2861 59.67 41.2861 60.6914C41.2861 61.7129 42.1142 62.5409 43.1356 62.5409Z" fill="#C24747"/>
<path d="M51.7675 62.5409C52.7889 62.5409 53.617 61.7129 53.617 60.6914C53.617 59.67 52.7889 58.8419 51.7675 58.8419C50.746 58.8419 49.918 59.67 49.918 60.6914C49.918 61.7129 50.746 62.5409 51.7675 62.5409Z" fill="#C24747"/>
<path d="M60.3978 31.0993H50.5338C50.2068 31.0993 49.8932 30.9694 49.6619 30.7382C49.4307 30.5069 49.3008 30.1933 49.3008 29.8663C49.3008 29.5393 49.4307 29.2257 49.6619 28.9944C49.8932 28.7632 50.2068 28.6333 50.5338 28.6333H60.3978C60.7248 28.6333 61.0384 28.7632 61.2697 28.9944C61.5009 29.2257 61.6308 29.5393 61.6308 29.8663C61.6308 30.1933 61.5009 30.5069 61.2697 30.7382C61.0384 30.9694 60.7248 31.0993 60.3978 31.0993ZM75.1938 38.4973H50.5338C50.2068 38.4973 49.8932 38.3674 49.6619 38.1362C49.4307 37.9049 49.3008 37.5913 49.3008 37.2643C49.3008 36.9373 49.4307 36.6237 49.6619 36.3925C49.8932 36.1612 50.2068 36.0313 50.5338 36.0313H75.1938C75.5208 36.0313 75.8345 36.1612 76.0657 36.3925C76.2969 36.6237 76.4268 36.9373 76.4268 37.2643C76.4268 37.5913 76.2969 37.9049 76.0657 38.1362C75.8345 38.3674 75.5208 38.4973 75.1938 38.4973ZM75.1938 45.8953H70.4924C70.1654 45.8953 69.8518 45.7654 69.6205 45.5342C69.3893 45.303 69.2594 44.9893 69.2594 44.6623C69.2594 44.3353 69.3893 44.0217 69.6205 43.7905C69.8518 43.5592 70.1654 43.4293 70.4924 43.4293H75.1938C75.5208 43.4293 75.8345 43.5592 76.0657 43.7905C76.2969 44.0217 76.4268 44.3353 76.4268 44.6623C76.4268 44.9893 76.2969 45.303 76.0657 45.5342C75.8345 45.7654 75.5208 45.8953 75.1938 45.8953ZM65.3298 45.8953H50.5338C50.2068 45.8953 49.8932 45.7654 49.6619 45.5342C49.4307 45.303 49.3008 44.9893 49.3008 44.6623C49.3008 44.3353 49.4307 44.0217 49.6619 43.7905C49.8932 43.5592 50.2068 43.4293 50.5338 43.4293H65.3298C65.6568 43.4293 65.9704 43.5592 66.2017 43.7905C66.4329 44.0217 66.5628 44.3353 66.5628 44.6623C66.5628 44.9893 66.4329 45.303 66.2017 45.5342C65.9704 45.7654 65.6568 45.8953 65.3298 45.8953Z" fill="#C24747"/>
</svg>
