<svg width="73" height="73" viewBox="0 0 73 73" fill="none" xmlns="http://www.w3.org/2000/svg">
<mask id="mask0_98_866" style="mask-type:luminance" maskUnits="userSpaceOnUse" x="7" y="7" width="59" height="59">
<path d="M7 7H66V66H7V7Z" fill="white"/>
</mask>
<g mask="url(#mask0_98_866)">
<path d="M18.3443 54.9407C21.8556 54.9407 24.7169 52.0793 24.7169 48.5679C24.7169 45.0597 21.8556 42.1983 18.3443 42.1983C14.8363 42.1983 11.9717 45.0597 11.9717 48.5679C11.9717 52.0793 14.8363 54.9407 18.3443 54.9407Z" stroke="white" stroke-width="2" stroke-miterlimit="10" stroke-linecap="round" stroke-linejoin="round"/>
<path d="M14.1013 53.3238C10.7468 53.8333 8.15332 56.747 8.15332 60.2387V64.8477H28.5352V60.2387C28.5352 56.747 25.945 53.8333 22.5872 53.3238" stroke="white" stroke-width="2" stroke-miterlimit="10" stroke-linecap="round" stroke-linejoin="round"/>
<path d="M54.6526 54.9407C58.1639 54.9407 61.0251 52.0793 61.0251 48.5679C61.0251 45.0597 58.1639 42.1983 54.6526 42.1983C51.1445 42.1983 48.2832 45.0597 48.2832 48.5679C48.2832 52.0793 51.1445 54.9407 54.6526 54.9407Z" stroke="white" stroke-width="2" stroke-miterlimit="10" stroke-linecap="round" stroke-linejoin="round"/>
<path d="M50.41 53.3238C47.0554 53.8333 44.4619 56.747 44.4619 60.2387V64.8477H64.8471V60.2387C64.8471 56.747 62.2536 53.8333 58.8959 53.3238" stroke="white" stroke-width="2" stroke-miterlimit="10" stroke-linecap="round" stroke-linejoin="round"/>
<path d="M54.8815 20.4537H38.1611C34.9667 20.4537 32.3535 23.0669 32.3535 26.2614C32.3535 29.456 34.9667 32.0691 38.1611 32.0691H48.4174L55.3061 36.4788L55.3911 32.0463C58.3504 31.7881 60.6891 29.2861 60.6891 26.2614C60.6891 23.0669 58.076 20.4537 54.8815 20.4537Z" stroke="white" stroke-width="2" stroke-miterlimit="10" stroke-linecap="round" stroke-linejoin="round"/>
<path d="M38.4226 8.15227H46.2847C51.2658 8.15227 55.3389 12.2255 55.3389 17.2068C55.3389 18.3501 55.1234 19.4443 54.7347 20.4535M32.3537 26.2614H28.2022L19.553 33.1404L19.4191 26.2254C14.8069 25.8237 11.1553 21.9202 11.1553 17.2068C11.1553 12.2255 15.2317 8.15227 20.2128 8.15227H28.0749" stroke="white" stroke-width="2" stroke-miterlimit="10" stroke-linecap="round" stroke-linejoin="round"/>
<path d="M39.9834 26.2574V26.2612" stroke="white" stroke-width="2" stroke-miterlimit="10" stroke-linecap="round" stroke-linejoin="round"/>
<path d="M46.5225 26.2574V26.2612" stroke="white" stroke-width="2" stroke-miterlimit="10" stroke-linecap="round" stroke-linejoin="round"/>
<path d="M53.0586 26.2574V26.2612" stroke="white" stroke-width="2" stroke-miterlimit="10" stroke-linecap="round" stroke-linejoin="round"/>
<path d="M33.2551 8.15234H33.248" stroke="white" stroke-width="2" stroke-miterlimit="10" stroke-linecap="round" stroke-linejoin="round"/>
<path d="M29.6299 14.7502C29.6299 14.3107 29.7778 13.8665 30.0736 13.4178C30.3694 12.9644 30.801 12.5896 31.3684 12.2935C31.9357 11.9974 32.5977 11.8494 33.3542 11.8494C34.0573 11.8494 34.678 11.9743 35.2163 12.2241C35.7546 12.4693 36.1692 12.8047 36.4601 13.2304C36.756 13.656 36.9039 14.1187 36.9039 14.6183C36.9039 15.0116 36.819 15.3563 36.6493 15.6524C36.4844 15.9485 36.2856 16.2052 36.0528 16.4227C35.8249 16.6355 35.4127 16.9964 34.8162 17.5053C34.6513 17.6487 34.518 17.7759 34.4162 17.887C34.3192 17.9934 34.2464 18.0929 34.1979 18.1854C34.1494 18.2733 34.1107 18.3635 34.0816 18.456C34.0573 18.544 34.0185 18.7013 33.9652 18.928C33.873 19.4091 33.5845 19.6497 33.0996 19.6497C32.8474 19.6497 32.634 19.571 32.4595 19.4137C32.2897 19.2564 32.2049 19.0228 32.2049 18.7128C32.2049 18.3242 32.2679 17.9888 32.394 17.7066C32.5201 17.4197 32.6874 17.1699 32.8959 16.9571C33.1044 16.7396 33.3857 16.4828 33.7397 16.1867C34.05 15.9277 34.2731 15.7333 34.4089 15.6038C34.5495 15.4696 34.6659 15.3216 34.758 15.1596C34.855 14.9977 34.9035 14.8219 34.9035 14.6322C34.9035 14.2621 34.758 13.9498 34.4671 13.6954C34.181 13.4409 33.81 13.3137 33.3542 13.3137C32.8207 13.3137 32.4279 13.4432 32.1758 13.7023C31.9236 13.9567 31.7102 14.3338 31.5357 14.8335C31.3708 15.3563 31.058 15.6177 30.5973 15.6177C30.3258 15.6177 30.0954 15.5275 29.9063 15.347C29.722 15.162 29.6299 14.963 29.6299 14.7502ZM33.1796 22.3562C32.8838 22.3562 32.6243 22.266 32.4013 22.0856C32.183 21.9005 32.0739 21.6437 32.0739 21.3152C32.0739 21.0238 32.1806 20.7786 32.394 20.5796C32.6074 20.3807 32.8692 20.2812 33.1796 20.2812C33.4851 20.2812 33.7421 20.3807 33.9506 20.5796C34.1591 20.7786 34.2634 21.0238 34.2634 21.3152C34.2634 21.6391 34.1543 21.8936 33.9361 22.0786C33.7179 22.2637 33.4657 22.3562 33.1796 22.3562Z" fill="white"/>
</g>
</svg>
