<svg width="106" height="106" viewBox="0 0 106 106" fill="none" xmlns="http://www.w3.org/2000/svg">
<circle cx="53" cy="53" r="51.5" fill="#D9D9D9" stroke="#C24747" stroke-width="3"/>
<path d="M54.9373 87.23H54.9111C51.1442 87.1906 48.7948 77.7538 43.9517 54.6013C41.8911 44.7313 39.1086 31.4488 37.2711 28.64C36.8642 29.5194 36.1555 31.9213 35.4467 38.3394C32.113 68.9075 29.7242 71.5719 27.3617 71.7162C24.4873 71.8737 23.0961 66.7288 20.7205 56.8194L20.6942 56.6881C19.7098 52.5931 18.5155 51.0313 17.728 50.9394C16.573 50.8475 14.683 53.2363 13.7773 55.0475C13.4492 55.6906 12.6617 55.9663 12.0186 55.6381C11.3755 55.31 11.0998 54.5225 11.428 53.8794C11.9267 52.8819 14.5911 47.9469 18.0167 48.3406C20.353 48.6031 22.0592 51.1363 23.2405 56.0844L23.2667 56.2156C24.2905 60.5075 25.9705 67.5294 27.2042 68.96C28.123 67.8444 30.1573 62.45 32.8217 38.0638C33.9373 27.8131 35.2236 25.7525 37.0742 25.6606C40.0536 25.5425 41.7992 31.58 46.498 54.0631C48.8867 65.495 52.483 82.6494 54.8717 84.5131C55.1342 84.2112 55.7773 83.1744 56.5255 79.9588C57.7986 74.4725 58.9667 68.9863 60.0036 64.1563C63.9411 45.6631 65.6867 38.1425 69.2305 38.1425C71.488 38.1425 73.4567 40.8988 76.3048 54.5619C77.7486 61.5181 78.6805 64.8519 79.2449 66.4269C79.5205 65.4819 79.8223 64.2219 80.0848 63.1194C81.5811 56.885 83.6023 48.3538 89.4692 48.7869C89.6407 48.7998 89.808 48.8464 89.9615 48.924C90.115 49.0015 90.2517 49.1086 90.3638 49.239C90.476 49.3694 90.5613 49.5206 90.615 49.684C90.6687 49.8474 90.6897 50.0198 90.6767 50.1913C90.6638 50.3628 90.6172 50.53 90.5396 50.6835C90.4621 50.837 90.355 50.9737 90.2246 51.0859C90.0942 51.198 89.943 51.2833 89.7796 51.337C89.6162 51.3907 89.4438 51.4117 89.2723 51.3988C85.663 51.1888 83.8386 58.7094 82.6311 63.7231C81.6073 68.0019 81.0561 70.1019 79.2842 70.1281C77.5911 70.1019 76.5411 68.6713 73.7192 55.0869C71.2911 43.4319 69.7555 41.2137 69.2042 40.8069C67.3667 42.1063 64.8073 54.0894 62.5498 64.6944C61.513 69.5375 60.3448 75.0369 59.0586 80.5494C58.3367 83.87 57.2342 87.23 54.9373 87.23Z" fill="#C24747"/>
<path d="M65.254 80.3394C63.0096 80.3394 61.3428 77.2812 59.1246 69.1044C57.4971 63.1325 55.8696 55.2969 54.2815 47.7237C52.2078 37.8406 49.4384 24.5581 47.6009 21.7494C47.194 22.6287 46.4853 25.0306 45.7896 31.4487C45.2909 36.0819 44.779 40.2687 44.2934 43.865C41.6684 63.0669 39.6603 64.7469 37.6784 64.8388C34.9615 64.9963 33.6096 60.5731 31.3653 51.2019C31.1946 50.4931 31.6278 49.7844 32.3365 49.6137C33.0453 49.4431 33.754 49.8762 33.9246 50.585C34.6596 53.6562 36.3396 60.6256 37.5734 62.0694C38.2165 61.2556 39.739 57.83 41.7078 43.5106C42.1934 39.9406 42.7053 35.78 43.204 31.1731C44.3196 20.9225 45.6059 18.8619 47.4565 18.77C50.5278 18.6519 52.1815 24.7025 56.8934 47.1987C58.4684 54.7325 60.0959 62.5288 61.6971 68.4219C63.6134 75.4831 64.8209 77.2025 65.2671 77.6225C65.5296 77.2944 66.1728 76.2575 66.9078 73.0812C68.194 67.5687 69.3621 62.0694 70.399 57.2262C71.0815 54.0238 71.7246 50.9919 72.3415 48.2225C75.2421 35.2681 76.9221 31.3044 79.5734 31.2781H79.5997C81.844 31.2781 83.4715 34.2969 85.4009 42.0275C85.4696 42.3598 85.4069 42.7057 85.226 42.9928C85.0452 43.2799 84.7602 43.4857 84.4308 43.5672C84.1014 43.6487 83.7533 43.5995 83.4595 43.4299C83.1656 43.2603 82.9488 42.9835 82.8546 42.6575C81.1222 35.7144 79.954 34.2444 79.5997 33.9556C78.5103 34.7562 76.9353 39.7437 74.914 48.8C74.2971 51.5562 73.654 54.575 72.9715 57.7775C71.9347 62.6337 70.7665 68.1462 69.4803 73.685C68.404 78.3312 67.1703 80.3263 65.359 80.3525C65.2803 80.3394 65.2671 80.3394 65.254 80.3394Z" fill="#C24747"/>
</svg>
