<svg width="70" height="70" viewBox="0 0 70 70" fill="none" xmlns="http://www.w3.org/2000/svg">
<rect width="70" height="70" rx="35" fill="white" fill-opacity="0.5"/>
<path d="M30.4293 55.3545H29.9527C29.543 53.719 29.1426 52.1059 28.7581 50.473C28.0263 47.3653 27.276 45.382 23.1092 44.2L19.0811 41.3067C18.4127 40.8267 17.5955 40.6341 16.7793 40.7652L14.0965 34.4323C12.28 30.1446 9.91899 30.645 9.23871 30.9008C7.56371 31.5303 6.58043 33.7496 7.17591 35.5568L10.5955 45.9362C10.6315 46.0453 10.668 46.1571 10.705 46.2711C11.2635 47.9855 11.9587 50.119 13.5583 51.2185L18.2211 54.4231C18.5905 54.677 18.8524 54.9804 19.0264 55.3542H18.9233C18.4115 55.3542 17.9317 55.5524 17.5721 55.9123C17.2123 56.2723 17.0145 56.7524 17.015 57.2643L17.0177 60.0927C17.0187 61.144 17.8748 61.9993 18.9259 61.9993L30.4319 61.9998C30.9438 61.9998 31.4238 61.8015 31.7835 61.4415C32.143 61.0816 32.3408 60.6014 32.3404 60.0895L32.3377 57.2612C32.3365 56.2097 31.4806 55.3545 30.4293 55.3545ZM19.12 53.1149L14.4572 49.9103C13.301 49.1156 12.6982 47.2658 12.2141 45.7793C12.1772 45.6659 12.1402 45.5526 12.103 45.4393L8.68337 35.06C8.3273 33.9792 8.99816 32.6865 9.79724 32.3862C10.7204 32.0393 11.7815 33.0355 12.6353 35.0511L15.3269 41.4047C15.1066 41.5814 14.9115 41.7873 14.747 42.0168C13.748 43.4076 14.0667 45.3518 15.4575 46.3509L20.9625 50.3053C21.1336 50.4232 21.3442 50.4694 21.549 50.4338C21.7538 50.3981 21.9364 50.2836 22.0577 50.1148C22.1789 49.946 22.2291 49.7363 22.1975 49.5309C22.1658 49.3255 22.0548 49.1406 21.8884 49.0161L16.3834 45.0619C15.7034 44.5732 15.5475 43.6226 16.0361 42.9426C16.2712 42.6152 16.6221 42.3987 17.0241 42.3327C17.4263 42.2673 17.828 42.36 18.1554 42.5952L22.2977 45.5706C22.3742 45.6255 22.4599 45.6663 22.5507 45.6912C26.0835 46.661 26.5562 48.0456 27.2136 50.8364C27.5701 52.3502 27.9394 53.8444 28.3168 55.354L20.709 55.3535C20.4578 54.4207 19.9243 53.6675 19.12 53.1149ZM30.6606 60.3198C30.6183 60.3622 30.5443 60.4126 30.4312 60.4126L18.9262 60.4118C18.8411 60.4117 18.7595 60.3779 18.6992 60.3177C18.639 60.2575 18.6051 60.1759 18.6049 60.0908L18.6022 57.2624C18.6015 57.22 18.6093 57.1778 18.6253 57.1385C18.6412 57.0992 18.6648 57.0635 18.6948 57.0335C18.7248 57.0035 18.7605 56.9798 18.7998 56.9639C18.8391 56.9479 18.8812 56.9401 18.9236 56.9408L29.3294 56.9413L29.3328 56.9417C29.3344 56.9417 29.3359 56.9415 29.3375 56.9413L30.4294 56.9415C30.5145 56.9416 30.5961 56.9754 30.6564 57.0356C30.7166 57.0958 30.7505 57.1775 30.7506 57.2626L30.7534 60.0908C30.7541 60.1333 30.7462 60.1754 30.7303 60.2147C30.7144 60.2541 30.6907 60.2898 30.6606 60.3198ZM60.7604 30.9006C60.0803 30.645 57.7195 30.1444 55.9028 34.4321L53.22 40.7649C52.4031 40.634 51.5865 40.8265 50.9182 41.3064L46.8901 44.1997C42.723 45.3818 41.9729 47.3651 41.2412 50.4728C40.8591 52.095 40.4578 53.7121 40.0466 55.3543H39.57C38.5188 55.3543 37.6627 56.2096 37.6617 57.2609L37.659 60.0893C37.6585 60.6012 37.8564 61.0814 38.2159 61.4413C38.5756 61.8013 39.0556 61.9996 39.5682 61.9996L51.0732 61.9988C52.1244 61.9988 52.9805 61.1435 52.9815 60.0923L52.9842 57.2639C52.9847 56.7519 52.7868 56.2717 52.427 55.9117C52.0675 55.5518 51.5876 55.3536 51.076 55.3536H50.9728C51.1469 54.9799 51.4086 54.6764 51.7781 54.4225L56.4408 51.218C58.0403 50.1188 58.7353 47.9855 59.2938 46.2715C59.331 46.1571 59.3675 46.0451 59.4036 45.9356L62.8233 35.5563C63.4188 33.7493 62.4356 31.5302 60.7604 30.9006ZM51.0759 56.9409C51.1183 56.9402 51.1604 56.9481 51.1998 56.964C51.2391 56.9799 51.2748 57.0036 51.3048 57.0336C51.3348 57.0636 51.3584 57.0993 51.3743 57.1386C51.3902 57.178 51.398 57.2201 51.3973 57.2625L51.3946 60.091C51.3944 60.1762 51.3604 60.2578 51.3002 60.3179C51.24 60.3781 51.1583 60.4119 51.0732 60.412L39.5675 60.4128C39.4551 60.4128 39.3809 60.3623 39.3386 60.3199C39.2964 60.2775 39.2459 60.2035 39.246 60.091L39.2488 57.2626C39.2489 57.1775 39.2828 57.0959 39.343 57.0357C39.4033 56.9755 39.4849 56.9417 39.57 56.9416L40.6619 56.9415C40.6635 56.9415 40.665 56.9418 40.6665 56.9418L40.6699 56.9415L51.0759 56.9409ZM61.316 35.06L57.8964 45.4393C57.8599 45.5503 57.8228 45.6641 57.785 45.7802C57.3008 47.2662 56.6982 49.1159 55.542 49.9104L50.8793 53.115C50.0752 53.6676 49.5416 54.4209 49.2906 55.3541L41.6827 55.3545C42.0616 53.8387 42.4316 52.3414 42.7859 50.8369C43.4431 48.0461 43.9158 46.6616 47.4489 45.6918C47.5396 45.6669 47.6253 45.626 47.7018 45.5711L51.8441 42.5957C52.1715 42.3607 52.5733 42.2678 52.9754 42.3333C53.3774 42.3992 53.7283 42.6157 53.9634 42.943C54.4519 43.6232 54.2961 44.5739 53.6161 45.0624L48.1111 49.0167C47.9402 49.1395 47.825 49.3252 47.791 49.5329C47.7569 49.7406 47.8068 49.9533 47.9295 50.1242C48.0523 50.2951 48.238 50.4103 48.4457 50.4443C48.6533 50.4784 48.866 50.4286 49.037 50.3058L54.542 46.3514C55.9327 45.3525 56.2513 43.4081 55.2525 42.0173C55.088 41.7879 54.8929 41.5819 54.6726 41.4053L57.3642 35.0517C58.2181 33.0361 59.2794 32.0399 60.2023 32.3867C61.0012 32.6865 61.6721 33.9793 61.316 35.06ZM38.5204 39.1594C44.7424 39.1594 48.704 36.2375 51.0328 33.5439C53.9951 30.1178 54.9731 26.4076 55.0132 26.2513C55.0396 26.1489 55.0452 26.0423 55.0298 25.9378C55.0144 25.8332 54.9782 25.7328 54.9235 25.6424C54.8687 25.552 54.7964 25.4735 54.7109 25.4114C54.6253 25.3494 54.5283 25.305 54.4253 25.281C54.0883 25.2022 46.1058 23.3987 40.1415 27.4708C38.2276 28.7775 36.75 30.5368 35.7185 32.728L35.7186 26.8862C35.9173 26.5765 36.1173 26.2677 36.3186 25.9598C38.0067 23.3709 39.9198 20.4366 40.1102 17.2013C40.3228 13.5855 38.4202 9.07139 35.4832 6.22379C35.3351 6.08026 35.137 6 34.9308 6C34.7246 6 34.5265 6.08026 34.3785 6.22379C31.3372 9.17205 29.4778 13.5889 29.7516 17.2142C30.0218 20.791 32.4959 24.4568 33.9741 26.647L34.1316 26.8805L34.1315 32.4196C33.1087 30.3711 31.681 28.7156 29.8577 27.4707C23.8931 23.3982 15.9106 25.202 15.5738 25.2809C15.4709 25.3049 15.3738 25.3493 15.2883 25.4113C15.2027 25.4734 15.1304 25.5519 15.0757 25.6423C15.0209 25.7327 14.9848 25.8331 14.9694 25.9377C14.9539 26.0422 14.9596 26.1488 14.9859 26.2512C15.0261 26.4074 16.004 30.1176 18.9662 33.5438C21.2952 36.2375 25.2559 39.1593 31.4786 39.1593C32.3206 39.1593 33.2048 39.1053 34.1312 38.9905L34.1311 45.7065C34.1311 45.917 34.2147 46.1188 34.3635 46.2676C34.5124 46.4164 34.7142 46.5 34.9246 46.5C35.1351 46.5 35.3369 46.4164 35.4858 46.2676C35.6346 46.1188 35.7182 45.917 35.7182 45.7065L35.7183 38.9711C36.6995 39.0991 37.6332 39.1594 38.5204 39.1594ZM41.0287 28.7869C45.3453 25.8346 51.0765 26.3461 53.2139 26.6732C52.7785 27.8912 51.7579 30.279 49.8324 32.5061C46.553 36.299 42.1871 37.9728 36.8358 37.498L45.0638 32.7479C45.1547 32.6962 45.2346 32.627 45.2987 32.5443C45.3628 32.4616 45.4099 32.367 45.4374 32.266C45.4648 32.165 45.472 32.0596 45.4585 31.9558C45.445 31.852 45.4111 31.7519 45.3588 31.6613C45.3064 31.5707 45.2367 31.4913 45.1536 31.4277C45.0704 31.3642 44.9756 31.3177 44.8744 31.2909C44.7732 31.2642 44.6678 31.2577 44.5641 31.2719C44.4604 31.2861 44.3605 31.3206 44.2702 31.3735L36.2175 36.0224C37.0566 32.8294 38.6691 30.4008 41.0287 28.7869ZM31.3344 17.0949C31.1108 14.1349 32.5383 10.544 34.9296 7.93337C37.243 10.4833 38.7003 14.1488 38.5262 17.1084C38.3857 19.4948 37.0771 21.8323 35.7191 23.9654L35.7192 16.7202C35.7192 16.5098 35.6356 16.3079 35.4868 16.1591C35.338 16.0103 35.1361 15.9267 34.9257 15.9267C34.7152 15.9267 34.5134 16.0103 34.3646 16.1591C34.2158 16.3079 34.1322 16.5098 34.1322 16.7202L34.132 24.0009C32.8761 22.0112 31.5139 19.4711 31.3344 17.0949ZM20.2051 32.55C18.2621 30.3187 17.2271 27.9004 16.7865 26.6718C18.9214 26.3429 24.6379 25.8287 28.963 28.7817C31.3489 30.4109 32.9709 32.8728 33.804 36.1136L25.5931 31.3727C25.5028 31.3198 25.403 31.2853 25.2993 31.2711C25.1956 31.2569 25.0901 31.2634 24.989 31.2901C24.8878 31.3169 24.7929 31.3634 24.7098 31.4269C24.6267 31.4905 24.5569 31.5699 24.5046 31.6605C24.4523 31.7512 24.4184 31.8512 24.4049 31.955C24.3914 32.0588 24.3986 32.1642 24.426 32.2652C24.4534 32.3662 24.5005 32.4608 24.5647 32.5435C24.6288 32.6262 24.7086 32.6954 24.7996 32.7471L33.0467 37.5089C27.7706 37.9474 23.4567 36.284 20.2051 32.55Z" fill="url(#paint0_linear_94_797)"/>
<defs>
<linearGradient id="paint0_linear_94_797" x1="34.9996" y1="6" x2="34.9996" y2="61.9998" gradientUnits="userSpaceOnUse">
<stop stop-color="#EE5E0D"/>
<stop offset="1" stop-color="#DC1616"/>
</linearGradient>
</defs>
</svg>
