<svg width="70" height="70" viewBox="0 0 70 70" fill="none" xmlns="http://www.w3.org/2000/svg">
<rect width="70" height="70" rx="35" fill="white" fill-opacity="0.5"/>
<mask id="path-2-outside-1_95_809" maskUnits="userSpaceOnUse" x="6.4375" y="11" width="57" height="48" fill="black">
<rect fill="white" x="6.4375" y="11" width="57" height="48"/>
<path d="M35.4626 28.4013V14.3383C35.4626 12.2589 32.948 11.2181 31.4774 12.6884L20.8733 23.2924C19.9721 24.1934 18.7739 24.6895 17.4988 24.6895H15.9545C15.7871 24.6895 15.6265 24.756 15.5082 24.8744C15.3898 24.9928 15.3233 25.1533 15.3233 25.3207C15.3233 25.4881 15.3898 25.6487 15.5082 25.7671C15.6265 25.8854 15.7871 25.9519 15.9545 25.9519H17.4988C19.1108 25.9519 20.6263 25.3245 21.7659 24.1849L32.3699 13.5809C33.0465 12.9047 34.2001 13.3804 34.2001 14.3383V55.66C34.2001 56.6194 33.0379 57.0987 32.3649 56.4124L21.3906 45.2617C20.266 44.1177 18.6999 43.4614 17.0947 43.4614H15.9545C15.7871 43.4614 15.6265 43.5279 15.5082 43.6463C15.3898 43.7647 15.3233 43.9252 15.3233 44.0927C15.3233 44.2601 15.3898 44.4206 15.5082 44.539C15.6265 44.6574 15.7871 44.7239 15.9545 44.7239H17.0948C18.3638 44.7239 19.6015 45.2425 20.4907 46.1471L31.4642 57.2973C32.9293 58.7904 35.4626 57.7456 35.4626 55.6602V41.597C37.867 40.2634 39.3463 37.7725 39.3463 34.999C39.3463 32.2256 37.867 29.7348 35.4626 28.4013ZM35.4626 40.1064V29.8919C37.0998 31.0608 38.0838 32.9357 38.0838 34.999C38.0838 37.0623 37.0998 38.9373 35.4626 40.1064ZM13.4309 24.6894H11.1129C9.08619 24.6894 7.4375 26.3381 7.4375 28.3645V41.0473C7.4375 43.0737 9.08619 44.7224 11.1129 44.7224H13.4309C13.5984 44.7224 13.7589 44.6559 13.8773 44.5376C13.9957 44.4192 14.0622 44.2586 14.0622 44.0912V25.3206C14.0622 25.2377 14.0458 25.1556 14.0141 25.0791C13.9824 25.0025 13.9359 24.9329 13.8773 24.8743C13.8187 24.8157 13.7491 24.7692 13.6725 24.7374C13.5959 24.7057 13.5138 24.6894 13.4309 24.6894ZM12.7997 43.4601H11.1129C9.78227 43.4601 8.69994 42.3777 8.69994 41.0473V28.3645C8.69994 27.0342 9.78238 25.9517 11.1129 25.9517H12.7997V43.4601ZM44.5207 28.3812L55.1346 24.8432C55.2342 24.81 55.3239 24.7525 55.3957 24.6759C55.4674 24.5992 55.5189 24.5059 55.5456 24.4044C55.5994 24.1981 55.5456 23.9784 55.4025 23.8205L52.6382 20.773L56.3008 16.4511C56.3894 16.3466 56.4415 16.2161 56.4494 16.0793C56.4573 15.9425 56.4204 15.8069 56.3443 15.6929C56.2684 15.5789 56.1573 15.4927 56.028 15.4474C55.8987 15.402 55.7582 15.4 55.6276 15.4417L44.7729 18.8992C44.6718 18.9315 44.5804 18.9887 44.5072 19.0656C44.4341 19.1425 44.3815 19.2367 44.3543 19.3393C44.3272 19.4419 44.3263 19.5497 44.3518 19.6528C44.3774 19.7558 44.4284 19.8507 44.5004 19.9288L47.9288 23.643L43.896 27.316C43.7889 27.4134 43.7186 27.5446 43.6968 27.6877C43.6751 27.8308 43.7032 27.977 43.7764 28.1018C43.8497 28.2266 43.9636 28.3224 44.0991 28.3733C44.2345 28.4241 44.3834 28.4269 44.5207 28.3812ZM49.2489 24.1484C49.3105 24.0924 49.3605 24.0247 49.3958 23.9493C49.4311 23.8739 49.4512 23.7923 49.4548 23.7091C49.4585 23.6259 49.4456 23.5428 49.4169 23.4647C49.3883 23.3865 49.3445 23.3147 49.288 23.2536L46.1008 19.8009L53.9171 17.3113L51.3175 20.379C51.2186 20.4959 51.1655 20.6447 51.1681 20.7978C51.1706 20.9508 51.2287 21.0978 51.3315 21.2112L53.8172 23.9517L46.9522 26.24L49.2489 24.1484ZM53.0841 42.9086C53.0518 42.8075 52.9945 42.7161 52.9176 42.643C52.8407 42.5698 52.7466 42.5171 52.644 42.4898C52.5414 42.4625 52.4335 42.4617 52.3304 42.4873C52.2273 42.5129 52.1323 42.5642 52.0544 42.6363L48.34 46.065L44.6675 42.0319C44.57 41.9249 44.4387 41.8547 44.2956 41.8329C44.1525 41.8112 44.0063 41.8392 43.8814 41.9123C43.7566 41.9855 43.6607 42.0993 43.6098 42.2348C43.5589 42.3702 43.5562 42.519 43.602 42.6563L47.1397 53.2702C47.1729 53.3698 47.2304 53.4596 47.3071 53.5314C47.3837 53.6032 47.477 53.6548 47.5786 53.6814C47.7832 53.7348 48.0043 53.6814 48.1625 53.5382L51.21 50.7741L55.5321 54.4367C55.6366 54.5253 55.7672 54.5775 55.904 54.5854C56.0408 54.5933 56.1765 54.5565 56.2905 54.4805C56.4045 54.4044 56.4907 54.2934 56.536 54.164C56.5814 54.0347 56.5834 53.8941 56.5418 53.7636L53.0841 42.9086ZM51.6039 49.4531C51.49 49.3564 51.3453 49.3034 51.1959 49.3036C51.039 49.3034 50.8878 49.3618 50.7718 49.4673L48.0308 51.9531L45.7427 45.0878L47.8344 47.3848C47.8904 47.4463 47.9581 47.4961 48.0335 47.5314C48.1089 47.5667 48.1905 47.5868 48.2737 47.5905C48.4483 47.5999 48.6061 47.5376 48.7294 47.4236L52.1821 44.2366L54.6719 52.0529L51.6039 49.4531ZM62.1899 34.4438L51.4959 29.6195C51.3997 29.5762 51.2943 29.5576 51.1891 29.5655C51.084 29.5734 50.9825 29.6075 50.8939 29.6647C50.8053 29.7219 50.7325 29.8004 50.682 29.893C50.6315 29.9856 50.6051 30.0893 50.605 30.1948V34.3879H44.321C44.1755 34.3877 44.0344 34.4379 43.9216 34.5299C43.8088 34.6219 43.7313 34.75 43.7021 34.8926C43.673 35.0352 43.694 35.1835 43.7617 35.3123C43.8293 35.4412 43.9394 35.5427 44.0733 35.5997L55.5716 40.5045C55.6676 40.5455 55.7723 40.5621 55.8762 40.5527C55.9802 40.5433 56.0802 40.5082 56.1673 40.4507C56.2544 40.3931 56.3259 40.3149 56.3753 40.2229C56.4247 40.131 56.4506 40.0282 56.4505 39.9238V35.6501H61.9303C62.0747 35.65 62.2147 35.6006 62.327 35.5099C62.4393 35.4192 62.5171 35.2928 62.5476 35.1517C62.5777 35.0106 62.5587 34.8634 62.4936 34.7346C62.4285 34.6059 62.3214 34.5032 62.1899 34.4438ZM55.8192 34.388C55.6518 34.388 55.4912 34.4545 55.3729 34.5729C55.2545 34.6912 55.188 34.8518 55.188 35.0192V38.9687L47.4091 35.6504H51.2361C51.4035 35.6504 51.5641 35.5839 51.6824 35.4655C51.8008 35.3472 51.8673 35.1866 51.8673 35.0192V31.1721L58.9962 34.3881L55.8192 34.388Z"/>
</mask>
<path d="M35.4626 28.4013V14.3383C35.4626 12.2589 32.948 11.2181 31.4774 12.6884L20.8733 23.2924C19.9721 24.1934 18.7739 24.6895 17.4988 24.6895H15.9545C15.7871 24.6895 15.6265 24.756 15.5082 24.8744C15.3898 24.9928 15.3233 25.1533 15.3233 25.3207C15.3233 25.4881 15.3898 25.6487 15.5082 25.7671C15.6265 25.8854 15.7871 25.9519 15.9545 25.9519H17.4988C19.1108 25.9519 20.6263 25.3245 21.7659 24.1849L32.3699 13.5809C33.0465 12.9047 34.2001 13.3804 34.2001 14.3383V55.66C34.2001 56.6194 33.0379 57.0987 32.3649 56.4124L21.3906 45.2617C20.266 44.1177 18.6999 43.4614 17.0947 43.4614H15.9545C15.7871 43.4614 15.6265 43.5279 15.5082 43.6463C15.3898 43.7647 15.3233 43.9252 15.3233 44.0927C15.3233 44.2601 15.3898 44.4206 15.5082 44.539C15.6265 44.6574 15.7871 44.7239 15.9545 44.7239H17.0948C18.3638 44.7239 19.6015 45.2425 20.4907 46.1471L31.4642 57.2973C32.9293 58.7904 35.4626 57.7456 35.4626 55.6602V41.597C37.867 40.2634 39.3463 37.7725 39.3463 34.999C39.3463 32.2256 37.867 29.7348 35.4626 28.4013ZM35.4626 40.1064V29.8919C37.0998 31.0608 38.0838 32.9357 38.0838 34.999C38.0838 37.0623 37.0998 38.9373 35.4626 40.1064ZM13.4309 24.6894H11.1129C9.08619 24.6894 7.4375 26.3381 7.4375 28.3645V41.0473C7.4375 43.0737 9.08619 44.7224 11.1129 44.7224H13.4309C13.5984 44.7224 13.7589 44.6559 13.8773 44.5376C13.9957 44.4192 14.0622 44.2586 14.0622 44.0912V25.3206C14.0622 25.2377 14.0458 25.1556 14.0141 25.0791C13.9824 25.0025 13.9359 24.9329 13.8773 24.8743C13.8187 24.8157 13.7491 24.7692 13.6725 24.7374C13.5959 24.7057 13.5138 24.6894 13.4309 24.6894ZM12.7997 43.4601H11.1129C9.78227 43.4601 8.69994 42.3777 8.69994 41.0473V28.3645C8.69994 27.0342 9.78238 25.9517 11.1129 25.9517H12.7997V43.4601ZM44.5207 28.3812L55.1346 24.8432C55.2342 24.81 55.3239 24.7525 55.3957 24.6759C55.4674 24.5992 55.5189 24.5059 55.5456 24.4044C55.5994 24.1981 55.5456 23.9784 55.4025 23.8205L52.6382 20.773L56.3008 16.4511C56.3894 16.3466 56.4415 16.2161 56.4494 16.0793C56.4573 15.9425 56.4204 15.8069 56.3443 15.6929C56.2684 15.5789 56.1573 15.4927 56.028 15.4474C55.8987 15.402 55.7582 15.4 55.6276 15.4417L44.7729 18.8992C44.6718 18.9315 44.5804 18.9887 44.5072 19.0656C44.4341 19.1425 44.3815 19.2367 44.3543 19.3393C44.3272 19.4419 44.3263 19.5497 44.3518 19.6528C44.3774 19.7558 44.4284 19.8507 44.5004 19.9288L47.9288 23.643L43.896 27.316C43.7889 27.4134 43.7186 27.5446 43.6968 27.6877C43.6751 27.8308 43.7032 27.977 43.7764 28.1018C43.8497 28.2266 43.9636 28.3224 44.0991 28.3733C44.2345 28.4241 44.3834 28.4269 44.5207 28.3812ZM49.2489 24.1484C49.3105 24.0924 49.3605 24.0247 49.3958 23.9493C49.4311 23.8739 49.4512 23.7923 49.4548 23.7091C49.4585 23.6259 49.4456 23.5428 49.4169 23.4647C49.3883 23.3865 49.3445 23.3147 49.288 23.2536L46.1008 19.8009L53.9171 17.3113L51.3175 20.379C51.2186 20.4959 51.1655 20.6447 51.1681 20.7978C51.1706 20.9508 51.2287 21.0978 51.3315 21.2112L53.8172 23.9517L46.9522 26.24L49.2489 24.1484ZM53.0841 42.9086C53.0518 42.8075 52.9945 42.7161 52.9176 42.643C52.8407 42.5698 52.7466 42.5171 52.644 42.4898C52.5414 42.4625 52.4335 42.4617 52.3304 42.4873C52.2273 42.5129 52.1323 42.5642 52.0544 42.6363L48.34 46.065L44.6675 42.0319C44.57 41.9249 44.4387 41.8547 44.2956 41.8329C44.1525 41.8112 44.0063 41.8392 43.8814 41.9123C43.7566 41.9855 43.6607 42.0993 43.6098 42.2348C43.5589 42.3702 43.5562 42.519 43.602 42.6563L47.1397 53.2702C47.1729 53.3698 47.2304 53.4596 47.3071 53.5314C47.3837 53.6032 47.477 53.6548 47.5786 53.6814C47.7832 53.7348 48.0043 53.6814 48.1625 53.5382L51.21 50.7741L55.5321 54.4367C55.6366 54.5253 55.7672 54.5775 55.904 54.5854C56.0408 54.5933 56.1765 54.5565 56.2905 54.4805C56.4045 54.4044 56.4907 54.2934 56.536 54.164C56.5814 54.0347 56.5834 53.8941 56.5418 53.7636L53.0841 42.9086ZM51.6039 49.4531C51.49 49.3564 51.3453 49.3034 51.1959 49.3036C51.039 49.3034 50.8878 49.3618 50.7718 49.4673L48.0308 51.9531L45.7427 45.0878L47.8344 47.3848C47.8904 47.4463 47.9581 47.4961 48.0335 47.5314C48.1089 47.5667 48.1905 47.5868 48.2737 47.5905C48.4483 47.5999 48.6061 47.5376 48.7294 47.4236L52.1821 44.2366L54.6719 52.0529L51.6039 49.4531ZM62.1899 34.4438L51.4959 29.6195C51.3997 29.5762 51.2943 29.5576 51.1891 29.5655C51.084 29.5734 50.9825 29.6075 50.8939 29.6647C50.8053 29.7219 50.7325 29.8004 50.682 29.893C50.6315 29.9856 50.6051 30.0893 50.605 30.1948V34.3879H44.321C44.1755 34.3877 44.0344 34.4379 43.9216 34.5299C43.8088 34.6219 43.7313 34.75 43.7021 34.8926C43.673 35.0352 43.694 35.1835 43.7617 35.3123C43.8293 35.4412 43.9394 35.5427 44.0733 35.5997L55.5716 40.5045C55.6676 40.5455 55.7723 40.5621 55.8762 40.5527C55.9802 40.5433 56.0802 40.5082 56.1673 40.4507C56.2544 40.3931 56.3259 40.3149 56.3753 40.2229C56.4247 40.131 56.4506 40.0282 56.4505 39.9238V35.6501H61.9303C62.0747 35.65 62.2147 35.6006 62.327 35.5099C62.4393 35.4192 62.5171 35.2928 62.5476 35.1517C62.5777 35.0106 62.5587 34.8634 62.4936 34.7346C62.4285 34.6059 62.3214 34.5032 62.1899 34.4438ZM55.8192 34.388C55.6518 34.388 55.4912 34.4545 55.3729 34.5729C55.2545 34.6912 55.188 34.8518 55.188 35.0192V38.9687L47.4091 35.6504H51.2361C51.4035 35.6504 51.5641 35.5839 51.6824 35.4655C51.8008 35.3472 51.8673 35.1866 51.8673 35.0192V31.1721L58.9962 34.3881L55.8192 34.388Z" fill="url(#paint0_linear_95_809)"/>
<path d="M35.4626 28.4013V14.3383C35.4626 12.2589 32.948 11.2181 31.4774 12.6884L20.8733 23.2924C19.9721 24.1934 18.7739 24.6895 17.4988 24.6895H15.9545C15.7871 24.6895 15.6265 24.756 15.5082 24.8744C15.3898 24.9928 15.3233 25.1533 15.3233 25.3207C15.3233 25.4881 15.3898 25.6487 15.5082 25.7671C15.6265 25.8854 15.7871 25.9519 15.9545 25.9519H17.4988C19.1108 25.9519 20.6263 25.3245 21.7659 24.1849L32.3699 13.5809C33.0465 12.9047 34.2001 13.3804 34.2001 14.3383V55.66C34.2001 56.6194 33.0379 57.0987 32.3649 56.4124L21.3906 45.2617C20.266 44.1177 18.6999 43.4614 17.0947 43.4614H15.9545C15.7871 43.4614 15.6265 43.5279 15.5082 43.6463C15.3898 43.7647 15.3233 43.9252 15.3233 44.0927C15.3233 44.2601 15.3898 44.4206 15.5082 44.539C15.6265 44.6574 15.7871 44.7239 15.9545 44.7239H17.0948C18.3638 44.7239 19.6015 45.2425 20.4907 46.1471L31.4642 57.2973C32.9293 58.7904 35.4626 57.7456 35.4626 55.6602V41.597C37.867 40.2634 39.3463 37.7725 39.3463 34.999C39.3463 32.2256 37.867 29.7348 35.4626 28.4013ZM35.4626 40.1064V29.8919C37.0998 31.0608 38.0838 32.9357 38.0838 34.999C38.0838 37.0623 37.0998 38.9373 35.4626 40.1064ZM13.4309 24.6894H11.1129C9.08619 24.6894 7.4375 26.3381 7.4375 28.3645V41.0473C7.4375 43.0737 9.08619 44.7224 11.1129 44.7224H13.4309C13.5984 44.7224 13.7589 44.6559 13.8773 44.5376C13.9957 44.4192 14.0622 44.2586 14.0622 44.0912V25.3206C14.0622 25.2377 14.0458 25.1556 14.0141 25.0791C13.9824 25.0025 13.9359 24.9329 13.8773 24.8743C13.8187 24.8157 13.7491 24.7692 13.6725 24.7374C13.5959 24.7057 13.5138 24.6894 13.4309 24.6894ZM12.7997 43.4601H11.1129C9.78227 43.4601 8.69994 42.3777 8.69994 41.0473V28.3645C8.69994 27.0342 9.78238 25.9517 11.1129 25.9517H12.7997V43.4601ZM44.5207 28.3812L55.1346 24.8432C55.2342 24.81 55.3239 24.7525 55.3957 24.6759C55.4674 24.5992 55.5189 24.5059 55.5456 24.4044C55.5994 24.1981 55.5456 23.9784 55.4025 23.8205L52.6382 20.773L56.3008 16.4511C56.3894 16.3466 56.4415 16.2161 56.4494 16.0793C56.4573 15.9425 56.4204 15.8069 56.3443 15.6929C56.2684 15.5789 56.1573 15.4927 56.028 15.4474C55.8987 15.402 55.7582 15.4 55.6276 15.4417L44.7729 18.8992C44.6718 18.9315 44.5804 18.9887 44.5072 19.0656C44.4341 19.1425 44.3815 19.2367 44.3543 19.3393C44.3272 19.4419 44.3263 19.5497 44.3518 19.6528C44.3774 19.7558 44.4284 19.8507 44.5004 19.9288L47.9288 23.643L43.896 27.316C43.7889 27.4134 43.7186 27.5446 43.6968 27.6877C43.6751 27.8308 43.7032 27.977 43.7764 28.1018C43.8497 28.2266 43.9636 28.3224 44.0991 28.3733C44.2345 28.4241 44.3834 28.4269 44.5207 28.3812ZM49.2489 24.1484C49.3105 24.0924 49.3605 24.0247 49.3958 23.9493C49.4311 23.8739 49.4512 23.7923 49.4548 23.7091C49.4585 23.6259 49.4456 23.5428 49.4169 23.4647C49.3883 23.3865 49.3445 23.3147 49.288 23.2536L46.1008 19.8009L53.9171 17.3113L51.3175 20.379C51.2186 20.4959 51.1655 20.6447 51.1681 20.7978C51.1706 20.9508 51.2287 21.0978 51.3315 21.2112L53.8172 23.9517L46.9522 26.24L49.2489 24.1484ZM53.0841 42.9086C53.0518 42.8075 52.9945 42.7161 52.9176 42.643C52.8407 42.5698 52.7466 42.5171 52.644 42.4898C52.5414 42.4625 52.4335 42.4617 52.3304 42.4873C52.2273 42.5129 52.1323 42.5642 52.0544 42.6363L48.34 46.065L44.6675 42.0319C44.57 41.9249 44.4387 41.8547 44.2956 41.8329C44.1525 41.8112 44.0063 41.8392 43.8814 41.9123C43.7566 41.9855 43.6607 42.0993 43.6098 42.2348C43.5589 42.3702 43.5562 42.519 43.602 42.6563L47.1397 53.2702C47.1729 53.3698 47.2304 53.4596 47.3071 53.5314C47.3837 53.6032 47.477 53.6548 47.5786 53.6814C47.7832 53.7348 48.0043 53.6814 48.1625 53.5382L51.21 50.7741L55.5321 54.4367C55.6366 54.5253 55.7672 54.5775 55.904 54.5854C56.0408 54.5933 56.1765 54.5565 56.2905 54.4805C56.4045 54.4044 56.4907 54.2934 56.536 54.164C56.5814 54.0347 56.5834 53.8941 56.5418 53.7636L53.0841 42.9086ZM51.6039 49.4531C51.49 49.3564 51.3453 49.3034 51.1959 49.3036C51.039 49.3034 50.8878 49.3618 50.7718 49.4673L48.0308 51.9531L45.7427 45.0878L47.8344 47.3848C47.8904 47.4463 47.9581 47.4961 48.0335 47.5314C48.1089 47.5667 48.1905 47.5868 48.2737 47.5905C48.4483 47.5999 48.6061 47.5376 48.7294 47.4236L52.1821 44.2366L54.6719 52.0529L51.6039 49.4531ZM62.1899 34.4438L51.4959 29.6195C51.3997 29.5762 51.2943 29.5576 51.1891 29.5655C51.084 29.5734 50.9825 29.6075 50.8939 29.6647C50.8053 29.7219 50.7325 29.8004 50.682 29.893C50.6315 29.9856 50.6051 30.0893 50.605 30.1948V34.3879H44.321C44.1755 34.3877 44.0344 34.4379 43.9216 34.5299C43.8088 34.6219 43.7313 34.75 43.7021 34.8926C43.673 35.0352 43.694 35.1835 43.7617 35.3123C43.8293 35.4412 43.9394 35.5427 44.0733 35.5997L55.5716 40.5045C55.6676 40.5455 55.7723 40.5621 55.8762 40.5527C55.9802 40.5433 56.0802 40.5082 56.1673 40.4507C56.2544 40.3931 56.3259 40.3149 56.3753 40.2229C56.4247 40.131 56.4506 40.0282 56.4505 39.9238V35.6501H61.9303C62.0747 35.65 62.2147 35.6006 62.327 35.5099C62.4393 35.4192 62.5171 35.2928 62.5476 35.1517C62.5777 35.0106 62.5587 34.8634 62.4936 34.7346C62.4285 34.6059 62.3214 34.5032 62.1899 34.4438ZM55.8192 34.388C55.6518 34.388 55.4912 34.4545 55.3729 34.5729C55.2545 34.6912 55.188 34.8518 55.188 35.0192V38.9687L47.4091 35.6504H51.2361C51.4035 35.6504 51.5641 35.5839 51.6824 35.4655C51.8008 35.3472 51.8673 35.1866 51.8673 35.0192V31.1721L58.9962 34.3881L55.8192 34.388Z" stroke="url(#paint1_linear_95_809)" stroke-width="0.4" mask="url(#path-2-outside-1_95_809)"/>
<defs>
<linearGradient id="paint0_linear_95_809" x1="34.9995" y1="12" x2="34.9995" y2="58.0003" gradientUnits="userSpaceOnUse">
<stop stop-color="#EE5E0D"/>
<stop offset="1" stop-color="#DC1616"/>
</linearGradient>
<linearGradient id="paint1_linear_95_809" x1="34.9995" y1="12" x2="34.9995" y2="58.0003" gradientUnits="userSpaceOnUse">
<stop stop-color="#EE5E0D"/>
<stop offset="1" stop-color="#DC1616"/>
</linearGradient>
</defs>
</svg>
