<svg width="116" height="89" viewBox="0 0 116 89" fill="none" xmlns="http://www.w3.org/2000/svg">
<path d="M91.2928 89C82.6883 89 75.5589 86.2707 69.9045 80.812C64.496 75.3533 61.7917 67.5213 61.7917 57.316C61.7917 46.3987 64.9877 35.6 71.3796 24.92C78.0173 14.24 87.2364 5.93334 99.0369 0L107.518 12.46C94.7346 21.004 87.1135 31.8027 84.6551 44.856C86.8677 43.9067 89.449 43.432 92.3991 43.432C99.2827 43.432 104.937 45.568 109.362 49.84C113.787 54.112 116 59.5707 116 66.216C116 72.8613 113.664 78.32 108.993 82.592C104.322 86.864 98.4223 89 91.2928 89ZM29.5011 89C20.8966 89 13.7672 86.2707 8.1128 80.812C2.70427 75.3533 0 67.5213 0 57.316C0 46.3987 3.19595 35.6 9.58786 24.92C16.2256 14.24 25.4447 5.93334 37.2451 0L45.7267 12.46C32.9429 21.004 25.3218 31.8027 22.8634 44.856C25.0759 43.9067 27.6573 43.432 30.6074 43.432C37.491 43.432 43.1454 45.568 47.5705 49.84C51.9957 54.112 54.2083 59.5707 54.2083 66.216C54.2083 72.8613 51.8728 78.32 47.2018 82.592C42.5308 86.864 36.6305 89 29.5011 89Z" fill="#FFC700"/>
</svg>
