<svg width="106" height="106" viewBox="0 0 106 106" fill="none" xmlns="http://www.w3.org/2000/svg">
<circle cx="53" cy="53" r="51.5" fill="#D9D9D9" stroke="#C24747" stroke-width="3"/>
<path d="M62 69.0024L54.4172 76.4342C53.6468 77.1892 52.3349 77.1885 51.5655 76.4327L44 69" stroke="#C24747" stroke-width="2.5" stroke-miterlimit="10" stroke-linecap="round" stroke-linejoin="round"/>
<path d="M58.4716 26.2971C58.7365 25.5922 58.872 24.8423 58.8711 24.0859C58.8711 20.7247 56.2425 18 53.0001 18C49.7577 18 47.129 20.7248 47.129 24.0859C47.129 24.8505 47.2651 25.5823 47.5134 26.2565M60.6127 27C62.7003 24.9247 64 22.0044 64 18.7692M45.3873 27C43.2997 24.9247 42 22.0044 42 18.7692" stroke="#C24747" stroke-width="2.5" stroke-miterlimit="10" stroke-linecap="round" stroke-linejoin="round"/>
<path d="M69 41.7977V41.3241C69 32.3085 61.8366 25 53 25C44.1634 25 37 32.3085 37 41.3241V42.0079M68.5541 69.9994C68.0888 69.8593 67.615 69.7508 67.1357 69.6745L61.5871 68.7911C59.93 68.5274 58.7083 67.0712 58.7083 65.3601V62.2904M47.2917 62.2904V65.3601C47.2917 67.0712 46.07 68.5274 44.4129 68.7911L38.8643 69.6745C38.3844 69.7509 37.91 69.8596 37.4443 70" stroke="#C24747" stroke-width="2.5" stroke-miterlimit="10" stroke-linecap="round" stroke-linejoin="round"/>
<path d="M63.1763 58.137C61.0683 61.3961 57.375 63.5254 53.1712 63.5254C48.9907 63.5254 45.3153 61.3607 43.2015 58.0896M42 45.7416C48.0515 45.2137 53.6243 42.3651 57.7619 38C61.15 40.4441 63.3627 43.2927 64.5747 46.439M63.4591 60.075L76.1759 82.5589C76.7667 83.6035 77.6237 84.4724 78.6594 85.0769C79.6951 85.6815 80.8724 86 82.0712 86C85.3456 86 88 83.3419 88 80.063C88 78.5426 87.4175 77.0802 86.3727 75.9771L70.122 58.8204" stroke="#C24747" stroke-width="2.5" stroke-miterlimit="10" stroke-linecap="round" stroke-linejoin="round"/>
<path d="M42.659 60.1083L29.881 82.5634C29.2874 83.6066 28.4263 84.4744 27.3856 85.0781C26.3449 85.6819 25.1619 86 23.9573 86C20.6672 86 18 83.3453 18 80.0706C18 78.5522 18.5853 77.0917 19.6351 75.99L35.9642 58.8552M70.008 58.8552L72.6108 51.4785C72.9519 50.5116 73.071 49.4809 72.9594 48.4623C72.8477 47.4436 72.5081 46.4627 71.9655 45.5918L70.738 43.6214C69.5053 41.6426 66.6915 41.4368 65.1814 43.2151C64.8798 43.5703 64.6539 43.9829 64.5176 44.4277C64.3813 44.8725 64.3374 45.3403 64.3885 45.8026L64.9487 50.8675L63.8516 53.9767C63.1578 55.9432 62.9725 58.0519 63.313 60.1084L70.008 58.8552Z" stroke="#C24747" stroke-width="2.5" stroke-miterlimit="10" stroke-linecap="round" stroke-linejoin="round"/>
<path d="M88 55.6911C85.3419 53.0262 85.3419 48.7055 88 46.0407M83.9706 59.7305C79.0871 54.8346 79.0871 46.8968 83.9706 42.001M18 55.6911C20.6581 53.0262 20.6581 48.7055 18 46.0407M22.0294 59.7305C26.9129 54.8346 26.9129 46.8968 22.0294 42.001M24.3531 20L25.6984 26.0141L28.8653 24.1811L30.2105 30.1952M81.648 20L80.3027 26.0141L77.1359 24.1811L75.7906 30.1952M82.052 86H23.9695M51.2122 54.9041H54.7884M35.9816 58.647L33.3777 51.2136C33.0364 50.2393 32.9173 49.2007 33.029 48.1742C33.1407 47.1477 33.4804 46.1593 34.0232 45.2817L35.2513 43.2962C36.4845 41.3022 39.2996 41.0948 40.8103 42.8868C41.112 43.2447 41.338 43.6605 41.4743 44.1087C41.6107 44.5569 41.6547 45.0283 41.6035 45.4941L41.0431 50.5979L42.1406 53.731C42.8347 55.7126 43.02 57.8375 42.6795 59.9098L35.9816 58.647Z" stroke="#C24747" stroke-width="2.5" stroke-miterlimit="10" stroke-linecap="round" stroke-linejoin="round"/>
</svg>
